<svg id="svg-distributed" width="154px" height="154px" viewBox="0 0 308 308" version="1.1" xmlns="http://www.w3.org/2000/svg" xmlns:xlink="http://www.w3.org/1999/xlink">
  <title>Distributed</title>
  <desc>Distributed</desc>
  <defs></defs>
  <g id="Artboard-2" stroke="none" stroke-width="1" fill="none" fill-rule="evenodd">
    <g id="Group-5" transform="translate(34.000000, 29.000000)" fill-rule="nonzero" stroke="#468488" stroke-linecap="square" stroke-width="3">
      <path d="M1.5,4.5 L241.5,252.5" id="Line"></path>
      <path d="M1.5,250.5 L244.5,0.5" id="Line-2"></path>
      <path d="M121.5,2.5 L121.5,252.5" id="Line-3"></path>
      <path d="M2.5,127.5 L243.5,127.5" id="Line-4"></path>
      <path d="M122.5,2.5 L5.5,129.5" id="Line-5"></path>
      <path d="M121.5,3.5 L245.5,129.5" id="Line-6"></path>
      <path d="M0.5,3.5 L121.5,251.5" id="Line-7"></path>
      <path d="M1.5,250.5 L245.5,128.5" id="Line-8"></path>
      <path d="M242.5,253.5 L120.5,2.5" id="Line-9"></path>
    </g>
    <g id="Group-4" transform="translate(21.000000, 18.000000)" fill="#83A598" fill-rule="nonzero" stroke="#468488" stroke-width="4">
      <g id="Group">
        <circle id="Oval" cx="134" cy="15" r="15"></circle>
        <circle id="Oval" cx="252" cy="15" r="15"></circle>
        <circle id="Oval" cx="15" cy="15" r="15"></circle>
      </g>
      <g id="Group-2" transform="translate(0.000000, 123.000000)">
        <circle id="Oval" cx="134" cy="15" r="15"></circle>
        <circle id="Oval" cx="252" cy="15" r="15"></circle>
        <circle id="Oval" cx="15" cy="15" r="15"></circle>
      </g>
      <g id="Group-3" transform="translate(0.000000, 246.000000)">
        <circle id="Oval" cx="134" cy="15" r="15"></circle>
        <circle id="Oval" cx="252" cy="15" r="15"></circle>
        <circle id="Oval" cx="15" cy="15" r="15"></circle>
      </g>
    </g>
  </g>
</svg>
