<?xml version="1.0" encoding="UTF-8"?>
<svg width="800px" height="600px" viewBox="0 0 800 600" version="1.1" xmlns="http://www.w3.org/2000/svg" xmlns:xlink="http://www.w3.org/1999/xlink">
    <!-- Generator: Sketch 51.3 (57544) - http://www.bohemiancoding.com/sketch -->
    <title>Artboard 6</title>
    <desc>Created with Sketch.</desc>
    <defs>
        <path d="M292,183 L657,183 C661.418278,183 665,186.581722 665,191 L665,549 C665,553.418278 661.418278,557 657,557 L292,557 C287.581722,557 284,553.418278 284,549 L284,191 C284,186.581722 287.581722,183 292,183 Z" id="path-1"></path>
        <mask id="mask-2" maskContentUnits="userSpaceOnUse" maskUnits="objectBoundingBox" x="0" y="0" width="381" height="374" fill="white">
            <use xlink:href="#path-1"></use>
        </mask>
    </defs>
    <g id="Artboard-6" stroke="none" stroke-width="1" fill="none" fill-rule="evenodd">
        <g id="Group-3" transform="translate(8.000000, 9.000000)">
            <g id="Group-2" transform="translate(29.000000, 34.000000)" fill-rule="nonzero" stroke="#989719">
                <g id="Group">
                    <path d="M31.5,27.4645996 C48.8969696,27.4645996 63,19.6461039 63,12.65625 C63,5.66639614 48.8969696,0 31.5,0 C14.1030304,0 0,5.66639614 0,12.65625 C0,19.6461039 14.1030304,27.4645996 31.5,27.4645996 Z" id="Oval-4" stroke-width="4" fill="#EADCB1"></path>
                    <ellipse id="Oval-4" stroke-width="4" fill="#D3869B" cx="31.5" cy="12.65625" rx="16.6441048" ry="7.03125"></ellipse>
                    <path d="M0,12.8125 L0.25,52.7514648 L0.25,54.375 C13.6599231,61.2963867 24.0765898,64.7570801 31.5,64.7570801 C38.9234102,64.7570801 49.4234102,61.2963867 63,54.375 L63,11.2280273" id="Line-18" stroke-width="2" stroke-linecap="square"></path>
                    <path d="M31.75,28.3472222 L31.75,64.8194444" id="Line" stroke-width="2" stroke-linecap="square"></path>
                    <path d="M6.125,34.125 L21.175,39.9027778" id="Line-19" stroke-width="2" stroke-linecap="square"></path>
                    <path d="M6.125,40.2638889 L21.175,46.0416667" id="Line-19" stroke-width="2" stroke-linecap="square"></path>
                    <path d="M6.125,46.4027778 L21.175,52.1805556" id="Line-19" stroke-width="2" stroke-linecap="square"></path>
                </g>
            </g>
            <text id="Public-MainNet-USA" font-family="Tahoma" font-size="14" font-weight="normal" fill="#EBDBB1">
                <tspan x="0" y="14">Public MainNet USA</tspan>
            </text>
        </g>
        <g id="Group-3" transform="translate(12.000000, 190.000000)">
            <g id="Group-2" transform="translate(25.000000, 0.000000)" fill-rule="nonzero" stroke="#989719">
                <g id="Group">
                    <path d="M31.5,27.4645996 C48.8969696,27.4645996 63,19.6461039 63,12.65625 C63,5.66639614 48.8969696,0 31.5,0 C14.1030304,0 0,5.66639614 0,12.65625 C0,19.6461039 14.1030304,27.4645996 31.5,27.4645996 Z" id="Oval-4" stroke-width="4" fill="#EADCB1"></path>
                    <ellipse id="Oval-4" stroke-width="4" fill="#D3869B" cx="31.5" cy="12.65625" rx="16.6441048" ry="7.03125"></ellipse>
                    <path d="M0,12.8125 L0.25,52.7514648 L0.25,54.375 C13.6599231,61.2963867 24.0765898,64.7570801 31.5,64.7570801 C38.9234102,64.7570801 49.4234102,61.2963867 63,54.375 L63,11.2280273" id="Line-18" stroke-width="2" stroke-linecap="square"></path>
                    <path d="M31.75,28.3472222 L31.75,64.8194444" id="Line" stroke-width="2" stroke-linecap="square"></path>
                    <path d="M6.125,34.125 L21.175,39.9027778" id="Line-19" stroke-width="2" stroke-linecap="square"></path>
                    <path d="M6.125,40.2638889 L21.175,46.0416667" id="Line-19" stroke-width="2" stroke-linecap="square"></path>
                    <path d="M6.125,46.4027778 L21.175,52.1805556" id="Line-19" stroke-width="2" stroke-linecap="square"></path>
                </g>
            </g>
            <text id="Public-Mining-Pool" font-family="Tahoma" font-size="14" font-weight="normal" fill="#EBDBB1">
                <tspan x="0" y="91">Public Mining Pool</tspan>
            </text>
        </g>
        <g id="Group-4" transform="translate(344.000000, 9.000000)">
            <g id="Group-2" transform="translate(21.000000, 34.000000)" fill-rule="nonzero" stroke="#989719">
                <g id="Group">
                    <path d="M31.5,27.4645996 C48.8969696,27.4645996 63,19.6461039 63,12.65625 C63,5.66639614 48.8969696,0 31.5,0 C14.1030304,0 0,5.66639614 0,12.65625 C0,19.6461039 14.1030304,27.4645996 31.5,27.4645996 Z" id="Oval-4" stroke-width="4" fill="#EADCB1"></path>
                    <ellipse id="Oval-4" stroke-width="4" fill="#D3869B" cx="31.5" cy="12.65625" rx="16.6441048" ry="7.03125"></ellipse>
                    <path d="M0,12.8125 L0.25,52.7514648 L0.25,54.375 C13.6599231,61.2963867 24.0765898,64.7570801 31.5,64.7570801 C38.9234102,64.7570801 49.4234102,61.2963867 63,54.375 L63,11.2280273" id="Line-18" stroke-width="2" stroke-linecap="square"></path>
                    <path d="M31.75,28.3472222 L31.75,64.8194444" id="Line" stroke-width="2" stroke-linecap="square"></path>
                    <path d="M6.125,34.125 L21.175,39.9027778" id="Line-19" stroke-width="2" stroke-linecap="square"></path>
                    <path d="M6.125,40.2638889 L21.175,46.0416667" id="Line-19" stroke-width="2" stroke-linecap="square"></path>
                    <path d="M6.125,46.4027778 L21.175,52.1805556" id="Line-19" stroke-width="2" stroke-linecap="square"></path>
                </g>
            </g>
            <text id="Public-MainNet-UK" font-family="Tahoma" font-size="14" font-weight="normal" fill="#EBDBB1">
                <tspan x="0" y="14">Public MainNet UK</tspan>
            </text>
        </g>
        <g id="Group-5" transform="translate(659.000000, 9.000000)">
            <g id="Group-2" transform="translate(30.000000, 34.000000)" fill-rule="nonzero" stroke="#989719">
                <g id="Group">
                    <path d="M31.5,27.4645996 C48.8969696,27.4645996 63,19.6461039 63,12.65625 C63,5.66639614 48.8969696,0 31.5,0 C14.1030304,0 0,5.66639614 0,12.65625 C0,19.6461039 14.1030304,27.4645996 31.5,27.4645996 Z" id="Oval-4" stroke-width="4" fill="#EADCB1"></path>
                    <ellipse id="Oval-4" stroke-width="4" fill="#D3869B" cx="31.5" cy="12.65625" rx="16.6441048" ry="7.03125"></ellipse>
                    <path d="M0,12.8125 L0.25,52.7514648 L0.25,54.375 C13.6599231,61.2963867 24.0765898,64.7570801 31.5,64.7570801 C38.9234102,64.7570801 49.4234102,61.2963867 63,54.375 L63,11.2280273" id="Line-18" stroke-width="2" stroke-linecap="square"></path>
                    <path d="M31.75,28.3472222 L31.75,64.8194444" id="Line" stroke-width="2" stroke-linecap="square"></path>
                    <path d="M6.125,34.125 L21.175,39.9027778" id="Line-19" stroke-width="2" stroke-linecap="square"></path>
                    <path d="M6.125,40.2638889 L21.175,46.0416667" id="Line-19" stroke-width="2" stroke-linecap="square"></path>
                    <path d="M6.125,46.4027778 L21.175,52.1805556" id="Line-19" stroke-width="2" stroke-linecap="square"></path>
                </g>
            </g>
            <text id="Public-MainNet-Asia" font-family="Tahoma" font-size="14" font-weight="normal" fill="#EBDBB1">
                <tspan x="0" y="14">Public MainNet Asia</tspan>
            </text>
        </g>
        <path id="Line-20" d="M115,75.2083333 L124,79.7083333 L124,70.7083333 L115,75.2083333 Z M344,75.2083333 L335,70.7083333 L335,79.7083333 L344,75.2083333 Z M123.5,75.7083333 L335.5,75.7083333 L336,75.7083333 L336,74.7083333 L335.5,74.7083333 L123.5,74.7083333 L123,74.7083333 L123,75.7083333 L123.5,75.7083333 Z" fill="#D79A20" fill-rule="nonzero"></path>
        <path id="Line-20" d="M115.037494,203.68997 L125.072324,204.433069 L121.652871,196.107965 L115.037494,203.68997 Z M347.962506,108.018364 L337.927676,107.275265 L341.347129,115.600368 L347.962506,108.018364 Z M123.026785,200.948983 L340.353154,111.684362 L340.81566,111.494393 L340.435721,110.569381 L339.973215,110.759351 L122.646846,200.023971 L122.18434,200.213941 L122.564279,201.138952 L123.026785,200.948983 Z" fill="#D79A20" fill-rule="nonzero"></path>
        <path id="Line-20" d="M413.580896,201.993412 L416.565484,192.383926 L407.684059,193.84005 L413.580896,201.993412 Z M400.419104,121.714921 L397.434516,131.324408 L406.315941,129.868283 L400.419104,121.714921 Z M412.709512,193.588133 L402.277313,129.958409 L402.196417,129.464996 L401.209592,129.626788 L401.290488,130.1202 L411.722687,193.749925 L411.803583,194.243337 L412.790408,194.081545 L412.709512,193.588133 Z" fill="#D79A20" fill-rule="nonzero"></path>
        <path id="Line-20" d="M417.25,424 L421.75,415 L412.75,415 L417.25,424 Z M417.25,381 L412.75,390 L421.75,390 L417.25,381 Z M417.75,415.5 L417.75,389.5 L417.75,389 L416.75,389 L416.75,389.5 L416.75,415.5 L416.75,416 L417.75,416 L417.75,415.5 Z" fill="#D79A20" fill-rule="nonzero"></path>
        <path id="Line-20" d="M545.784019,424.37136 L543.099854,414.673667 L536.415365,420.700077 L545.784019,424.37136 Z M445.970988,379.172717 L442.000784,388.418661 L450.98562,387.896447 L445.970988,379.172717 Z M540.463317,417.725595 C532.55332,410.318215 521.517482,404.862413 507.362585,401.35065 C504.267156,400.582688 501.431409,400.266756 498.475872,400.3297 C495.835936,400.385923 493.162122,400.724615 489.337108,401.427183 C488.962629,401.495967 480.776424,403.090773 477.840727,403.601862 C470.678629,404.848745 463.552116,405.725784 455.069204,406.274781 C450.868849,406.54662 448.087843,400.378677 446.959515,387.567259 L446.915648,387.069187 L445.919504,387.156919 L445.963371,387.654991 C447.137834,400.990247 450.116863,407.597379 455.133787,407.272694 C463.653953,406.721285 470.815951,405.839879 478.012242,404.587044 C480.959929,404.073867 489.152514,402.477818 489.517764,402.41073 C493.294699,401.716992 495.920817,401.384342 498.497164,401.329474 C501.36443,401.268409 504.112049,401.574523 507.12179,402.321225 C521.121671,405.79453 532.005407,411.175138 539.779781,418.455512 L540.144739,418.79728 L540.828276,418.067363 L540.463317,417.725595 Z" fill="#D79A20" fill-rule="nonzero"></path>
        <path id="Line-20" d="M552.901842,201.797528 L548.346435,192.825445 L542.990932,200.058604 L552.901842,201.797528 Z M426.098158,107.910805 L430.653565,116.882888 L436.009068,109.649729 L426.098158,107.910805 Z M546.42212,196.377741 L433.172936,112.526908 L432.771094,112.22938 L432.176038,113.033064 L432.57788,113.330592 L545.827064,197.181426 L546.228906,197.478954 L546.823962,196.675269 L546.42212,196.377741 Z" fill="#D79A20" fill-rule="nonzero"></path>
        <path id="Line-20" d="M446,75.2083333 L455,79.7083333 L455,70.7083333 L446,75.2083333 Z M675,75.2083333 L666,70.7083333 L666,79.7083333 L675,75.2083333 Z M454.5,75.7083333 L666.5,75.7083333 L667,75.7083333 L667,74.7083333 L666.5,74.7083333 L454.5,74.7083333 L454,74.7083333 L454,75.7083333 L454.5,75.7083333 Z" fill="#D79A20" fill-rule="nonzero"></path>
        <use id="Rectangle-5" stroke="#A79984" mask="url(#mask-2)" stroke-width="4" stroke-dasharray="10,8" fill-rule="nonzero" xlink:href="#path-1"></use>
        <text id="Your-Private-Nodes" font-family="Tahoma" font-size="14" font-weight="normal" fill="#EBDBB1">
            <tspan x="533" y="170">Your Private Nodes</tspan>
        </text>
        <g id="Group-2" transform="translate(363.000000, 215.000000)">
            <g id="Group" fill-rule="nonzero" stroke="#D65D0D">
                <path d="M54,45.6334886 C83.8233765,45.6334886 108,32.6427572 108,21.0288462 C108,9.41493512 83.8233765,0 54,0 C24.1766235,0 0,9.41493512 0,21.0288462 C0,32.6427572 24.1766235,45.6334886 54,45.6334886 Z" id="Oval-4" stroke-width="2.4" fill="#EADCB1"></path>
                <ellipse id="Oval-4" stroke-width="2.4" fill="#CB241C" cx="54" cy="21.0288462" rx="28.5327511" ry="11.6826923"></ellipse>
                <path d="M0,23.5500268 L0.428571429,146.916234 L0.428571429,151.931121 C23.4170111,151.931121 41.2741539,151.931121 54,151.931121 C66.7258461,151.931121 84.7258461,151.931121 108,151.931121 L108,18.6557993" id="Line-18" stroke-width="1.2" stroke-linecap="square"></path>
            </g>
            <g id="Group-6" transform="translate(9.000000, 57.000000)">
                <text id="DAPP-2" font-family="Tahoma" font-size="20" font-weight="normal" fill="#EBDBB1">
                    <tspan x="13.1123047" y="69">DAPP 2</tspan>
                </text>
                <rect id="Rectangle-6" stroke="#D65D0D" fill-rule="nonzero" x="0.5" y="45.5" width="88" height="34"></rect>
                <g>
                    <text id="DAPP-1" font-family="Tahoma" font-size="20" font-weight="normal" fill="#EBDBB1">
                        <tspan x="13.1123047" y="24">DAPP 1</tspan>
                    </text>
                    <rect id="Rectangle-6" stroke="#D65D0D" fill-rule="nonzero" x="0.5" y="0.5" width="88" height="34"></rect>
                </g>
            </g>
        </g>
        <g id="Group-2" transform="translate(515.000000, 215.000000)">
            <g id="Group" fill-rule="nonzero" stroke="#D65D0D">
                <path d="M54,45.6334886 C83.8233765,45.6334886 108,32.6427572 108,21.0288462 C108,9.41493512 83.8233765,0 54,0 C24.1766235,0 0,9.41493512 0,21.0288462 C0,32.6427572 24.1766235,45.6334886 54,45.6334886 Z" id="Oval-4" stroke-width="2.4" fill="#EADCB1"></path>
                <ellipse id="Oval-4" stroke-width="2.4" fill="#CB241C" cx="54" cy="21.0288462" rx="28.5327511" ry="11.6826923"></ellipse>
                <path d="M0,23.5500268 L0.428571429,146.916234 L0.428571429,151.931121 C23.4170111,151.931121 41.2741539,151.931121 54,151.931121 C66.7258461,151.931121 84.7258461,151.931121 108,151.931121 L108,18.6557993" id="Line-18" stroke-width="1.2" stroke-linecap="square"></path>
            </g>
            <g id="Group-6" transform="translate(9.000000, 57.000000)">
                <text id="DAPP-2" font-family="Tahoma" font-size="20" font-weight="normal" fill="#EBDBB1">
                    <tspan x="13.1123047" y="69">DAPP 2</tspan>
                </text>
                <rect id="Rectangle-6" stroke="#D65D0D" fill-rule="nonzero" x="0.5" y="45.5" width="88" height="34"></rect>
                <g>
                    <text id="DAPP-1" font-family="Tahoma" font-size="20" font-weight="normal" fill="#EBDBB1">
                        <tspan x="13.1123047" y="24">DAPP 1</tspan>
                    </text>
                    <rect id="Rectangle-6" stroke="#D65D0D" fill-rule="nonzero" x="0.5" y="0.5" width="88" height="34"></rect>
                </g>
            </g>
        </g>
        <text id="Redundancy-/-Scalabi" font-family="Tahoma" font-size="14" font-weight="normal" fill="#EBDBB1">
            <tspan x="681.39502" y="204">Redundancy / </tspan>
            <tspan x="693.453613" y="221">Scalability</tspan>
        </text>
        <path d="" id="Path-2" stroke="#D79A20" fill-rule="nonzero"></path>
        <path id="Path-3" d="M634.296455,293.77707 L643.934354,296.668592 L642.392413,287.801664 L634.296455,293.77707 Z M757.037965,224.370378 C771.517172,237.501228 769.395526,249.482978 750.541878,260.708599 C731.480718,272.057774 695.464668,282.44208 642.522627,291.839054 L642.697391,292.823664 C695.750955,283.406896 731.860014,272.995772 751.05347,261.567827 C770.454435,250.016329 772.716909,237.23927 757.709739,223.629622 L757.037965,224.370378 Z" fill="#D79A20" fill-rule="nonzero"></path>
        <g id="Group-8" transform="translate(364.000000, 434.000000)">
            <text id="DAPP-3-API-Based" font-family="Tahoma" font-size="20" font-weight="normal" fill="#EBDBB1">
                <tspan x="21.6123047" y="35">DAPP 3</tspan>
                <tspan x="9.19042969" y="59">API Based</tspan>
            </text>
            <rect id="Rectangle-7" stroke="#468488" fill-rule="nonzero" x="0.5" y="0.5" width="107" height="74"></rect>
        </g>
        <g id="Group-8" transform="translate(508.000000, 434.000000)">
            <text id="DAPP-4-API-Based" font-family="Tahoma" font-size="20" font-weight="normal" fill="#EBDBB1">
                <tspan x="21.6123047" y="35">DAPP 4</tspan>
                <tspan x="9.19042969" y="59">API Based</tspan>
            </text>
            <rect id="Rectangle-7" stroke="#468488" fill-rule="nonzero" x="0.5" y="0.5" width="107" height="74"></rect>
        </g>
        <g id="group-of-businessmen" transform="translate(18.000000, 370.000000)" fill="#EADCB1" fill-rule="nonzero">
            <circle id="Oval" cx="19.5" cy="15.5" r="7.5"></circle>
            <path d="M29.527431,57.529837 C28.6314454,57.4496811 27.7458299,57.2564848 26.8996213,56.9358611 C24.4709195,56.0089298 22.5503577,54.1941176 21.4946709,51.8305457 C20.4389841,49.4710843 20.3746889,46.8362155 21.3163034,44.4274274 L29.1167709,24.4192771 C28.5837424,24.1746988 28.0133812,24 27.4015392,24 L23.3965663,24 C22.26414,24 21.2831187,24.4871013 20.5447602,25.2208363 L18.5059781,25.2208363 C17.7696936,24.4891566 16.7824502,24 15.6541719,24 L11.6471251,24 C9.9567818,24 8.42821371,25.0317505 7.81637167,26.6040397 L0.279307316,45.9503898 C-0.54201285,48.0467753 0.509525848,50.4062367 2.62712153,51.216017 C4.74056913,52.0278526 7.12156799,50.9858257 7.93874008,48.8832743 L11.5454971,39.6283487 L11.5454971,50.5131113 L3.96487786,76.8104181 C3.33851753,78.9807938 4.60575648,81.2251595 6.78349934,81.8479093 C7.16304881,81.9527286 7.54259828,82 7.91799967,82 C9.70374882,82 11.3463892,80.8408221 11.8607513,79.0527286 L19.5243321,52.4738483 L26.7274759,77.4578313 L31,62.6351524 L29.527431,57.529837 Z" id="Shape"></path>
            <path d="M77.5,23 C81.633959,23 85,19.6441473 85,15.5010667 C85,11.3579861 81.6360922,8 77.5,8 C73.3617747,8 70,11.3579861 70,15.5010667 C70,19.6441473 73.3596416,23 77.5,23 Z" id="Shape"></path>
            <path d="M96.7207553,45.9465013 L89.1826194,26.6035784 C88.5708587,25.0336227 87.0466414,24 85.3523753,24 L81.3437875,24 C80.2177331,24 79.2285472,24.4870151 78.4944344,25.22062 L76.4559233,25.22062 C75.717663,24.48907 74.7367721,24 73.6044964,24 L69.6000561,24 C68.9882954,24 68.41801,24.1726129 67.8850524,24.4192028 L75.6844827,44.4238087 C76.6259721,46.8321701 76.5616853,49.4645173 75.5061389,51.8256156 C74.4485188,54.1887688 72.5282123,56.0032595 70.0977597,56.9341364 C69.2578849,57.2547033 68.374461,57.4190965 67.4806682,57.4992383 L66,62.6283082 L70.2761035,77.4545261 L77.4782895,52.4708592 L85.1387775,79.0470859 C85.655145,80.8307529 87.2954932,82 89.0810049,82 C89.4563564,82 89.8358554,81.9445173 90.2153544,81.8397166 C92.3948814,81.2211869 93.6619519,78.971054 93.0315273,76.8072276 L85.4519161,50.5104694 L85.4519161,39.6276351 L89.0602672,48.8788663 C89.8773307,50.9789903 92.2580129,52.0208326 94.3711795,51.2132507 C96.4905674,50.4015589 97.5419662,48.0425155 96.7207553,45.9465013 Z" id="Shape"></path>
            <path d="M48.5,17 C53.1874102,17 57,13.1950928 57,8.50101735 C57,3.80287253 53.1874102,0 48.5,0 C43.8125898,0 40,3.80490724 40,8.50101735 C40,13.1950928 43.8125898,17 48.5,17 Z" id="Shape"></path>
            <path d="M58.3977924,51.0790517 L58.3977924,38.3185329 L62.6477361,49.1709557 C63.6099875,51.6305949 66.4144979,52.849262 68.9023702,51.902311 C71.3964107,50.9533323 72.6362346,48.1935888 71.6739832,45.7339496 L62.7916625,23.051737 C62.0720301,21.2125839 60.275005,20 58.2805951,20 L53.5618623,20 C52.2336263,20 51.07399,20.5718205 50.2042628,21.4315789 L52.4556844,37.7386015 L49.0014486,40.6281199 L45.5472128,37.7386015 L47.7986343,21.4315789 C46.9289071,20.5718205 45.7713269,20 44.4410349,20 L39.722302,20 C37.7237799,20 35.9267548,21.2125839 35.2112346,23.051737 L26.3268579,45.7339496 C25.3625504,48.1935888 26.6044304,50.9573878 29.0984709,51.902311 C31.5883992,52.8533174 34.3908536,51.6305949 35.353105,49.1709557 L39.6030487,38.3185329 L39.6030487,51.0790517 L30.6713818,81.9147756 C29.9373567,84.4494409 31.4259678,87.091576 33.9940277,87.8134486 C34.4381437,87.9411958 34.888428,88 35.3243197,88 C37.4297586,88 39.3686541,86.629253 39.9752014,84.5406888 L49.0014486,53.3805278 L58.0276957,84.5406888 C58.634243,86.629253 60.5710824,88 62.6785774,88 C63.1185813,88 63.5688656,87.9432235 64.0088694,87.8134486 C66.5769293,87.091576 68.0675965,84.4494409 67.3315153,81.9147756 L58.3977924,51.0790517 Z" id="Shape"></path>
        </g>
        <text id="Public-Users" font-family="Tahoma" font-size="14" font-weight="normal" fill="#EBDBB1">
            <tspan x="31.199707" y="486">Public Users</tspan>
        </text>
        <path id="Line-21" d="M120.03663,393.687853 L130.067957,394.476833 L126.686611,386.13618 L120.03663,393.687853 Z M379.312147,288.03663 L127.662844,390.056618 L127.199474,390.244471 L127.575179,391.17121 L128.038549,390.983358 L379.687853,288.96337 L380.151222,288.775517 L379.775517,287.848778 L379.312147,288.03663 Z" fill="#D79A20" fill-rule="nonzero"></path>
        <path id="Line-22" d="M126.017137,403.629781 L135.876706,405.639484 L133.54064,396.947948 L126.017137,403.629781 Z M379.370219,335.017137 L134.095248,400.940844 L133.612385,401.070626 L133.871947,402.036352 L134.35481,401.906571 L379.629781,335.982863 L380.112645,335.853082 L379.853082,334.887355 L379.370219,335.017137 Z" fill="#D79A20" fill-rule="nonzero"></path>
        <path id="Line-23" d="M127.013913,414.382871 L134.709316,420.865984 L136.817646,412.116416 L127.013913,414.382871 Z M376.617129,474.013913 L135.371145,415.88235 L134.885058,415.765221 L134.650799,416.737395 L135.136886,416.854525 L376.382871,474.986087 L376.868958,475.103217 L377.103217,474.131042 L376.617129,474.013913 Z" fill="#D79A20" fill-rule="nonzero"></path>
        <path id="Line-24" d="M126.783252,426.032711 L132.279902,434.461047 L136.82391,426.692393 L126.783252,426.032711 Z M554,503.046875 L554,532.285156 L554.5,531.785156 L308.4375,531.785156 L308.689945,531.853564 L134.367731,429.889743 L133.93614,429.637298 L133.43125,430.500481 L133.862842,430.752926 L308.185055,532.716748 L308.302009,532.785156 L308.4375,532.785156 L554.5,532.785156 L555,532.785156 L555,532.285156 L555,503.046875 L555,502.546875 L554,502.546875 L554,503.046875 Z" fill="#D79A20" fill-rule="nonzero"></path>
        <path d="M329.5,184.5 L329.5,557.5" id="Line-31" stroke="#A79984" stroke-width="2" stroke-linecap="square" stroke-dasharray="10" fill-rule="nonzero"></path>
        <text id="Public-facing-DMZ" transform="translate(307.500000, 255.000000) rotate(-90.000000) translate(-307.500000, -255.000000) " font-family="Tahoma" font-size="14" font-weight="normal" fill="#EADCB1">
            <tspan x="252.5" y="260.5">Public facing DMZ</tspan>
        </text>
    </g>
</svg>