<?xml version="1.0" encoding="UTF-8"?><!DOCTYPE svg PUBLIC "-//W3C//DTD SVG 1.1//EN" "http://www.w3.org/Graphics/SVG/1.1/DTD/svg11.dtd"><svg xmlns="http://www.w3.org/2000/svg" xmlns:xlink="http://www.w3.org/1999/xlink"><defs/><symbol id="align-center"><path d="M14.5 7.5c-.831 0-1.5.669-1.5 1.5v3c0 .831.669 1.5 1.5 1.5h19c.831 0 1.5-.669 1.5-1.5V9c0-.831-.669-1.5-1.5-1.5h-19zm-8 9c-.831 0-1.5.669-1.5 1.5v3c0 .831.669 1.5 1.5 1.5h35c.831 0 1.5-.669 1.5-1.5v-3c0-.831-.669-1.5-1.5-1.5h-35zm8 9c-.831 0-1.5.669-1.5 1.5v3c0 .831.669 1.5 1.5 1.5h19c.831 0 1.5-.669 1.5-1.5v-3c0-.831-.669-1.5-1.5-1.5h-19zm-8 9c-.831 0-1.5.669-1.5 1.5v3c0 .831.669 1.5 1.5 1.5h35c.831 0 1.5-.669 1.5-1.5v-3c0-.831-.669-1.5-1.5-1.5h-35z"/></symbol><symbol id="align-justify"><path d="M6.5 7.5C5.669 7.5 5 8.169 5 9v3c0 .831.669 1.5 1.5 1.5h35c.831 0 1.5-.669 1.5-1.5V9c0-.831-.669-1.5-1.5-1.5h-35zm0 9c-.831 0-1.5.669-1.5 1.5v3c0 .831.669 1.5 1.5 1.5h35c.831 0 1.5-.669 1.5-1.5v-3c0-.831-.669-1.5-1.5-1.5h-35zm0 9c-.831 0-1.5.669-1.5 1.5v3c0 .831.669 1.5 1.5 1.5h35c.831 0 1.5-.669 1.5-1.5v-3c0-.831-.669-1.5-1.5-1.5h-35zm0 9c-.831 0-1.5.669-1.5 1.5v3c0 .831.669 1.5 1.5 1.5h35c.831 0 1.5-.669 1.5-1.5v-3c0-.831-.669-1.5-1.5-1.5h-35z"/></symbol><symbol id="align-left"><path d="M6.5 7.5C5.669 7.5 5 8.169 5 9v3c0 .831.669 1.5 1.5 1.5h19c.831 0 1.5-.669 1.5-1.5V9c0-.831-.669-1.5-1.5-1.5h-19zm0 9c-.831 0-1.5.669-1.5 1.5v3c0 .831.669 1.5 1.5 1.5h35c.831 0 1.5-.669 1.5-1.5v-3c0-.831-.669-1.5-1.5-1.5h-35zm0 9c-.831 0-1.5.669-1.5 1.5v3c0 .831.669 1.5 1.5 1.5h19c.831 0 1.5-.669 1.5-1.5v-3c0-.831-.669-1.5-1.5-1.5h-19zm0 9c-.831 0-1.5.669-1.5 1.5v3c0 .831.669 1.5 1.5 1.5h35c.831 0 1.5-.669 1.5-1.5v-3c0-.831-.669-1.5-1.5-1.5h-35z"/></symbol><symbol id="align-right"><path d="M41.5 7.5c.831 0 1.5.669 1.5 1.5v3c0 .831-.669 1.5-1.5 1.5h-19c-.831 0-1.5-.669-1.5-1.5V9c0-.831.669-1.5 1.5-1.5h19zm0 9c.831 0 1.5.669 1.5 1.5v3c0 .831-.669 1.5-1.5 1.5h-35c-.831 0-1.5-.669-1.5-1.5v-3c0-.831.669-1.5 1.5-1.5h35zm0 9c.831 0 1.5.669 1.5 1.5v3c0 .831-.669 1.5-1.5 1.5h-19c-.831 0-1.5-.669-1.5-1.5v-3c0-.831.669-1.5 1.5-1.5h19zm0 9c.831 0 1.5.669 1.5 1.5v3c0 .831-.669 1.5-1.5 1.5h-35c-.831 0-1.5-.669-1.5-1.5v-3c0-.831.669-1.5 1.5-1.5h35z"/></symbol><symbol id="announcement"><path d="M41.345 11.485a1.629 1.629 0 0 0-1.603 1.65v.356l-31.52 6.894a1.629 1.629 0 0 0-1.62-1.3A1.629 1.629 0 0 0 5 20.735v6.514a1.629 1.629 0 0 0 3.223.348l3.713.812a5.52 5.52 0 0 0 .532 4.415 5.532 5.532 0 0 0 6.211 2.502 5.527 5.527 0 0 0 3.995-4.568l17.068 3.735v.356a1.629 1.629 0 1 0 3.257 0V13.135a1.629 1.629 0 0 0-1.654-1.65zm-27.278 17.39l6.474 1.417a3.332 3.332 0 0 1-2.437 2.939 3.343 3.343 0 0 1-4.037-4.356z"/></symbol><symbol id="archive"><path d="M8.166 8C6.416 8 5 9.343 5 11v3h38v-3c0-1.657-1.416-3-3.166-3H8.166zM7 16v21c0 1.658 1.384 3 3.092 3h27.816C39.616 40 41 38.657 41 37V16H7zm12 4.5h10a1.5 1.5 0 1 1 0 3H19a1.5 1.5 0 1 1 0-3z"/></symbol><symbol id="arrow-down"><path d="M7.14 25.434c0 .511.196 1.022.588 1.414l12.73 12.728c.006.007.01.015.017.022l2.12 2.12a1.995 1.995 0 0 0 2.829 0L40.273 26.87a1.995 1.995 0 0 0 0-2.828l-2.121-2.122a1.998 1.998 0 0 0-2.83 0l-7.81 7.811V7.694c0-1.108-.893-2-2-2h-3c-1.109 0-2 .892-2 2v22.037l-7.833-7.832a1.998 1.998 0 0 0-2.83 0L7.73 24.02a1.994 1.994 0 0 0-.589 1.414z" fill-rule="evenodd"/></symbol><symbol id="arrow-left"><path d="M22.567 7.14c-.511 0-1.022.196-1.414.587L8.423 20.455c-.006.007-.014.011-.02.018L6.28 22.594a1.995 1.995 0 0 0 0 2.828l14.85 14.85a1.995 1.995 0 0 0 2.828 0l2.122-2.122a1.998 1.998 0 0 0 0-2.83l-7.811-7.81h22.037c1.108 0 2-.892 2-2v-3c0-1.108-.892-2-2-2H18.27l7.832-7.832a1.998 1.998 0 0 0 0-2.83l-2.121-2.122a1.994 1.994 0 0 0-1.414-.588z" fill-rule="evenodd"/></symbol><symbol id="arrow-right"><path d="M25.434 40.86c.511 0 1.022-.196 1.414-.588l12.73-12.728c.006-.006.014-.01.02-.017l2.122-2.122a1.995 1.995 0 0 0 0-2.828L26.87 7.727a1.995 1.995 0 0 0-2.827 0L21.92 9.848a1.998 1.998 0 0 0 0 2.83l7.811 7.811H7.695c-1.108 0-2 .892-2 2v3c0 1.108.892 2 2 2h22.037L21.9 35.321a1.998 1.998 0 0 0 0 2.83l2.121 2.121c.391.393.902.59 1.413.59z" fill-rule="evenodd"/></symbol><symbol id="arrow-up"><path d="M40.861 22.566c0-.511-.196-1.022-.588-1.414L27.544 8.424c-.006-.007-.01-.015-.017-.022l-2.122-2.12a1.995 1.995 0 0 0-2.828 0L7.728 21.131a1.995 1.995 0 0 0 0 2.827l2.121 2.122a1.998 1.998 0 0 0 2.83 0l7.811-7.811v22.037c0 1.108.892 2 2 2h3c1.108 0 2-.892 2-2V18.27l7.832 7.832a1.998 1.998 0 0 0 2.83 0l2.121-2.121c.392-.392.588-.903.588-1.414z" fill-rule="evenodd"/></symbol><symbol id="arrows"><path d="M23.971 5c-.52.01-1.017.216-1.385.584l-5.996 6.002c-1.259 1.26-.369 3.413 1.412 3.414H21.5v6.5H15v-3.498c-.001-1.78-2.154-2.671-3.414-1.412l-6.002 5.996A2.012 2.012 0 0 0 5 23.971c-.008.54.202 1.061.584 1.443l6.002 5.996c1.26 1.259 3.413.369 3.414-1.412V26.5h6.5V33h-3.498c-1.781.001-2.671 2.154-1.412 3.414l5.996 6.002c.368.367.865.574 1.385.584a1.999 1.999 0 0 0 1.443-.584l5.996-6.002c1.259-1.26.369-3.413-1.412-3.414H26.5v-6.5H33v3.498c.001 1.781 2.154 2.671 3.414 1.412l6.002-5.996c.382-.382.592-.903.584-1.443a2.014 2.014 0 0 0-.584-1.385l-6.002-5.996c-1.26-1.259-3.413-.368-3.414 1.412V21.5h-6.5V15h3.498c1.781-.001 2.671-2.154 1.412-3.414l-5.996-6.002A1.999 1.999 0 0 0 23.971 5z"/></symbol><symbol id="attachment"><path d="M40.198 7.802c3.736 3.736 3.736 9.85 0 13.585l-6.405 6.405-4.568 4.568c-2.289 2.289-6.071 2.289-8.36 0-2.289-2.289-2.289-6.072 0-8.36l6.693-6.693 1.406-1.406a1.843 1.843 0 0 1 2.613 0l.522.522a1.843 1.843 0 0 1 0 2.613l-1.569 1.567-6.53 6.53c-.607.607-.607 1.485 0 2.09.605.607 1.483.607 2.09 0l6.692-6.692 4.28-4.28c2.053-2.053 2.053-5.262 0-7.315s-5.262-2.054-7.315 0l-18.811 18.81c-2.054 2.054-2.054 5.263 0 7.316s5.262 2.053 7.315 0l.261-.261.755-.755.813-.813a1.843 1.843 0 0 1 2.612 0l.523.523a1.843 1.843 0 0 1 0 2.612l-.812.813-.756.755-.26.261c-3.737 3.736-9.85 3.736-13.586 0-3.736-3.736-3.736-9.85 0-13.585L26.611 7.8c3.736-3.736 9.85-3.736 13.585 0z"/></symbol><symbol id="bell"><path d="M24 5a3.037 3.037 0 0 0-3.039 3.04v.444c-4.394 1.309-7.602 5.376-7.602 10.196v4.191c0 2.016-.395 3.99-1.134 5.822-.772 1.573-2.022 3.16-4.086 5.047-.68.642-.86.821-.86 1.66 0 .84.682 1.52 1.522 1.52h30.398c.84 0 1.522-.68 1.522-1.52 0-.839-.181-1.018-.86-1.66-2.064-1.887-3.314-3.474-4.086-5.047a15.566 15.566 0 0 1-1.134-5.822v-4.19c0-4.82-3.208-8.888-7.602-10.197V8.04c0-1.68-1.36-3.039-3.04-3.039zm-4.561 33.439a4.561 4.561 0 1 0 9.122 0h-9.122z"/></symbol><symbol id="bold"><path d="M9.5 5a1.5 1.5 0 0 0 0 3H12v32H9.5a1.5 1.5 0 0 0 0 3h16.129c4.642 0 8.199-.949 10.668-2.848C38.766 38.235 40 35.487 40 31.91c0-2.82-.909-5.034-2.728-6.638-1.82-1.605-4.364-2.433-7.631-2.489 2.673-.7 4.696-1.797 6.07-3.29 1.374-1.513 2.06-3.385 2.06-5.616 0-2.95-1.057-5.162-3.173-6.637C32.48 5.747 29.325 5 25.128 5H9.5zm12.48 3.043c2.692 0 4.689.534 5.988 1.603s1.95 2.71 1.95 4.922c0 2.526-.707 4.39-2.118 5.588-1.392 1.18-3.574 1.77-6.545 1.77h-.974a14.222 14.222 0 0 1-.557-.055l-.027-13.719h.166c.965-.074 1.671-.11 2.117-.11zm1.477 17.008c2.859 0 5.004.598 6.433 1.797 1.43 1.18 2.145 2.98 2.145 5.394 0 2.674-.761 4.617-2.283 5.834-1.523 1.199-3.955 1.8-7.297 1.8a59.32 59.32 0 0 1-2.563-.085l-.195-.027V25.162a50.604 50.604 0 0 1 1.67-.084 65.255 65.255 0 0 1 2.09-.027z"/></symbol><symbol id="book"><path d="M13.359 5a4.56 4.56 0 0 0-4.558 4.56v28.167a6.017 6.017 0 0 0 1.074 3.244c.679.975 1.75 1.815 3.117 2.008.069.01.138.013.207.013 8.162.014 16.324.002 24.481.006 1.899-.006 2.071-2.787.187-3.027-.454-1.879-.41-3.149.164-5.23a3.017 3.017 0 0 0 1.168-2.382V8.04A3.037 3.037 0 0 0 36.16 5H13.359zM19 14.75h11a1.25 1.25 0 1 1 0 2.5H19a1.25 1.25 0 1 1 0-2.5zm0 4h11a1.25 1.25 0 1 1 0 2.5H19a1.25 1.25 0 1 1 0-2.5zm-5.58 16.648h21.348a12.51 12.51 0 0 0-.002 4.561c-7.125-.001-14.249.006-21.37-.006-.381-.061-.72-.281-1.025-.719-.302-.434-.49-1.05-.516-1.558.025-.492.227-1.152.549-1.6.327-.454.656-.655 1.016-.678z"/></symbol><symbol id="bookmark"><path d="M36.5 43L24 31.917 11.5 43V8.167C11.5 6.417 12.898 5 14.625 5h18.75C35.102 5 36.5 6.417 36.5 8.167V43z"/></symbol><symbol id="box"><path d="M24 10.824l3.781 8.597c.361.777.606 1.244 1.515 1.338L43 22.16l-4.108-8.3-14.892-3zL9.108 13.905 5 22.105l13.704-1.362c.908-.094 1.153-.561 1.514-1.338l3.782-8.6zm0 6.35l-1.773 3.834c-.613 1.109-1.41 2.341-2.887 2.483l-9.931.845.07 8.988c.046.637.366 1.022.879 1.172L24 37.196l13.642-2.722c.513-.15.832-.535.878-1.172l.07-8.988-9.93-.845c-1.478-.142-2.274-1.374-2.887-2.483L24 17.153z"/></symbol><symbol id="briefcase"><path d="M19 8.5a1.5 1.5 0 0 0-1.5 1.5v3.5H9c-2.216 0-4 1.784-4 4v3h38v-3c0-2.216-1.784-4-4-4h-8.5V10A1.5 1.5 0 0 0 29 8.5H19zm1.5 3h7v2h-7v-2zM5 23.5v12c0 2.216 1.784 4 4 4h30c2.216 0 4-1.784 4-4v-12H28v3c0 1.108-.892 2-2 2h-4c-1.108 0-2-.892-2-2v-3H5z"/></symbol><symbol id="brush"><path d="M5 5l3 19h32l3-19H33l-2 10.709V5H17v10.322L15 5H5zm3 21v2c0 3.324 2.676 6 6 6h5v4c0 2.77 2.23 5 5 5s5-2.23 5-5v-4h5c3.324 0 6-2.676 6-6v-2H8zm16 10a2 2 0 0 1 2 2 2 2 0 0 1-2 2 2 2 0 0 1-2-2 2 2 0 0 1 2-2z"/></symbol><symbol id="calendar"><path d="M13 8c-.554 0-1 .446-1 1v3H8c-1.662 0-3 1.338-3 3v3h38v-3c0-1.662-1.338-3-3-3h-4V9c0-.554-.446-1-1-1h-2c-.554 0-1 .446-1 1v3H16V9c0-.554-.446-1-1-1h-2zM5 20v17c0 1.662 1.338 3 3 3h32c1.662 0 3-1.338 3-3V20H5zm4.5 3.5h6c.554 0 1 .446 1 1v2.75c0 .554-.446 1-1 1h-6c-.554 0-1-.446-1-1V24.5c0-.554.446-1 1-1zm11.5 0h6c.554 0 1 .446 1 1v2.75c0 .554-.446 1-1 1h-6c-.554 0-1-.446-1-1V24.5c0-.554.446-1 1-1zm11.5 0h6c.554 0 1 .446 1 1v2.75c0 .554-.446 1-1 1h-6c-.554 0-1-.446-1-1V24.5c0-.554.446-1 1-1zm-23 8.25h6c.554 0 1 .446 1 1v2.75c0 .554-.446 1-1 1h-6c-.554 0-1-.446-1-1v-2.75c0-.554.446-1 1-1zm11.5 0h6c.554 0 1 .446 1 1v2.75c0 .554-.446 1-1 1h-6c-.554 0-1-.446-1-1v-2.75c0-.554.446-1 1-1zm11.5 0h6c.554 0 1 .446 1 1v2.75c0 .554-.446 1-1 1h-6c-.554 0-1-.446-1-1v-2.75c0-.554.446-1 1-1z"/></symbol><symbol id="cart"><path d="M7.139 8.18c-2.852-.038-2.852 4.259 0 4.22h4.583l3.883 20.386a4.22 4.22 0 0 0-1.084 2.816 4.219 4.219 0 1 0 8.437 0 4.216 4.216 0 0 0-.136-1.055h7.66a4.219 4.219 0 0 0-.141 1.055 4.22 4.22 0 0 0 8.44 0 4.218 4.218 0 0 0-.433-1.85c1.11-1.392.1-3.448-1.68-3.423H19.432l-.346-1.81L38.75 26.86a1.5 1.5 0 0 0 1.328-1.127l2.875-11.365a1.5 1.5 0 0 0-1.455-1.867H16.034l-.02-.102-.804-4.218H7.138z"/></symbol><symbol id="chart-bar"><path d="M37 5c-1.108 0-2 .892-2 2v28c0 1.108.892 2 2 2h4c1.108 0 2-.892 2-2V7c0-1.108-.892-2-2-2h-4zm-20 5c-1.108 0-2 .892-2 2v23c0 1.108.892 2 2 2h4c1.108 0 2-.892 2-2V12c0-1.108-.892-2-2-2h-4zM7 18c-1.108 0-2 .892-2 2v15c0 1.108.892 2 2 2h4c1.108 0 2-.892 2-2V20c0-1.108-.892-2-2-2H7zm20 4c-1.108 0-2 .892-2 2v11c0 1.108.892 2 2 2h4c1.108 0 2-.892 2-2V24c0-1.108-.892-2-2-2h-4zM6 39c-.554 0-1 .446-1 1v2c0 .554.446 1 1 1h36c.554 0 1-.446 1-1v-2c0-.554-.446-1-1-1H6z"/></symbol><symbol id="chart-line"><path d="M39 10a3 3 0 0 0-3 3 3 3 0 0 0 .393 1.475l-7.368 12.527A3 3 0 0 0 29 27a3 3 0 0 0-.51.043l-6.678-8.012A3 3 0 0 0 22 18a3 3 0 0 0-3-3 3 3 0 0 0-3 3 3 3 0 0 0 .035.449l-5.948 4.758A3 3 0 0 0 9 23a3 3 0 0 0-3 3 3 3 0 0 0 3 3 3 3 0 0 0 3-3 3 3 0 0 0-.035-.45l5.948-4.757A3 3 0 0 0 19 21a3 3 0 0 0 .512-.043l6.676 8.012a3 3 0 0 0-.188 1.03 3 3 0 0 0 3 3 3 3 0 0 0 3-3 3 3 0 0 0-.393-1.474l7.37-12.527A3 3 0 0 0 39 16a3 3 0 0 0 3-3 3 3 0 0 0-3-3zM6 39c-.554 0-1 .446-1 1v2c0 .554.446 1 1 1h36c.554 0 1-.446 1-1v-2c0-.554-.446-1-1-1H6z"/></symbol><symbol id="check"><path d="M38.305 8.435a2.095 2.095 0 0 0-1.425.744L19.335 30.088l-8.861-7.437a2.095 2.095 0 0 0-2.958.259l-2.023 2.412a2.095 2.095 0 0 0 .258 2.958l12.863 10.793c.118.099.245.179.376.248a2.094 2.094 0 0 0 2.605-.498l20.914-24.924c.747-.891.63-2.209-.26-2.956l-2.41-2.026a2.095 2.095 0 0 0-1.534-.483z"/></symbol><symbol id="chevron-down"><path d="M4.922 16.42c0 .477.183.953.548 1.318l15.14 15.139.016.02 1.977 1.977a1.865 1.865 0 0 0 .963.513h.003c.117.023.235.035.353.035h.002a1.857 1.857 0 0 0 .698-.137c.225-.09.437-.228.62-.411l1.977-1.977c.007-.006.01-.014.017-.02l15.139-15.139a1.86 1.86 0 0 0 0-2.636l-1.977-1.977a1.86 1.86 0 0 0-2.636 0l-13.84 13.839-13.838-13.839a1.86 1.86 0 0 0-2.636 0L5.47 15.102a1.859 1.859 0 0 0-.548 1.318z" fill-rule="evenodd"/></symbol><symbol id="chevron-left"><path d="M31.502 5c-.477 0-.953.183-1.318.548L15.045 20.687l-.02.016-1.977 1.977a1.865 1.865 0 0 0-.513.963v.004A1.858 1.858 0 0 0 12.5 24v.002a1.857 1.857 0 0 0 .137.697c.09.226.228.438.411.621l1.977 1.977.02.016 15.139 15.14c.73.73 1.906.73 2.636 0l1.977-1.978a1.86 1.86 0 0 0 0-2.636L20.958 24l13.839-13.839a1.86 1.86 0 0 0 0-2.636L32.82 5.548A1.859 1.859 0 0 0 31.502 5z" fill-rule="evenodd"/></symbol><symbol id="chevron-right"><path d="M16.343 43c.477 0 .953-.183 1.318-.548L32.8 27.313l.02-.016 1.977-1.977a1.865 1.865 0 0 0 .513-.963v-.004c.023-.117.035-.235.035-.353v-.002a1.857 1.857 0 0 0-.137-.697 1.865 1.865 0 0 0-.411-.621l-1.977-1.977-.02-.016-15.139-15.14a1.86 1.86 0 0 0-2.636 0l-1.977 1.978a1.86 1.86 0 0 0 0 2.636L26.887 24 13.048 37.839a1.86 1.86 0 0 0 0 2.636l1.977 1.977c.365.365.842.548 1.318.548z" fill-rule="evenodd"/></symbol><symbol id="chevron-up"><path d="M42.922 31.58c0-.477-.183-.953-.548-1.318L27.235 15.123l-.016-.02-1.977-1.977a1.865 1.865 0 0 0-.963-.513h-.004a1.858 1.858 0 0 0-.353-.035h-.002a1.857 1.857 0 0 0-.697.137 1.865 1.865 0 0 0-.621.411l-1.977 1.977-.016.02-15.14 15.139a1.86 1.86 0 0 0 0 2.636l1.978 1.977c.73.73 1.905.73 2.636 0l13.839-13.839L37.76 34.875c.73.73 1.905.73 2.636 0l1.977-1.977c.365-.365.548-.842.548-1.318z" fill-rule="evenodd"/></symbol><symbol id="clipboard"><path d="M22.059 5a.838.838 0 0 0-.84.84v1.014h-4.305c-.695 0-1.256.56-1.256 1.256v2.114c0 1.213.977 2.19 2.19 2.19H30.15c1.214 0 2.19-.977 2.19-2.19V8.11c0-.696-.56-1.256-1.255-1.256H26.78V5.84a.837.837 0 0 0-.84-.84h-3.88zm1.94.927a1.39 1.39 0 0 1 1.39 1.39A1.39 1.39 0 0 1 24 8.707a1.39 1.39 0 0 1-1.39-1.39 1.39 1.39 0 0 1 1.39-1.39zm-12.048 2.78c-1.024 0-1.854.83-1.854 1.854v30.585c0 .384.116.74.316 1.035v.002c.133.197.303.367.5.5h.002c.295.2.65.317 1.035.317h24.098a1.856 1.856 0 0 0 1.709-1.131c.093-.222.144-.467.144-.723V10.561a1.855 1.855 0 0 0-1.855-1.854h-2.78v1.858a2.77 2.77 0 0 1-2.777 2.777H17.506a2.77 2.77 0 0 1-2.777-2.777V8.707h-2.78z"/></symbol><symbol id="cloud-download"><path d="M19.25 12.125c-5.824 0-10.559 4.659-10.684 10.453A7.131 7.131 0 0 0 5 28.75a7.126 7.126 0 0 0 7.125 7.125h23.75A7.13 7.13 0 0 0 43 28.75c0-3.283-2.668-5.73-5.857-6.32 1.382-5.027-4.319-9.085-8.801-5.239a10.685 10.685 0 0 0-9.092-5.066zM19.162 18h1.676A1.16 1.16 0 0 1 22 19.162v5.676c0 .058-.025.107-.033.162h3.035c.891 0 1.337 1.077.707 1.707l-5 5a1 1 0 0 1-1.414 0l-5-5c-.63-.63-.184-1.707.707-1.707h3.031c-.008-.055-.033-.104-.033-.162v-5.676A1.16 1.16 0 0 1 19.162 18z"/></symbol><symbol id="cloud-upload"><path d="M19.25 12.125c-5.824 0-10.559 4.659-10.684 10.453A7.131 7.131 0 0 0 5 28.75a7.126 7.126 0 0 0 7.125 7.125h23.75A7.13 7.13 0 0 0 43 28.75c0-3.283-2.668-5.73-5.857-6.32 1.382-5.027-4.319-9.085-8.801-5.239a10.685 10.685 0 0 0-9.092-5.066zM20.002 18c.256 0 .512.098.707.293l5 5c.63.63.184 1.707-.707 1.707h-3.035c.008.055.033.104.033.162v5.676A1.16 1.16 0 0 1 20.838 32h-1.676A1.16 1.16 0 0 1 18 30.838v-5.676c0-.058.025-.107.033-.162h-3.031c-.891 0-1.337-1.077-.707-1.707l5-5a.997.997 0 0 1 .707-.293z"/></symbol><symbol id="cloud"><path d="M5 28.75a7.129 7.129 0 0 1 3.566-6.171c.124-5.795 4.86-10.453 10.685-10.453a10.68 10.68 0 0 1 9.09 5.065c4.483-3.847 10.184.212 8.802 5.238 3.19.59 5.856 3.037 5.856 6.32a7.13 7.13 0 0 1-7.125 7.125h-23.75A7.126 7.126 0 0 1 5 28.75z"/></symbol><symbol id="comments"><path d="M21.077 5.73C12.198 5.73 5 12.274 5 20.346c0 4.146 1.912 7.874 4.964 10.53-.834 1.832-1.445 3.466-3.078 4.19-.283.107-.424.323-.424.626 0 .404.327.73.73.73 3.563-.097 5.436-1.288 7.328-2.754.913.372 1.867.678 2.86.89a11.919 11.919 0 0 1-.688-3.981c0-7.254 6.557-13.154 14.615-13.154 2.02 0 3.946.37 5.698 1.042C35.988 11.283 29.253 5.73 21.077 5.73zm10.231 14.616c-6.457 0-11.692 4.58-11.692 10.231 0 5.65 5.235 10.231 11.692 10.231 1.53 0 2.986-.266 4.325-.733 2.359 1.12 3.75 2.185 6.756 2.195a.61.61 0 0 0 .417-1.053c-1.434-1.252-2.066-2.768-2.426-4.188 1.636-1.76 2.619-4.005 2.619-6.451 0-5.65-5.235-10.231-11.692-10.231z"/></symbol><symbol id="copy"><path d="M16.275 5a1.67 1.67 0 0 0-1.67 1.67v28.397c0 .922.748 1.67 1.67 1.67H37.99a1.67 1.67 0 0 0 1.67-1.67V15.022h-6.682a1.67 1.67 0 0 1-1.67-1.67V5H16.275zm16.703 0v7.518c0 .46.375.834.836.834h5.846L32.978 5zm-22.967 6.264a1.67 1.67 0 0 0-1.67 1.67v28.397c0 .922.747 1.67 1.67 1.67h21.715a1.67 1.67 0 0 0 1.67-1.67v-3.028H15.53a2.487 2.487 0 0 1-2.492-2.491V11.265h-3.028z"/></symbol><symbol id="cross"><path d="M9.352 5a2.52 2.52 0 0 0-1.786.742L5.742 7.565a2.52 2.52 0 0 0 0 3.573L18.602 24 5.742 36.86c-.99.99-.99 2.585 0 3.575l1.823 1.822c.99.99 2.583.99 3.573 0L24 29.397l12.86 12.861c.99.99 2.585.99 3.575 0l1.822-1.822c.99-.99.99-2.586 0-3.576L29.398 24l12.862-12.862a2.52 2.52 0 0 0 0-3.573l-1.824-1.822a2.523 2.523 0 0 0-3.575 0L24 18.603 11.138 5.743A2.52 2.52 0 0 0 9.352 5z"/></symbol><symbol id="cut"><path d="M37.437 6.322a7.788 7.788 0 0 0-5.526 2.295l-9.92 9.92-1.763-1.764a7.816 7.816 0 0 0 .405-2.458A7.816 7.816 0 0 0 12.817 6.5 7.816 7.816 0 0 0 5 14.3a7.816 7.816 0 0 0 7.816 7.815 7.816 7.816 0 0 0 1.552-.165l2.096 2.097-2.127 2.126a7.816 7.816 0 0 0-1.522-.2A7.816 7.816 0 0 0 5 33.773a7.816 7.816 0 0 0 7.816 7.816 7.816 7.816 0 0 0 7.816-7.816 7.816 7.816 0 0 0-.418-2.49l1.776-1.776 9.958 9.958a7.797 7.797 0 0 0 11.052 0L27.516 23.98 42.964 8.535a7.798 7.798 0 0 0-5.529-2.294zm-24.62 5.388a2.605 2.605 0 0 1 2.605 2.605 2.605 2.605 0 0 1-2.605 2.606 2.605 2.605 0 0 1-2.605-2.605 2.605 2.605 0 0 1 2.605-2.606zm9.118 10.421a1.954 1.954 0 0 1 1.954 1.954 1.954 1.954 0 0 1-1.954 1.954 1.954 1.954 0 0 1-1.954-1.954 1.954 1.954 0 0 1 1.954-1.954zm-9.118 9.119a2.605 2.605 0 0 1 2.605 2.605 2.605 2.605 0 0 1-2.605 2.605 2.605 2.605 0 0 1-2.605-2.605 2.605 2.605 0 0 1 2.605-2.605z"/></symbol><symbol id="edit"><path d="M7 5a2 2 0 0 0-2 2v34a2 2 0 0 0 2 2h34a2 2 0 0 0 2-2V15.605l-4 4V39H9V9h19.395l4-4H7zm31.467.004c-1.609-.03-2.823 1.062-3.858 2.16l6.225 6.225 1.09-1.092c2.032-2.126 1.037-6.051-1.731-7.01a4.455 4.455 0 0 0-1.726-.283zm-5.727 4.03c-6.267 6.272-12.556 12.527-18.799 18.823-.613.853-.937 1.89-.941 2.74V35h4.406c1.161.002 2.255-.454 2.928-1.11 6.215-6.207 12.427-12.417 18.631-18.634L32.74 9.034z"/></symbol><symbol id="erase"><path d="M28.527 5c-.905 0-1.81.336-2.49 1.01L7.019 24.863c-1.36 1.349-1.36 3.59 0 4.938l7.745 7.699h9.384L40.98 20.824c1.361-1.348 1.361-3.59 0-4.937l-9.962-9.875A3.53 3.53 0 0 0 28.527 5zM18.57 17.9l10.412 10.325-6.539 6.453-5.972.002-7.186-7.123c-.145-.144-.145-.306 0-.45L18.57 17.9zM6.5 39c-.831 0-1.5.669-1.5 1.5v1c0 .831.669 1.5 1.5 1.5h35c.831 0 1.5-.669 1.5-1.5v-1c0-.831-.669-1.5-1.5-1.5h-35z"/></symbol><symbol id="exclamation"><path d="M20.008 4.986c-.761.056-1.474.698-1.504 1.569.212 6.841.453 13.68.678 20.52-.091.985.548 2.015 1.49 2.099 2.051.018 4.101.002 6.152.008.902.138 1.86-.534 1.969-1.555.251-6.966.469-13.934.707-20.9.053-.85-.604-1.65-1.377-1.72-2.595-.018-5.193-.002-7.789-.007a1.428 1.428 0 0 0-.326-.014zm3.816 28.037c-1.555.055-3.086.782-3.951 2.155-1.931 2.606-.483 6.758 2.648 7.6C25.58 43.848 29.123 41.241 29 38a5 5 0 0 0-1.084-3.107c-.96-1.308-2.537-1.925-4.092-1.87z"/></symbol><symbol id="expand"><path d="M7 5a2 2 0 0 0-2 2v8.484c0 1.782 2.154 2.673 3.414 1.414l2.475-2.474L20.465 24l-9.576 9.576-2.475-2.474c-1.26-1.259-3.413-.368-3.414 1.414V41a2.003 2.003 0 0 0 2 2h8.484c1.782-.001 2.673-2.154 1.414-3.414l-2.474-2.475L24 27.535l9.576 9.576-2.474 2.475c-1.259 1.26-.368 3.413 1.414 3.414H41a2.019 2.019 0 0 0 1.393-.566c.387-.377.606-.894.607-1.434v-8.484c-.001-1.782-2.154-2.673-3.414-1.414l-2.475 2.474L27.535 24l9.576-9.576 2.475 2.474c1.26 1.259 3.413.368 3.414-1.414V7a2.007 2.007 0 0 0-2-2h-8.484c-1.782.001-2.673 2.154-1.414 3.414l2.474 2.475L24 20.465l-9.576-9.576 2.474-2.475c1.259-1.26.368-3.413-1.414-3.414H7z"/></symbol><symbol id="file-empty"><path d="M11 5a2 2 0 0 0-2 2v34a2 2 0 0 0 2 2h26a2 2 0 0 0 2-2V17h-8a2 2 0 0 1-2-2V5H11zm20 0v9a1 1 0 0 0 1 1h7L31 5z"/></symbol><symbol id="file"><path d="M11 5a2 2 0 0 0-2 2v34a2 2 0 0 0 2 2h26a2 2 0 0 0 2-2V17h-8a2 2 0 0 1-2-2V5H11zm20 0v9a1 1 0 0 0 1 1h7L31 5zM14.92 26h18.16c1.228-.019 1.228 2.019 0 2H14.92c-1.228.019-1.228-2.019 0-2zm0 4h18.16c1.228-.019 1.228 2.019 0 2H14.92c-1.228.019-1.228-2.019 0-2zm0 4h18.16c1.228-.019 1.228 2.019 0 2H14.92c-1.228.019-1.228-2.019 0-2z"/></symbol><symbol id="flask"><path d="M17.199 5c-.942 0-1.699.669-1.699 1.5v1c0 .831.757 1.5 1.699 1.5H18v9.566L8.18 40.172A2 2 0 0 0 10 43h28a2 2 0 0 0 1.82-2.828L30 18.566V9h.801c.942 0 1.699-.669 1.699-1.5v-1c0-.831-.757-1.5-1.699-1.5H17.199zM22 9h4v10c0 .286.061.568.18.828l3.904 8.592c-5.902-.164-7.823 5.078-13.656 3.271l5.392-11.863c.119-.26.18-.542.18-.828V9z"/></symbol><symbol id="folder-open"><path d="M9.516 10.306a4.504 4.504 0 0 0-4.504 4.504v15.748l1.844-4.216c.77-1.76 2.938-3.18 4.859-3.18h27.527v-4.3a4.504 4.504 0 0 0-4.504-4.503H24.83c-2.122-1.396-5.404-4.054-5.404-4.054H9.516zm3.538 14.348c-1.921 0-4.089 1.419-4.86 3.18l-2.923 6.683c-.77 1.76.158 3.177 2.08 3.177h27.595c1.921 0 4.089-1.417 4.859-3.177l2.924-6.684c.77-1.76-.158-3.18-2.08-3.18H13.054z"/></symbol><symbol id="folder"><path d="M10 8.75a5 5 0 0 0-5 5v20.5a5 5 0 0 0 5 5h28a5 5 0 0 0 5-5v-16a5 5 0 0 0-5-5H27c-2.356-1.55-6-4.5-6-4.5z"/></symbol><symbol id="grid"><path d="M7.235 5C6 5 5 6 5 7.235v6.706c0 1.235 1 2.235 2.235 2.235h6.706c1.235 0 2.235-1 2.235-2.235V7.235c0-1.234-1-2.235-2.234-2.235H7.236zm13.412 0c-1.235 0-2.235 1-2.235 2.235v6.706c0 1.235 1 2.235 2.235 2.235h6.706c1.235 0 2.235-1 2.235-2.235V7.235c0-1.234-1-2.235-2.235-2.235h-6.705zM34.06 5c-1.235 0-2.235 1-2.235 2.235v6.706c0 1.235 1 2.235 2.235 2.235h6.706c1.235 0 2.235-1 2.235-2.234V7.236C43 6 42 5 40.765 5H34.06zM7.235 18.412C6 18.412 5 19.412 5 20.647v6.706c0 1.235 1 2.235 2.235 2.235h6.706c1.235 0 2.235-1 2.235-2.235v-6.706c0-1.235-1-2.235-2.235-2.235H7.235zm13.412 0c-1.235 0-2.235 1-2.235 2.235v6.706c0 1.235 1 2.235 2.235 2.235h6.706c1.235 0 2.235-1 2.235-2.235v-6.706c0-1.235-1-2.235-2.235-2.235h-6.706zm13.412 0c-1.235 0-2.235 1-2.235 2.235v6.706c0 1.235 1 2.235 2.235 2.235h6.706c1.235 0 2.235-1 2.235-2.235v-6.706c0-1.235-1-2.235-2.235-2.235H34.06zM7.235 31.824C6 31.824 5 32.824 5 34.059v6.706C5 42 6 43 7.235 43h6.706c1.235 0 2.235-1 2.235-2.235v-6.706c0-1.235-1-2.236-2.235-2.236H7.235zm13.412 0c-1.235 0-2.235 1-2.235 2.235v6.706c0 1.235 1 2.235 2.235 2.235h6.706c1.235 0 2.235-1 2.235-2.235V34.06c0-1.235-1-2.235-2.235-2.235h-6.706zm13.412 0c-1.235 0-2.235 1-2.235 2.235v6.706c0 1.235 1 2.235 2.235 2.235h6.706C42 43 43 42 43 40.767V34.06c0-1.235-1-2.236-2.235-2.236h-6.706z"/></symbol><symbol id="heart"><path d="M42.998 18.162c.111-4.967-3.971-9.548-8.922-10.071-3.93-.55-8.056 1.433-10.067 4.84-2.467-4.269-8.235-6.116-12.746-4.124-4.507 1.79-7.2 7.055-5.962 11.737.531 2.535 2.277 4.517 4.165 6.179 4.547 4.32 9.097 8.638 13.641 12.962 1.08.859 2.094-.233 2.823-.971 4.786-4.57 9.632-9.106 14.38-13.695a10.078 10.078 0 0 0 2.688-6.857z"/></symbol><symbol id="home"><path d="M23.982 8.154a.97.97 0 0 0-.686.287l-6.056 6.055v-3.36a.795.795 0 0 0-.797-.797h-2.451a.795.795 0 0 0-.797.797v7.405l-8.91 8.908a.968.968 0 0 0 0 1.371l.741.744c.38.38.992.38 1.372 0L24 11.96l17.604 17.605c.38.38.99.38 1.369 0l.742-.744a.968.968 0 0 0 0-1.37L24.704 8.44a.96.96 0 0 0-.703-.283c-.006 0-.012-.004-.018-.004zM24 13.845l-14 14v10.631c0 .76.611 1.37 1.37 1.37h7.259c.759 0 1.37-.61 1.37-1.37v-8.63H28v8.515c0 .76.612 1.371 1.371 1.371h7.258c.76 0 1.371-.612 1.371-1.37V27.844l-14-14z"/></symbol><symbol id="image"><path d="M7.924 10C6.309 10 5 11.254 5 12.801v22.398C5 36.746 6.309 38 7.924 38h32.152C41.69 38 43 36.746 43 35.199V12.801C43 11.254 41.69 10 40.076 10H7.924zm4.535 3.857a3.15 3.15 0 0 1 3.15 3.149 3.15 3.15 0 0 1-3.15 3.15 3.15 3.15 0 0 1-3.148-3.15 3.15 3.15 0 0 1 3.148-3.149zm20.311 5.946c.905 0 1.809.33 2.5.992L38.615 24v9.801H9.385V29.6l6.267-6.004c1.381-1.323 3.621-1.323 5.002 0L24 26.801l6.268-6.006a3.604 3.604 0 0 1 2.502-.992z"/></symbol><symbol id="info"><path d="M24 5a5 5 0 0 0-5 5 5 5 0 0 0 5 5 5 5 0 0 0 5-5 5 5 0 0 0-5-5zm-6.4 13.818c-.434 0-.809.17-1.125.512A1.727 1.727 0 0 0 16 20.545V24c0 .468.158.873.475 1.215.316.342.691.512 1.125.512h1.599v10.365H17.6c-.434 0-.809.17-1.125.512A1.725 1.725 0 0 0 16 37.818v3.455c0 .468.158.871.475 1.213.316.342.691.514 1.125.514h12.8c.434 0 .809-.172 1.125-.514.317-.342.475-.745.475-1.213v-3.455c0-.467-.158-.873-.475-1.214-.316-.342-.691-.512-1.125-.512h-1.599V20.545c0-.468-.16-.873-.477-1.215-.316-.342-.691-.512-1.125-.512H17.6z" fill-rule="evenodd"/></symbol><symbol id="italic"><path d="M17.5 5c-.554 0-1 .446-1 1v1c0 .554.446 1 1 1h.64c2.866 0 4.3.631 4.3 1.96l-4.812 27.722c-.136.784-.648 1.38-1.535 1.789-.853.375-2.047.529-3.582.529H11.5c-.554 0-1 .446-1 1v1c0 .554.446 1 1 1h19c.554 0 1-.446 1-1v-1c0-.554-.446-1-1-1h-.691c-2.866 0-4.3-.615-4.3-1.91l4.862-27.772C30.609 8.75 32.298 8 35.437 8h1.062c.554 0 1-.446 1-1V6c0-.554-.446-1-1-1h-19z"/></symbol><symbol id="layer-add"><path d="M36.15 4.5c-.36 0-.65.29-.65.65V9h-3.85c-.36 0-.65.29-.65.65v1.7c0 .36.29.65.65.65h3.85v3.85c0 .36.29.65.65.65h1.7c.36 0 .65-.29.65-.65V12h3.85c.36 0 .65-.29.65-.65v-1.7c0-.36-.29-.65-.65-.65H38.5V5.15c0-.36-.29-.65-.65-.65h-1.7zm-12.146 8.186l-.004.002c-.559 0-1.077.147-1.543.382h-.031l-16.26 8.342a1.716 1.716 0 0 0-1.076 1.59c0 .716.44 1.327 1.062 1.586v.033l16.286 8.318.013-.007c.468.236.987.382 1.547.382s1.081-.147 1.55-.384l.011.009 16.29-8.318v-.033a1.715 1.715 0 0 0-.014-3.176l-16.26-8.346h-.03a3.409 3.409 0 0 0-1.54-.38zm14.648 15.779c-4.994 2.557-11.809 6.035-11.888 6.064l-.047.018-1.158.592-.012-.008c-.468.238-.989.383-1.549.383s-1.079-.145-1.547-.381l-.013.006-1.17-.598-.041-.016c-.076-.028-6.882-3.5-11.877-6.058h-.002l-3.182 1.631c-.63.255-1.074.87-1.074 1.59a1.72 1.72 0 0 0 1.06 1.585v.036l16.286 8.316.015-.008c.468.235.985.383 1.545.383s1.081-.148 1.55-.385l.014.01 16.286-8.316v-.036a1.72 1.72 0 0 0 1.062-1.587c0-.72-.447-1.334-1.076-1.588l-3.182-1.633z"/></symbol><symbol id="layer-delete"><path d="M33.818 5.465a.652.652 0 0 0-.461.191L32.156 6.86a.648.648 0 0 0 0 .918l2.723 2.723-2.723 2.723a.648.648 0 0 0 0 .918l1.203 1.203a.648.648 0 0 0 .918 0L37 12.621l2.723 2.723a.648.648 0 0 0 .918 0l1.203-1.201a.65.65 0 0 0 0-.92L39.121 10.5l2.723-2.723a.647.647 0 0 0 0-.918l-1.203-1.203a.647.647 0 0 0-.918 0L37 8.38l-2.723-2.723a.645.645 0 0 0-.459-.191zm-9.814 7.221l-.004.002c-.559 0-1.077.147-1.543.382h-.031l-16.26 8.342a1.716 1.716 0 0 0-1.076 1.59c0 .716.44 1.327 1.062 1.586v.033l16.286 8.318.013-.007c.468.236.987.382 1.547.382s1.081-.147 1.55-.384l.011.009 16.29-8.318v-.033a1.715 1.715 0 0 0-.014-3.176l-16.26-8.346h-.03a3.409 3.409 0 0 0-1.54-.38zm14.648 15.779c-4.994 2.557-11.809 6.035-11.888 6.064l-.047.018-1.158.592-.012-.008c-.468.238-.989.383-1.549.383s-1.079-.145-1.547-.381l-.013.006-1.17-.598-.041-.016c-.076-.028-6.882-3.5-11.877-6.058h-.002l-3.182 1.631c-.63.255-1.074.87-1.074 1.59a1.72 1.72 0 0 0 1.06 1.585v.036l16.286 8.316.015-.008c.468.235.985.383 1.545.383s1.081-.148 1.55-.385l.014.01 16.286-8.316v-.036a1.72 1.72 0 0 0 1.062-1.587c0-.72-.447-1.334-1.076-1.588l-3.182-1.633z"/></symbol><symbol id="layers"><path d="M24.004 5L24 5.002c-.559 0-1.077.147-1.543.383h-.031l-16.26 8.342a1.714 1.714 0 0 0-1.076 1.589c0 .716.44 1.327 1.062 1.586v.034l16.286 8.318.013-.008c.468.236.987.383 1.547.383s1.081-.148 1.55-.385l.011.01 16.29-8.318v-.034a1.713 1.713 0 0 0-.014-3.175l-16.26-8.346h-.03A3.402 3.402 0 0 0 24.005 5zm14.648 15.779c-4.994 2.557-11.809 6.036-11.888 6.065-.016.007-.032.011-.047.017l-1.158.592-.012-.008c-.468.238-.989.383-1.549.383s-1.079-.145-1.547-.381l-.013.006-1.17-.598c-.014-.005-.028-.009-.041-.015-.076-.028-6.882-3.501-11.877-6.059h-.002l-3.182 1.631c-.63.255-1.074.87-1.074 1.59a1.72 1.72 0 0 0 1.06 1.586v.035l16.286 8.316.015-.007c.468.235.985.382 1.545.382s1.081-.147 1.55-.384l.014.009 16.286-8.316v-.035a1.715 1.715 0 0 0-.014-3.176l-3.182-1.633zm.006 8.688l-13.099 6.687-.012-.009c-.468.237-.989.384-1.549.384s-1.079-.147-1.547-.383l-.013.008-13.092-6.685-3.18 1.629a1.713 1.713 0 0 0-.014 3.175v.036l16.286 8.316.015-.006c.47.235.987.381 1.547.381s1.081-.148 1.55-.385l.012.008 16.286-8.316v-.036a1.719 1.719 0 0 0 1.062-1.587c0-.721-.445-1.334-1.074-1.588l-3.178-1.629z"/></symbol><symbol id="lightbulb"><path d="M23.997 5c-5.564.002-10.522 3.484-12.214 8.652-1.693 5.168.31 10.82 4.887 13.906.624.422 1.914.567 1.914.567h10.83s1.29-.146 1.915-.567c4.576-3.086 6.58-8.738 4.887-13.906-1.692-5.168-6.65-8.65-12.213-8.652h-.005zm.012 3.049c1.73-.012 1.716 2.592-.014 2.562-1.542-.009-3.449.83-4.895 2.07-1.447 1.239-2.347 2.845-2.36 3.926-.02 1.708-2.583 1.678-2.563-.03.027-2.24 1.426-4.275 3.254-5.842 1.829-1.567 4.173-2.7 6.578-2.686zM18.022 30.26c-1.732-.023-1.732 2.585 0 2.562h11.96c1.732.023 1.732-2.585 0-2.563zm0 4.271c-1.725-.016-1.725 2.58 0 2.563h11.96c1.725.016 1.725-2.579 0-2.563zm2.059 4.197a4.27 4.27 0 0 0 8.543 0h-4.272z"/></symbol><symbol id="link"><path d="M6.833 30.994c-2.444 2.444-2.444 6.458 0 8.902l1.271 1.271c2.444 2.444 6.458 2.444 8.902 0l6.358-6.358c2.002-2.002 2.361-5.058 1.083-7.441L21.614 30.2a2.668 2.668 0 0 1-.793 2.066l-6.358 6.358c-1.079 1.078-2.737 1.078-3.815 0L9.377 37.35c-1.079-1.079-1.079-2.736 0-3.815l6.358-6.358a2.668 2.668 0 0 1 2.065-.794l2.833-2.832c-2.383-1.279-5.44-.92-7.441 1.082l-6.358 6.36zm17.803-17.803c-2.002 2.002-2.361 5.058-1.083 7.441l2.833-2.833a2.668 2.668 0 0 1 .793-2.065l6.358-6.358c1.079-1.079 2.736-1.079 3.815 0l1.272 1.272c1.078 1.078 1.078 2.736 0 3.815l-6.358 6.358a2.668 2.668 0 0 1-2.066.793l-2.832 2.833c2.383 1.278 5.439.92 7.44-1.083l6.359-6.358c2.444-2.444 2.444-6.458 0-8.902l-1.272-1.271c-2.443-2.444-6.457-2.444-8.901 0l-6.358 6.358zm-6.994 14.624a1.799 1.799 0 1 0 2.543 2.543l10.173-10.173a1.799 1.799 0 1 0-2.543-2.543L17.642 27.815z"/></symbol><symbol id="list-ol"><path d="M7.963 9L5.8 11.021l1.127 1.206c.445-.392.712-.675.797-.856h.03v.19c0 .424-.002 1.064-.007 1.923s-.008 1.507-.008 1.942H6.037V17h5.328v-1.574H9.648V9H7.963zM17 10c-1.108 0-2 .892-2 2v2c0 1.108.892 2 2 2h24c1.108 0 2-.892 2-2v-2c0-1.108-.892-2-2-2H17zM8.66 20a3.15 3.15 0 0 0-1.65.447 2.794 2.794 0 0 0-1.116 1.241l1.329.921c.364-.603.786-.906 1.265-.906.26 0 .464.07.615.211s.229.341.229.602c0 .24-.124.474-.37.703s-.536.457-.88.681c-.344.224-.687.47-1.031.741-.344.27-.64.624-.885 1.062s-.365.922-.365 1.453c0 .188.031.469.093.844h5.657v-2.484h-1.64v.937H7.925c.01-.259.193-.533.552-.818.36-.287.755-.551 1.182-.791a4.125 4.125 0 0 0 1.172-1.008c.354-.432.531-.909.531-1.43 0-.739-.26-1.324-.781-1.758C10.061 20.216 9.421 20 8.66 20zM17 21c-1.108 0-2 .892-2 2v2c0 1.108.892 2 2 2h24c1.108 0 2-.892 2-2v-2c0-1.108-.892-2-2-2H17zM6.004 31v2.375H7.66v-.828c.167 0 .418-.005.756-.016.339-.01.593-.015.76-.015v.015c-.198.188-.39.388-.578.602s-.411.495-.666.844-.423.575-.506.679l.406.875c1.094-.083 1.64.209 1.64.875 0 .293-.113.513-.337.664a1.364 1.364 0 0 1-.787.227c-.594 0-1.146-.235-1.656-.703L5.8 37.969C6.488 38.656 7.384 39 8.488 39c.844 0 1.548-.24 2.116-.719s.851-1.134.851-1.969c0-.53-.157-.988-.469-1.374-.313-.386-.732-.64-1.263-.766l1.48-1.797V31H6.004zM17 32c-1.108 0-2 .892-2 2v2c0 1.108.892 2 2 2h24c1.108 0 2-.892 2-2v-2c0-1.108-.892-2-2-2H17z"/></symbol><symbol id="list-ul"><path d="M8 10a3 3 0 0 0-3 3 3 3 0 0 0 3 3 3 3 0 0 0 3-3 3 3 0 0 0-3-3zm9 0c-1.108 0-2 .892-2 2v2c0 1.108.892 2 2 2h24c1.108 0 2-.892 2-2v-2c0-1.108-.892-2-2-2H17zM8 21a3 3 0 0 0-3 3 3 3 0 0 0 3 3 3 3 0 0 0 3-3 3 3 0 0 0-3-3zm9 0c-1.108 0-2 .892-2 2v2c0 1.108.892 2 2 2h24c1.108 0 2-.892 2-2v-2c0-1.108-.892-2-2-2H17zM8 32a3 3 0 0 0-3 3 3 3 0 0 0 3 3 3 3 0 0 0 3-3 3 3 0 0 0-3-3zm9 0c-1.108 0-2 .892-2 2v2c0 1.108.892 2 2 2h24c1.108 0 2-.892 2-2v-2c0-1.108-.892-2-2-2H17z"/></symbol><symbol id="location"><path d="M23.998 5c-6.604 0-11.955 5.383-11.955 12.027 0 9.91 8.869 22.368 11.311 25.612l.001.006.014.017.045.059h.004l.031.041.197.15L24 43l.355-.088.198-.15.031-.041c.023-.028.049-.055.062-.076l.014-.026c2.458-3.268 11.295-15.698 11.295-25.592C35.955 10.383 30.603 5 23.998 5zM24 10.162a7 7 0 0 1 7 7 7 7 0 0 1-7 7 7 7 0 0 1-7-7 7 7 0 0 1 7-7z" fill-rule="evenodd"/></symbol><symbol id="lock"><path d="M13.708 15.292v5.542c-1.655.062-3.652-.367-4.819 1.152-1.115 1.392-.606 3.244-.723 4.883.011 4.43-.021 8.86.017 13.288.132 1.893 2.06 3.094 3.843 2.843 8.32-.011 16.644.022 24.965-.016 1.892-.133 3.094-2.06 2.843-3.843-.011-5.155.021-10.311-.017-15.465-.132-1.893-2.06-3.094-3.843-2.843-.52-.074-1.33.143-1.682-.099-.058-2.42.143-4.858-.16-7.264-.777-4.873-5.466-8.699-10.398-8.467-5.023.02-9.567 4.23-9.973 9.236-.035.35-.053.701-.053 1.052zm3.958 5.542c.056-2.272-.128-4.56.129-6.819.624-3.564 4.666-5.949 8.089-4.772 2.86.825 4.732 3.816 4.45 6.741v4.85H17.665z" fill-rule="evenodd" clip-rule="evenodd"/></symbol><symbol id="map"><path d="M6.462 9C5.654 9 5 9.672 5 10.5v24c0 .699.476 1.26 1.108 1.427l9.123 2.704V11.564L7.038 9.099a1.794 1.794 0 0 0-.577-.1zm23.385.278l-11.692 2.42v26.997L29.847 36.3V9.278zm2.923.097v27.064l8.304 2.464c.148.05.3.097.465.097.807 0 1.462-.672 1.462-1.5v-24c0-.713-.498-1.23-1.142-1.433l-9.09-2.692z"/></symbol><symbol id="menu"><path d="M7 9c-1.108 0-2 .892-2 2v3c0 1.108.892 2 2 2h34c1.108 0 2-.892 2-2v-3c0-1.108-.892-2-2-2H7zm0 11.5c-1.108 0-2 .892-2 2v3c0 1.108.892 2 2 2h34c1.108 0 2-.892 2-2v-3c0-1.108-.892-2-2-2H7zM7 32c-1.108 0-2 .892-2 2v3c0 1.108.892 2 2 2h34c1.108 0 2-.892 2-2v-3c0-1.108-.892-2-2-2H7z" fill-rule="evenodd"/></symbol><symbol id="message"><path d="M7.502 11.785a2.49 2.49 0 0 0-2.346 1.656l17.23 13.897c.904.741 2.325.741 3.23 0l17.228-13.897a2.491 2.491 0 0 0-2.346-1.656H7.502zM5 16.391v17.322c0 .253.048.491.117.721L15.73 25.15 5 16.391zm38 0L32.27 25.15l10.613 9.284a2.49 2.49 0 0 0 .117-.721V16.391zm-25.287 10.38L6.982 36.16c.168.035.342.055.52.055h32.996c.178 0 .352-.02.52-.055l-10.733-9.389-2.818 2.301c-.973.794-2.222 1.192-3.469 1.192s-2.496-.398-3.469-1.192l-2.816-2.301z"/></symbol><symbol id="minus"><path d="M7 20.5h34c1.108 0 2 .892 2 2v3c0 1.108-.892 2-2 2H7c-1.108 0-2-.892-2-2v-3c0-1.108.892-2 2-2z" fill-rule="evenodd"/></symbol><symbol id="palette"><path d="M23.235 5.182c-12.8.1-18.142 10.4-18.235 17.9.023 11.94 6.712 16.177 11.871 18.857 3.613 1.746 4.79.521 5.47-.039 1.376-1.28.658-3.337.194-4.074-1.636-2.862 2.035-5.918 4.85-3.996 4.197 2.718 10.591.905 12.996-2.29C48.46 19.51 36.463 5.176 23.234 5.16zm-1.11 2.92a3.7 3.7 0 0 1 3.7 3.7 3.7 3.7 0 0 1-3.7 3.7 3.7 3.7 0 0 1-3.701-3.7 3.7 3.7 0 0 1 3.7-3.7zm9.853 2.715a3.7 3.7 0 0 1 3.7 3.7 3.7 3.7 0 0 1-3.7 3.7 3.7 3.7 0 0 1-3.7-3.7 3.7 3.7 0 0 1 3.7-3.7zM13.433 14.31a3.7 3.7 0 0 1 3.7 3.7 3.7 3.7 0 0 1-3.7 3.7 3.7 3.7 0 0 1-3.7-3.7 3.7 3.7 0 0 1 3.7-3.7zm22.58 6.207a3.7 3.7 0 0 1 3.7 3.7 3.7 3.7 0 0 1-3.7 3.7 3.7 3.7 0 0 1-3.7-3.7 3.7 3.7 0 0 1 3.7-3.7z"/></symbol><symbol id="paste"><path d="M17.048 5a.63.63 0 0 0-.632.632v.763h-3.24a.943.943 0 0 0-.944.945V8.93c0 .913.734 1.648 1.647 1.648h9.258c.913 0 1.649-.735 1.649-1.648V7.34a.944.944 0 0 0-.947-.945H20.6v-.763A.632.632 0 0 0 19.967 5H17.045zm1.46.698a1.046 1.046 0 0 1 1.047 1.045 1.046 1.046 0 0 1-1.047 1.046 1.046 1.046 0 0 1-1.045-1.046 1.046 1.046 0 0 1 1.045-1.045zM9.44 7.79c-.77.001-1.395.625-1.395 1.395V32.2a1.399 1.399 0 0 0 .614 1.157h.002c.222.15.49.238.78.238h6.81V15.701a2.418 2.418 0 0 1 2.423-2.424H28.97V9.184c0-.77-.625-1.395-1.395-1.395h-2.093v1.398c0 1.157-.932 2.09-2.09 2.09h-9.769a2.085 2.085 0 0 1-2.09-2.09V7.789h-2.09zm9.444 6.617c-.83 0-1.505.674-1.505 1.505v25.584c0 .831.674 1.505 1.505 1.505H38.45c.831 0 1.505-.674 1.505-1.505v-18.06h-6.02a1.505 1.505 0 0 1-1.504-1.504v-7.525H18.883zm15.05 0v6.772c0 .416.337.753.753.753h5.267l-6.02-7.525z"/></symbol><symbol id="pen"><path style="text-decoration-color:#000;text-decoration-line:none;mix-blend-mode:normal;block-progression:tb;text-indent:0;text-decoration-style:solid;isolation:auto;text-transform:none" d="M37.257 5.003c-2.038-.039-3.574 1.346-4.885 2.737l7.885 7.884 1.38-1.382c2.573-2.693 1.315-7.666-2.19-8.88a5.652 5.652 0 0 0-2.19-.359zm-7.252 5.104C22.065 18.055 14.1 25.977 6.192 33.953 5.414 35.032 5.005 36.344 5 37.42V43h5.58c1.47.002 2.858-.576 3.71-1.409 7.872-7.86 15.741-15.726 23.6-23.6l-7.885-7.885z" color="#000" fill-rule="evenodd" white-space="normal"/></symbol><symbol id="plus"><path d="M22.5 5.5c-1.108 0-2 .892-2 2V21H7c-1.108 0-2 .892-2 2v3c0 1.108.892 2 2 2h13.5v13.5c0 1.108.892 2 2 2h3c1.108 0 2-.892 2-2V28H41c1.108 0 2-.892 2-2v-3c0-1.108-.892-2-2-2H27.5V7.5c0-1.108-.892-2-2-2h-3z" fill-rule="evenodd"/></symbol><symbol id="presentation"><path d="M23.979 6a1.356 1.358 0 0 0-1.335 1.377v1.357H6.375a1.356 1.358 0 1 0 0 2.716v20.366c0 1.5 1.214 2.715 2.712 2.715h10.557l-2.94 5.466a1.357 1.359 0 1 0 2.39 1.289l3.63-6.755h2.552l3.63 6.755a1.357 1.359 0 1 0 2.389-1.29l-2.94-5.465h10.558a2.713 2.713 0 0 0 2.711-2.715V11.45a1.356 1.358 0 1 0 0-2.716H25.355V7.377A1.356 1.358 0 0 0 23.978 6z"/></symbol><symbol id="processing"><path d="M42.066 14.811c-.672-.153-1.499-.606-1.334-1.425.13-.858 1.18-.804 1.625-1.373.612-.726-.087-1.53-.35-2.234-.25-.774-1.158-1.14-1.86-.703-.775.711-2.172-.002-1.88-1.061.297-.622.596-1.575-.13-2.028-.689-.325-1.455-.743-2.228-.677-.894.187-.795 1.232-1.315 1.773-.543.578-1.543.256-1.767-.474-.182-.797-1.035-1.357-1.817-.972-.688.408-1.85.558-1.88 1.562.077.79.985 1.73.1 2.397-.706.592-1.458-.188-2.205-.12-.922.04-1.038 1.082-1.328 1.75-.4.736.033 1.619.837 1.807 1.057.02 1.573 1.595.557 2.079-.687.22-1.566.782-1.25 1.63.333.697.506 1.628 1.223 2.028.82.434 1.467-.554 2.28-.33 1.093.274.772 1.537.442 2.288-.159 1.017.978 1.345 1.733 1.568.762.509 1.815-.094 1.887-.975.154-.69.954-1.207 1.61-.817.704.396.595 1.53 1.482 1.696.878.144 1.689-.476 2.414-.892.84-.753-.194-1.653-.165-2.488.117-.85 1.2-1.117 1.842-.664.704.37 1.586-.072 1.702-.862.283-.757.886-1.87-.064-2.413l-.162-.07zm-4.416.325c-.689 2.136-3.536 3.117-5.405 1.876-1.8-1.07-2.322-3.751-.986-5.387 1.229-1.64 3.866-1.927 5.374-.506 1.1.974 1.553 2.637 1.017 4.018zM30.077 26.898c-1.031.13-2.437-.086-2.626-1.331-.259-1.285 1.257-1.749 1.595-2.786.493-1.345-.912-2.123-1.65-2.985-.755-.969-2.23-1.02-2.999-.04-.731 1.41-3.08 1.12-3.215-.532.103-1.036.035-2.54-1.228-2.809-1.144-.105-2.446-.302-3.508.19-1.172.727-.491 2.157-.95 3.193-.471 1.1-2.054 1.159-2.749.24-.67-1.037-2.168-1.39-3.078-.442-.764.933-2.335 1.747-1.858 3.185.517 1.081 2.288 1.943 1.377 3.347-.695 1.203-2.163.484-3.187.966-1.287.532-.913 2.07-.979 3.166-.189 1.251.882 2.279 2.118 2.132 1.51-.518 3.054 1.448 1.863 2.659-.86.665-1.817 1.916-.931 2.954.832.817 1.557 2.049 2.78 2.245 1.387.192 1.794-1.542 3.063-1.643 1.69-.176 1.886 1.78 1.806 3.015.3 1.524 2.08 1.402 3.266 1.33 1.344.326 2.525-1.072 2.172-2.357-.137-1.058.73-2.204 1.862-1.99 1.201.198 1.633 1.863 2.975 1.64 1.32-.249 2.148-1.546 2.962-2.51.801-1.5-1.127-2.243-1.517-3.442-.273-1.266 1.125-2.202 2.268-1.891 1.19.162 2.212-.921 1.968-2.101.01-1.218.291-3.107-1.336-3.387l-.266-.016zm-6.093 2.74c.126 3.383-3.404 6.242-6.693 5.448-3.106-.587-5.228-4.12-4.18-7.128.897-2.96 4.489-4.727 7.358-3.49 2.062.813 3.563 2.937 3.515 5.17z"/></symbol><symbol id="puzzle"><path d="M41.056 6.258c-2.005-1.893-5.629-1.664-6.894.785-.994 1.613-.287 4.947-3.06 4.796-.935-.111-3.49-2.49-4.75-3.713l-1.419-1.409a1.96 1.96 0 0 0-2.764-.001l-.693.687.002.002s-4.308 4.19-4.459 5.442c-.152 2.753 3.203 2.053 4.827 3.04 2.63 1.34 2.717 5.348.38 7.224-1.988 2.327-6.109 2-7.293-.75-.709-1.696-.44-5.032-3.23-4.506-.955.24-5.436 4.66-5.436 4.66l-.003-.003-.691.686a1.932 1.932 0 0 0 .001 2.749L22.17 42.43c.767.76 2 .76 2.766 0l.691-.686-.003-.003s4.454-4.448 4.695-5.397c.53-2.77-2.832-2.507-4.54-3.21-2.769-1.177-3.098-5.27-.755-7.243 1.89-2.322 5.926-2.235 7.275.378.994 1.613.289 4.945 3.061 4.794 1.261-.15 5.478-4.43 5.478-4.43l.002.001.692-.687a1.929 1.929 0 0 0 0-2.747l-.753-.748c-.118-.118-4.393-4.397-4.631-5.333-.53-2.77 2.829-2.505 4.537-3.208 2.769-1.176 3.097-5.27.753-7.244a4.27 4.27 0 0 0-.38-.407l-.002-.001z"/></symbol><symbol id="question"><path d="M23.955 5.002c-4.37-.03-8.753 1.823-11.562 5.211-.725 1.205-2.736 2.577-1.809 4.099 1.23.997 2.514 1.927 3.766 2.897.77.484 1.494 1.53 2.515 1.092 1.189-1.089 2.054-2.528 3.324-3.555 1.935-1.473 4.892-1.442 6.842-.008 1.122.694 1.483 2.142 1.028 3.34-.714 2.009-3.015 2.423-4.598 3.506-2.297 1.583-4.557 3.902-4.627 6.863.037 1.074-.251 2.488.854 3.119 2.415.08 4.841.011 7.261.034 1.668-.171 1.025-2.308 1.983-3.26 1.133-2.072 3.618-2.597 5.269-4.111 2.32-1.666 3.53-4.544 3.514-7.354.032-2.705-1.222-5.269-3.018-7.234-2.766-2.878-6.731-4.677-10.742-4.639zm-.631 28.07c-1.555.055-3.086.78-3.951 2.153-1.931 2.606-.483 6.758 2.648 7.599 3.059 1.072 6.602-1.533 6.479-4.775a5.01 5.01 0 0 0-1.084-3.11c-.96-1.307-2.537-1.922-4.092-1.867z" fill-rule="evenodd"/></symbol><symbol id="quote"><path d="M7.834 7A2.828 2.828 0 0 0 5 9.834V24a2.828 2.828 0 0 0 2.834 2.834h4.957a2.12 2.12 0 0 1 2.125 2.125v1.416c0 2.023-1.518 3.541-3.541 3.541a2.12 2.12 0 0 0-2.125 2.125v2.834A2.12 2.12 0 0 0 11.375 41C17.2 41 22 36.2 22 30.375V9.834A2.828 2.828 0 0 0 19.166 7H7.834zm21 0A2.828 2.828 0 0 0 26 9.834V24a2.828 2.828 0 0 0 2.834 2.834h4.957a2.12 2.12 0 0 1 2.125 2.125v1.416c0 2.023-1.518 3.541-3.541 3.541a2.12 2.12 0 0 0-2.125 2.125v2.834A2.12 2.12 0 0 0 32.375 41C38.2 41 43 36.2 43 30.375V9.834A2.828 2.828 0 0 0 40.166 7H28.834z"/></symbol><symbol id="redo"><path d="M35.209 6c-.693 0-1.25.557-1.25 1.25v4.238c-4.108-3.268-9.64-4.37-14.771-2.751A16.021 16.021 0 0 0 8.059 22.605a16.023 16.023 0 0 0 8.553 15.59c5.532 2.88 12.23 2.257 17.143-1.524.08-.045.158-.096.232-.158l.575-.486c.637-.534.72-1.477.186-2.113l-1.928-2.297a1.497 1.497 0 0 0-2.113-.186l-.278.233-.002-.004a9.981 9.981 0 0 1-11.045 1.209c-3.595-1.872-5.699-5.704-5.345-9.742s3.089-7.448 6.955-8.666a9.978 9.978 0 0 1 8.982 1.52H25.25c-.693 0-1.25.557-1.25 1.25v2.5c0 .692.557 1.25 1.25 1.25h9.765c.064.01.128.02.194.02h2.5c.182 0 .352-.043.508-.112.46-.185.783-.631.783-1.16v-2.5c0-.105-.017-.206-.041-.304V7.249c0-.692-.558-1.25-1.25-1.25z"/></symbol><symbol id="resize"><path d="M7 5a2 2 0 0 0-2 2v8.484c0 1.782 2.154 2.673 3.414 1.414l2.475-2.474 22.687 22.687-2.474 2.475c-1.259 1.26-.368 3.413 1.414 3.414H41a2.019 2.019 0 0 0 1.393-.566c.387-.377.606-.894.607-1.434v-8.484c-.001-1.782-2.154-2.673-3.414-1.414l-2.475 2.474-22.687-22.687 2.474-2.475c1.259-1.26.368-3.413-1.414-3.414H7z"/></symbol><symbol id="rocket"><path d="M42.039 5.002c-1.645.105-5.205.485-9.578 1.938a40.597 40.597 0 0 0-4.184 1.648 38.45 38.45 0 0 0-6.623 3.885 37.228 37.228 0 0 0-4.342 3.72c-.52.521-.976 1.086-1.386 1.672-1.999-.16-5.059-.106-6.625 1.461a12.8 12.8 0 0 0-.752.832c-.09.109-.175.221-.262.332a16.94 16.94 0 0 0-1.262 1.858c-.04.07-.075.14-.115.211-.178.315-.332.629-.488.943a25.153 25.153 0 0 0-1.393 3.471c-.089.528.02 1.039.368 1.386.33.331.805.452 1.304.387.002 0 .005.006.006.006l5.773-.824-.001 2.761 4.833 4.834 2.762-.002-.824 5.774c0 .001.006.004.006.006-.065.499.056.972.387 1.303.347.347.854.456 1.382.367a25.239 25.239 0 0 0 3.463-1.385c.325-.162.649-.321.975-.506.062-.035.124-.066.185-.101a17.116 17.116 0 0 0 1.864-1.264c.111-.087.223-.173.332-.264.285-.239.564-.486.83-.752 1.567-1.566 1.621-4.624 1.461-6.623.586-.41 1.151-.866 1.672-1.387 5.637-5.637 8.45-12.071 9.851-17.097.986-3.536 1.258-6.29 1.342-7.662.006-.277-.066-.523-.236-.694-.178-.177-.434-.247-.725-.234zm-11.842 9.58c.89 0 1.695.36 2.278.943.145.146.28.303.396.475v.002c.115.171.214.353.295.545l.002.002c.163.385.25.811.25 1.256a3.221 3.221 0 1 1-3.221-3.223zM11.193 32.301a3.668 3.668 0 0 0-1.671.949c-.556.556-.951 1.276-1.229 2.043a.14.14 0 0 0-.002.006c-.546 1.53-.64 3.251-.643 4.232 0 .18.005.176.008.291l.004.002c.001.163.044.296.137.389.087.087.213.126.361.133h.014c.126.003.113.008.297.008.985-.003 2.718-.1 4.254-.653.76-.277 1.475-.668 2.027-1.221.478-.478.79-1.061.951-1.673l-4.508-4.506z"/></symbol><symbol id="save"><path d="M8.455 5A3.454 3.454 0 0 0 5 8.455v31.09A3.454 3.454 0 0 0 8.455 43h31.09A3.454 3.454 0 0 0 43 39.545V11.908L36.092 5h-3.455v10.363a1.73 1.73 0 0 1-1.729 1.73H15.363a1.728 1.728 0 0 1-1.726-1.73V5H8.455zM25.27 6C24.567 6 24 6.567 24 7.27v6.46c0 .703.567 1.27 1.27 1.27h3.46c.703 0 1.27-.567 1.27-1.27V7.27C30 6.567 29.433 6 28.73 6h-3.46zM14.645 25h18.71A2.638 2.638 0 0 1 36 27.645v8.71A2.638 2.638 0 0 1 33.355 39h-18.71A2.638 2.638 0 0 1 12 36.355v-8.71A2.638 2.638 0 0 1 14.645 25z"/></symbol><symbol id="search"><path style="text-decoration-color:#000;isolation:auto;mix-blend-mode:normal;block-progression:tb;text-decoration-line:none;text-indent:0;text-transform:none;text-decoration-style:solid" d="M19.914 5.013c-4.755.168-9.426 2.438-12.17 6.721-6.005 8.223-1.647 20.721 8.168 23.428 4.691 1.605 9.613.544 13.407-2.129l9.157 9.155a2.64 2.64 0 1 0 3.732-3.732l-9.18-9.18c1.699-2.359 2.743-5.164 2.782-8.242a2.64 2.64 0 0 0 .07-.59c0-.017-.009-.032-.009-.049 0-.02.006-.037.005-.056l-.01.023a15.356 15.356 0 0 0-3.312-9.48c-3.039-4.103-7.875-6.04-12.642-5.872zm.19 5.412c3.163-.112 6.37 1.08 8.24 3.629a2.64 2.64 0 0 0 .065.085 10.224 10.224 0 0 1 2.193 6.291v.003a2.64 2.64 0 0 0 .003.105c.24 6.318-7.092 11.71-13.05 9.622a2.64 2.64 0 0 0-.19-.057c-6.104-1.64-9.1-10.231-5.337-15.31a2.64 2.64 0 0 0 .114-.165c1.685-2.674 4.8-4.092 7.961-4.204z" color="#000" white-space="normal"/></symbol><symbol id="settings"><path d="M40.672 20.095c-1.467.185-3.467-.122-3.736-1.893-.368-1.828 1.788-2.488 2.27-3.963.7-1.913-1.298-3.02-2.348-4.247-1.074-1.378-3.17-1.451-4.266-.056-1.04 2.005-4.38 1.592-4.573-.758.146-1.474.05-3.613-1.748-3.995-1.627-.15-3.479-.43-4.99.27-1.666 1.034-.698 3.068-1.35 4.542-.67 1.564-2.923 1.649-3.91.34-.954-1.473-3.085-1.976-4.379-.627-1.088 1.328-3.322 2.485-2.644 4.53.735 1.538 3.256 2.765 1.96 4.762-.989 1.712-3.077.689-4.535 1.374-1.83.757-1.299 2.945-1.392 4.504-.269 1.78 1.254 3.241 3.013 3.032 2.147-.737 4.344 2.06 2.65 3.783-1.224.946-2.585 2.726-1.324 4.202 1.183 1.163 2.215 2.914 3.955 3.194 1.972.274 2.551-2.194 4.357-2.337 2.404-.251 2.683 2.53 2.569 4.288.426 2.168 2.959 1.995 4.645 1.891 1.912.465 3.593-1.523 3.09-3.352-.194-1.504 1.038-3.135 2.649-2.83 1.709.282 2.322 2.65 4.231 2.333 1.877-.354 3.057-2.2 4.214-3.572 1.14-2.133-1.604-3.19-2.158-4.895-.388-1.8 1.6-3.133 3.226-2.69 1.693.23 3.147-1.31 2.8-2.99.015-1.732.414-4.42-1.901-4.818l-.378-.021zm-8.668 3.898c.18 4.812-4.842 8.88-9.52 7.75-4.419-.836-7.437-5.862-5.945-10.14 1.275-4.21 6.384-6.724 10.466-4.965 2.933 1.157 5.068 4.178 5 7.355z"/></symbol><symbol id="shield-check"><path d="M24 5C16.888 5 9.49 6.643 9.49 6.643l-.006.005C8.042 6.944 7.002 8.242 7 9.75v9.5c0 16.464 15.488 23.346 15.488 23.346.462.265.982.404 1.512.404a3.034 3.034 0 0 0 1.506-.404h.006C25.514 42.596 41 35.714 41 19.25v-9.5c0-1.513-1.042-2.814-2.49-3.108C38.51 6.642 31.112 5 24 5zm8.729 8.037v.002c.43 0 .86.166 1.189.496l1.588 1.588c.66.66.66 1.721 0 2.381L23.602 29.416l-1.586 1.59c-.66.66-1.722.66-2.38 0l-1.587-1.59-5.555-5.559a1.682 1.682 0 0 1 0-2.382l1.588-1.588c.66-.66 1.72-.66 2.38 0l4.364 4.369L31.54 13.533c.33-.33.76-.496 1.19-.496z"/></symbol><symbol id="shield-cross"><path d="M24 5C16.888 5 9.49 6.643 9.49 6.643l-.006.005C8.042 6.944 7.002 8.242 7 9.75v9.5c0 16.464 15.488 23.346 15.488 23.346.462.265.982.404 1.512.404a3.034 3.034 0 0 0 1.506-.404h.006C25.514 42.596 41 35.714 41 19.25v-9.5c0-1.513-1.042-2.814-2.49-3.108C38.51 6.642 31.112 5 24 5zm-6.453 7c.466 0 .933.18 1.29.537l5.165 5.162 5.16-5.162a1.822 1.822 0 0 1 2.582 0l1.72 1.72a1.82 1.82 0 0 1 0 2.58L28.304 22l5.162 5.162a1.82 1.82 0 0 1 0 2.58l-1.72 1.72a1.822 1.822 0 0 1-2.583 0l-5.16-5.16-5.164 5.16a1.822 1.822 0 0 1-2.582 0l-1.719-1.72a1.82 1.82 0 0 1 0-2.58L19.697 22l-5.16-5.162a1.82 1.82 0 0 1 0-2.58l1.719-1.72A1.822 1.822 0 0 1 17.547 12z"/></symbol><symbol id="shield"><path d="M24 5C16.888 5 9.49 6.642 9.49 6.642l-.006.006C8.041 6.944 7.002 8.242 7 9.75v9.5c0 16.464 15.488 23.345 15.488 23.345.462.266.983.405 1.512.405a3.033 3.033 0 0 0 1.506-.405h.006C25.514 42.595 41 35.714 41 19.25v-9.5c.001-1.512-1.042-2.814-2.49-3.108C38.51 6.642 31.112 5 24 5z"/></symbol><symbol id="star"><path d="M23.818 5.044a3.86 3.86 0 0 0-1.378.51c-.229.139-.418.335-.548.57-1.71 3.08-3.176 6.234-4.727 9.285l-7.745.988.336-.006c-1.113-.104-2.277.095-3.34.801-.531.354-1.06.893-1.298 1.658-.238.765-.102 1.653.288 2.385.06.112.134.216.22.31 2.3 2.531 4.678 4.949 6.973 7.4l-1.394 7.452.034-.144c-.232.803-.581 1.985-.438 3.305.072.66.299 1.435.932 2.041.634.607 1.577.86 2.484.8.194-.013.383-.062.558-.146 3.04-1.447 5.94-3.071 8.845-4.577l8.44 4.883-.007-.022c.864.538 1.819.584 2.69.258.89-.333 1.78-1.321 1.775-2.511 0-.061-.003-.122-.01-.182-.441-3.575-.992-7.109-1.494-10.631l4.814-4.67.042-.04c.385-.404 1.51-1.234 2.34-2.36.414-.563.826-1.287.787-2.238-.038-.95-.66-1.861-1.481-2.425a1.501 1.501 0 0 0-.579-.245c-3.305-.638-6.606-1.177-9.88-1.755l-2.702-6.033a1.54 1.54 0 0 0-.05-.103c-.234-.434-.593-1.733-1.318-2.902-.362-.584-.882-1.232-1.765-1.55a2.837 2.837 0 0 0-1.404-.11z"/></symbol><symbol id="table"><path d="M8 10c-1.662 0-3 1.338-3 3v22c0 1.662 1.338 3 3 3h32c1.662 0 3-1.338 3-3V13c0-1.662-1.338-3-3-3H8zm1 8h13v6H9v-6zm17 0h13v6H26v-6zM9 28h13v6H9v-6zm17 0h13v6H26v-6z"/></symbol><symbol id="tag"><path d="M27.166 5c-.811 0-1.621.309-2.238.928l-19 19a3.166 3.166 0 0 0 0 4.478l12.666 12.666a3.166 3.166 0 0 0 4.478 0l19-19A3.149 3.149 0 0 0 43 20.834V8.8C43 6.695 41.305 5 39.199 5H27.166zm9.5 3.166a3.168 3.168 0 1 1 0 6.336 3.168 3.168 0 0 1 0-6.336z"/></symbol><symbol id="tasks"><path d="M11.631 9.4a.915.915 0 0 0-.658.28l-2.85 2.92-1.096-1.123a.91.91 0 0 0-1.314 0l-.44.449a.967.967 0 0 0 0 1.347l1.754 1.797.438.45a.92.92 0 0 0 .658.281.921.921 0 0 0 .656-.281l.44-.45 3.508-3.593a.966.966 0 0 0 0-1.346l-.436-.451a.92.92 0 0 0-.66-.28zM17 10c-1.108 0-2 .892-2 2v2c0 1.108.892 2 2 2h24c1.108 0 2-.892 2-2v-2c0-1.108-.892-2-2-2H17zm-5.369 10.4a.915.915 0 0 0-.658.28l-2.85 2.92-1.096-1.123a.91.91 0 0 0-1.314 0l-.44.449a.967.967 0 0 0 0 1.347l1.754 1.797.438.45a.92.92 0 0 0 .658.281.921.921 0 0 0 .656-.281l.44-.45 3.508-3.593a.966.966 0 0 0 0-1.346l-.436-.451a.919.919 0 0 0-.66-.28zM17 21c-1.108 0-2 .892-2 2v2c0 1.108.892 2 2 2h24c1.108 0 2-.892 2-2v-2c0-1.108-.892-2-2-2H17zM8 32a3 3 0 0 0-3 3 3 3 0 0 0 3 3 3 3 0 0 0 3-3 3 3 0 0 0-3-3zm9 0c-1.108 0-2 .892-2 2v2c0 1.108.892 2 2 2h24c1.108 0 2-.892 2-2v-2c0-1.108-.892-2-2-2H17z"/></symbol><symbol id="time"><path style="isolation:auto;mix-blend-mode:normal;text-decoration-color:#000;block-progression:tb;text-decoration-line:none;text-indent:0;text-transform:none;text-decoration-style:solid" d="M24 5C13.53 5 5 13.53 5 24s8.53 19 19 19 19-8.53 19-19S34.47 5 24 5zm-1 6c-.554 0-1 .446-1 1v13c0 .01.006.019.006.029a.989.989 0 0 0 .287.737l6.365 6.363a.997.997 0 0 0 1.414 0l1.414-1.414a.997.997 0 0 0 0-1.414L26 23.814V12c0-.554-.446-1-1-1z" fill-rule="evenodd" color="#000" white-space="normal"/></symbol><symbol id="trash"><path d="M23 6c-1.108 0-2 .892-2 2v2H11c-1.108 0-2 .892-2 2s.892 2 2 2h26c1.108 0 2-.892 2-2s-.892-2-2-2H27V8c0-1.108-.892-2-2-2h-2zm-11 9v23.98c0 1.643 1.377 3.02 3.02 3.02h17.96c1.641 0 3.02-1.377 3.02-3.02V15H12zm7.5 4h1c.831 0 1.5.669 1.5 1.5v15c0 .831-.669 1.5-1.5 1.5h-1c-.831 0-1.5-.669-1.5-1.5v-15c0-.831.669-1.5 1.5-1.5zm8 0h1c.831 0 1.5.669 1.5 1.5v15c0 .831-.669 1.5-1.5 1.5h-1c-.831 0-1.5-.669-1.5-1.5v-15c0-.831.669-1.5 1.5-1.5z"/></symbol><symbol id="trophy"><path d="M15.5 6c-.831 0-1.5.669-1.5 1.5v1H6.459A1.46 1.46 0 0 0 5 9.959c0 6.06 4.014 11.221 9.406 12.318a9.982 9.982 0 0 0 3.398 5.072l.022.018C20.355 29.177 22 29.5 22 29.5V32c0 1.662-1.338 3-3 3h-.5c-1.108 0-2 .892-2 2v1H16c-1.108 0-2 .892-2 2v2h20v-2c0-1.108-.892-2-2-2h-.5v-1c0-1.09-.864-1.965-1.945-1.994L29.55 35H29c-1.662 0-3-1.338-3-3v-2.5s1.526-.095 3.894-1.92l-.002-.002a9.982 9.982 0 0 0 3.703-5.3C38.987 21.18 43 16.017 43 9.958A1.46 1.46 0 0 0 41.541 8.5h-7.54v-1c0-.83-.67-1.5-1.5-1.5h-17zm-7.314 5.42H14v7.535C10.969 17.9 8.703 15.08 8.186 11.42zm25.814 0h5.814c-.517 3.66-2.783 6.48-5.814 7.535V11.42z"/></symbol><symbol id="underline"><path d="M5.9 5c-.498 0-.9.402-.9.9v.9c0 .5.402.9.9.9 1.957 0 3.195.339 3.72.902.538.563.81.934.81 2.31l.045 13.256c0 1.126.016 2.04.046 2.744a13.018 13.018 0 0 0 1.225 4.576 8.435 8.435 0 0 0 2.981 3.448 13.343 13.343 0 0 0 4.228 1.876c1.526.392 3.002.588 4.436.588 1.941 0 3.961-.399 6.056-1.197 2.111-.813 3.751-2.289 4.922-4.432.632-1.11 1.016-2.207 1.154-3.287.154-1.094.235-2.72.235-4.879v-11.73c.003-1.387-.153-2.534 1.316-3.545.616-.328 1.624-.63 3.026-.63.498 0 .9-.399.9-.897V5.9c0-.498-.402-.9-.9-.9H28.4c-.498 0-.9.402-.9.9v.903c0 .498.402.898.9.898h.168c1.125 0 2.005.277 2.637.45 1.143.307 1.741 1.912 1.91 3.152.062.5.076.572.076.572v11.451c0 1.486-.07 2.767-.209 3.846a10.948 10.948 0 0 1-.83 3.096c-.539 1.282-1.512 2.331-2.914 3.144a8.87 8.87 0 0 1-4.504 1.197c-1.509 0-2.897-.376-4.16-1.127-1.248-.766-2.134-1.782-2.658-3.048-.277-.767-.486-1.66-.625-2.676-.123-1.032-.184-2.227-.184-3.588V10.914c0-.938.101-.913.301-1.414.2-.517.633-1.084 1.295-1.35.663-.281 1.663-.449 3.004-.449V7.69a.892.892 0 0 0 .844-.888v-.9a.892.892 0 0 0-.844-.89V5H5.9zm.6 34c-.831 0-1.5.669-1.5 1.5v1c0 .831.669 1.5 1.5 1.5h35c.831 0 1.5-.669 1.5-1.5v-1c0-.831-.669-1.5-1.5-1.5h-35z"/></symbol><symbol id="undo"><path d="M12.791 6c.693 0 1.25.557 1.25 1.25v4.238c4.108-3.268 9.64-4.37 14.771-2.751a16.02 16.02 0 0 1 11.129 13.867 16.023 16.023 0 0 1-8.553 15.59c-5.532 2.88-12.23 2.257-17.143-1.524a1.493 1.493 0 0 1-.232-.158l-.575-.485a1.497 1.497 0 0 1-.186-2.113l1.928-2.297a1.497 1.497 0 0 1 2.113-.186l.278.233.002-.004a9.981 9.981 0 0 0 11.045 1.209c3.595-1.872 5.699-5.704 5.345-9.742s-3.089-7.448-6.955-8.666a9.978 9.978 0 0 0-8.982 1.52h4.724c.693 0 1.25.557 1.25 1.25v2.5c0 .692-.557 1.25-1.25 1.25h-9.765c-.064.01-.128.02-.194.02h-2.5c-.182 0-.352-.043-.508-.112A1.245 1.245 0 0 1 9 19.73v-2.5c0-.105.017-.207.04-.305V7.25c0-.693.558-1.25 1.25-1.25z"/></symbol><symbol id="unlock"><path d="M24 5c-5.685 0-10.291 4.607-10.291 10.291v5.543h-2.375A3.166 3.166 0 0 0 8.166 24v15.834A3.167 3.167 0 0 0 11.334 43h25.332a3.166 3.166 0 0 0 3.168-3.166V24a3.166 3.166 0 0 0-3.168-3.166h-19v-5.543c0-3.499 2.835-6.332 6.334-6.332s6.334 2.833 6.334 6.332v1.023c0 .863.694 1.557 1.557 1.557h.845c.863 0 1.557-.694 1.557-1.557.002-.336-.001-.697-.002-1.023C34.291 9.607 29.684 5 24 5z" fill-rule="evenodd" clip-rule="evenodd"/></symbol><symbol id="user-add"><path d="M19.285 11.006a7.429 7.429 0 0 0-.629.049c-4.154.299-7.6 4.288-7.254 8.431.08 4.223 4.048 7.887 8.284 7.639 4.239.031 8.018-3.831 7.876-8.053.004-1.183-.232-2.373-.748-3.443-1.335-2.829-4.392-4.738-7.529-4.623zM36 13c-.554 0-1 .446-1 1v3h-3c-.554 0-1 .446-1 1v2c0 .554.446 1 1 1h3v3c0 .554.446 1 1 1h2c.554 0 1-.446 1-1v-3h3c.554 0 1-.446 1-1v-2c0-.554-.446-1-1-1h-3v-3c0-.554-.446-1-1-1h-2zm-8.42 12.787c-.59.018-1.196.213-1.807.682-2.418 1.785-5.61 2.765-8.58 1.933-3.907-1.079-3.624-2.273-5.463-2.506-1.8-.123-3.336.581-4.466 1.999-1.487 1.953-2.38 4.454-2.252 6.919-.044 2.43 2.397 4.084 4.644 4.153 5.294.053 10.588.007 15.881.021 2.224-.089 4.663.385 6.613-.961 1.57-.903 1.761-2.848 1.694-4.47h.002c-.22-2.566-1.278-5.375-3.502-6.862-.842-.481-1.78-.938-2.764-.908z"/></symbol><symbol id="user-delete"><path d="M19.285 11.006a7.429 7.429 0 0 0-.629.049c-4.154.299-7.6 4.288-7.254 8.431.08 4.223 4.048 7.887 8.284 7.639 4.239.031 8.018-3.831 7.876-8.053.004-1.183-.232-2.373-.748-3.443-1.335-2.829-4.392-4.738-7.529-4.623zm14.914 2.736a.998.998 0 0 0-.709.289l-1.422 1.408a1 1 0 0 0-.007 1.415l2.111 2.13-2.133 2.112a.998.998 0 0 0-.008 1.414l1.408 1.422a1 1 0 0 0 1.415.007l2.13-2.111 2.112 2.133a.998.998 0 0 0 1.414.008l1.422-1.408a1 1 0 0 0 .007-1.415l-2.111-2.13 2.133-2.112a.998.998 0 0 0 .008-1.414l-1.408-1.422a1 1 0 0 0-1.415-.007l-2.13 2.111-2.112-2.133a.997.997 0 0 0-.705-.297zM27.58 25.787c-.59.018-1.196.213-1.807.682-2.418 1.785-5.61 2.765-8.58 1.933-3.907-1.079-3.624-2.273-5.463-2.506-1.8-.123-3.336.581-4.466 1.999-1.487 1.953-2.38 4.454-2.252 6.919-.044 2.43 2.397 4.084 4.644 4.153 5.294.053 10.588.007 15.881.021 2.224-.089 4.663.385 6.613-.961 1.57-.903 1.761-2.848 1.694-4.47h.002c-.22-2.566-1.278-5.375-3.502-6.862-.842-.481-1.78-.938-2.764-.908z"/></symbol><symbol id="user"><path d="M43 35.805c.088 2.144-.164 4.715-2.23 5.909-2.568 1.778-5.78 1.154-8.709 1.272-6.97-.019-13.944.04-20.915-.03-2.958-.09-6.172-2.277-6.115-5.488-.169-3.259 1.007-6.564 2.965-9.146 1.49-1.874 3.51-2.804 5.882-2.64 2.422.306 2.048 1.885 7.193 3.312 3.911 1.099 8.115-.198 11.3-2.558 2.142-1.653 4.247-.718 6.02.3 2.929 1.964 4.318 5.678 4.61 9.07zm-8.273-19.144c.186 5.581-4.789 10.685-10.372 10.644-5.578.328-10.804-4.516-10.909-10.098-.456-5.477 4.082-10.749 9.553-11.144 4.411-.55 8.866 2.058 10.742 6.047.678 1.414.991 2.987.987 4.551z"/></symbol><symbol id="volume-down"><path d="M21.856 10.31c-.39 0-.728.142-1.013.428l-7.5 7.501H7.441c-.39 0-.728.142-1.013.428A1.382 1.382 0 0 0 6 19.68v8.649c0 .39.142.728.428 1.013.285.286.622.428 1.013.428h5.902l7.5 7.501c.285.286.623.428 1.013.428.39 0 .73-.142 1.015-.428s.428-.623.428-1.013V11.751c0-.39-.143-.728-.428-1.013a1.389 1.389 0 0 0-1.015-.428zm5.881 7.081c-1.554-.059-2.135 2.012-.778 2.77 1.375.794 2.22 2.255 2.22 3.843s-.845 3.05-2.22 3.844c-1.71.986-.23 3.55 1.48 2.564 2.286-1.32 3.698-3.767 3.698-6.407s-1.412-5.087-3.699-6.408a1.48 1.48 0 0 0-.7-.206z"/></symbol><symbol id="volume-mute"><path d="M21.856 10.31c-.39 0-.728.142-1.013.428l-7.5 7.501H7.441c-.39 0-.728.142-1.013.428A1.382 1.382 0 0 0 6 19.68v8.649c0 .39.142.728.428 1.013.285.286.622.428 1.013.428h5.902l7.5 7.501c.285.286.623.428 1.013.428.39 0 .73-.142 1.015-.428s.428-.623.428-1.013V11.751c0-.39-.143-.728-.428-1.013a1.389 1.389 0 0 0-1.015-.428z"/></symbol><symbol id="volume-up"><path d="M32.671 8.85a1.474 1.474 0 0 0-.775 2.76 14.304 14.304 0 0 1 7.154 12.394c0 5.115-2.724 9.836-7.154 12.394a1.474 1.474 0 1 0 1.474 2.554A17.264 17.264 0 0 0 42 24.005a17.267 17.267 0 0 0-8.63-14.949 1.474 1.474 0 0 0-.7-.206zm-10.815 1.46c-.39 0-.728.142-1.013.428l-7.5 7.501H7.441c-.39 0-.728.142-1.013.428A1.382 1.382 0 0 0 6 19.68v8.649c0 .39.142.728.428 1.013.285.286.622.428 1.013.428h5.902l7.5 7.501c.285.286.623.428 1.013.428.39 0 .73-.142 1.015-.428s.428-.623.428-1.013V11.751c0-.39-.143-.728-.428-1.013a1.389 1.389 0 0 0-1.015-.428zm8.364 2.814a1.443 1.443 0 0 0-.759 2.701 9.44 9.44 0 0 1 4.722 8.18 9.44 9.44 0 0 1-4.722 8.179 1.443 1.443 0 1 0 1.443 2.499 12.336 12.336 0 0 0 6.165-10.678c0-4.403-2.352-8.477-6.165-10.678a1.443 1.443 0 0 0-.684-.203zm-2.483 4.267a1.48 1.48 0 0 0-.778 2.77c1.375.794 2.22 2.255 2.22 3.843s-.845 3.05-2.22 3.844a1.48 1.48 0 1 0 1.48 2.564c2.286-1.32 3.698-3.767 3.698-6.407s-1.412-5.087-3.699-6.408a1.48 1.48 0 0 0-.7-.206z"/></symbol><symbol id="zoom-in"><path style="text-decoration-color:#000;isolation:auto;mix-blend-mode:normal;block-progression:tb;text-decoration-line:none;text-indent:0;text-transform:none;text-decoration-style:solid" d="M19.904 4.959c-4.751.169-9.419 2.44-12.162 6.723-6 8.22-1.65 20.712 8.153 23.425 4.693 1.611 9.619.549 13.414-2.127l9.148 9.157c2.486 2.594 6.324-1.245 3.731-3.733l-9.172-9.179c1.694-2.357 2.737-5.16 2.777-8.233.046-.197.07-.397.07-.599 0-.017-.007-.035-.008-.051 0-.02.005-.037.004-.057l-.009.024a15.366 15.366 0 0 0-3.309-9.473c-3.037-4.104-7.869-6.045-12.635-5.877h-.002zm.192 5.412c3.16-.112 6.367 1.081 8.236 3.629l.064.086a10.224 10.224 0 0 1 2.192 6.295l.004-.006a2.129 2.129 0 0 0 0 .113c.24 6.318-7.089 11.708-13.043 9.619a2.901 2.901 0 0 0-.188-.054c-6.098-1.639-9.097-10.232-5.336-15.311.04-.053.078-.109.114-.166 1.684-2.674 4.796-4.091 7.957-4.203v-.002zm-.571 2.979c-.623 0-1.125.501-1.125 1.125v3.875h-3.875c-.623 0-1.125.501-1.125 1.125v1.75c0 .623.502 1.125 1.125 1.125H18.4v3.875c0 .623.502 1.125 1.125 1.125h1.75c.624 0 1.125-.502 1.125-1.125V22.35h3.875c.624 0 1.125-.502 1.125-1.125v-1.75c0-.624-.501-1.125-1.125-1.125H22.4v-3.875c0-.624-.501-1.125-1.125-1.125h-1.75z" color="#000" white-space="normal"/></symbol><symbol id="zoom-out"><path style="text-decoration-color:#000;isolation:auto;mix-blend-mode:normal;block-progression:tb;text-decoration-line:none;text-indent:0;text-transform:none;text-decoration-style:solid" d="M19.904 4.959c-4.751.169-9.419 2.44-12.162 6.723-6 8.22-1.65 20.712 8.153 23.425 4.693 1.611 9.619.549 13.414-2.127l9.148 9.157c2.486 2.594 6.324-1.245 3.731-3.733l-9.172-9.179c1.694-2.357 2.737-5.16 2.777-8.233.046-.197.07-.397.07-.599 0-.017-.007-.035-.008-.051 0-.02.005-.037.004-.057l-.009.024a15.366 15.366 0 0 0-3.309-9.473c-3.037-4.104-7.869-6.045-12.635-5.877h-.002zm.192 5.412c3.16-.112 6.367 1.081 8.236 3.629l.064.086a10.224 10.224 0 0 1 2.192 6.295l.004-.006a2.129 2.129 0 0 0 0 .113c.24 6.318-7.089 11.708-13.043 9.619a2.901 2.901 0 0 0-.188-.054c-6.098-1.639-9.097-10.232-5.336-15.311.04-.053.078-.109.114-.166 1.684-2.674 4.796-4.091 7.957-4.203v-.002zm-5.571 7.979c-.623 0-1.125.501-1.125 1.125v1.75c0 .623.502 1.125 1.125 1.125h11.75c.624 0 1.125-.502 1.125-1.125v-1.75c0-.624-.501-1.125-1.125-1.125h-11.75z" color="#000" white-space="normal"/></symbol></svg>