<?xml version="1.0" encoding="UTF-8"?>
<svg width="260px" height="29px" viewBox="0 0 260 29" version="1.1" xmlns="http://www.w3.org/2000/svg" xmlns:xlink="http://www.w3.org/1999/xlink">
    <!-- Generator: Sketch 51.3 (57544) - http://www.bohemiancoding.com/sketch -->
    <title>Sushi Chain</title>
    <desc>Created with Sketch.</desc>
    <defs>
        <path d="M3.51,21.579 C4.054,23.557 6.226,25.303 9.136,25.303 C12.667,25.303 14.529,23.169 14.529,20.997 C14.568,18.358 12.279,17.194 9.99,16.612 L6.537,15.759 C0.872,14.362 0.018,11.064 0.018,8.775 C0.018,4.274 4.131,1.248 8.671,1.248 C12.938,1.248 16.004,3.46 16.973,6.913 C17.051,7.184 17.09,7.495 17.09,7.805 C17.09,8.659 16.663,9.435 15.305,9.435 C14.646,9.435 13.908,9.163 13.637,8.193 C12.977,5.71 11.076,4.701 8.632,4.701 C6.032,4.701 3.627,6.292 3.627,8.736 C3.627,9.9 4.054,11.646 7.429,12.461 L10.921,13.314 C15.499,14.44 18.137,17 18.137,20.647 C18.137,24.954 14.878,28.679 9.136,28.679 C4.442,28.679 1.299,26.157 0.212,22.743 C0.135,22.471 0.096,22.199 0.096,21.967 C0.096,20.88 0.95,20.298 1.881,20.298 C2.657,20.298 3.278,20.841 3.51,21.579 Z M35.17,26.7 L35.17,25.575 C34.084,27.748 31.484,28.679 29.505,28.679 C25.005,28.679 22.522,25.73 22.522,20.647 L22.522,11.762 C22.522,10.793 23.298,9.978 24.306,9.978 C25.276,9.978 26.052,10.793 26.052,11.762 L26.052,20.415 C26.052,23.441 27.566,25.226 30.049,25.226 C32.609,25.226 35.17,23.79 35.17,19.949 L35.17,11.762 C35.17,10.793 35.946,9.978 36.955,9.978 C37.925,9.978 38.701,10.793 38.701,11.762 L38.701,26.7 C38.701,27.67 37.925,28.485 36.955,28.485 C35.946,28.485 35.17,27.67 35.17,26.7 Z M46.383,23.402 C46.887,24.721 48.323,25.575 50.146,25.575 C51.97,25.575 53.328,24.605 53.328,23.169 C53.328,21.85 52.28,21.191 50.922,20.88 L48.439,20.298 C45.374,19.483 43.551,17.97 43.551,15.099 C43.551,12.112 46.228,9.784 49.875,9.784 C52.242,9.784 54.531,10.637 55.578,12.732 C55.733,13.004 55.772,13.314 55.772,13.547 C55.772,14.711 54.647,15.138 54.104,15.138 C53.599,15.138 53.212,14.866 52.824,14.362 C52.009,13.276 51.078,12.849 49.952,12.849 C48.245,12.849 47.12,13.858 47.12,15.216 C47.12,16.38 48.245,17.039 49.409,17.311 L52.086,17.97 C55.85,18.901 56.781,21.191 56.781,23.247 C56.781,26.622 53.522,28.679 49.758,28.679 C46.965,28.679 44.094,27.127 43.24,24.333 C43.201,24.139 43.163,23.945 43.163,23.79 C43.163,22.859 44.055,22.393 44.87,22.393 C45.491,22.393 46.111,22.704 46.383,23.402 Z M77.965,17.815 L77.965,26.7 C77.965,27.67 77.189,28.485 76.18,28.485 C75.21,28.485 74.434,27.67 74.434,26.7 L74.434,18.048 C74.434,15.06 72.65,13.237 70.167,13.237 C67.683,13.237 64.657,14.634 64.657,18.513 L64.657,26.7 C64.657,27.67 63.881,28.485 62.872,28.485 C61.902,28.485 61.126,27.67 61.126,26.7 L61.126,1.908 C61.126,0.938 61.902,0.123 62.872,0.123 C63.881,0.123 64.657,0.938 64.657,1.908 L64.657,12.888 C65.743,10.715 68.653,9.784 70.632,9.784 C75.172,9.784 78.004,12.732 77.965,17.815 Z M82.699,3.537 C82.699,2.218 83.824,1.248 85.143,1.248 C86.501,1.248 87.587,2.218 87.587,3.537 C87.587,4.856 86.501,5.826 85.143,5.826 C83.824,5.826 82.699,4.856 82.699,3.537 Z M86.928,26.7 C86.928,27.67 86.152,28.485 85.143,28.485 C84.173,28.485 83.397,27.67 83.397,26.7 L83.397,11.762 C83.397,10.793 84.173,9.978 85.143,9.978 C86.152,9.978 86.928,10.793 86.928,11.762 L86.928,26.7 Z M101.632,14.944 C101.632,7.339 107.607,1.248 115.173,1.248 C118.665,1.248 121.769,2.49 124.058,4.585 C124.756,5.205 124.873,6.331 124.252,7.107 C123.554,7.883 122.428,7.921 121.691,7.301 C119.945,5.749 117.734,4.74 115.173,4.74 C109.586,4.74 105.241,9.318 105.241,14.983 C105.241,20.647 109.586,25.187 115.173,25.187 C117.734,25.187 119.945,24.178 121.691,22.626 C122.428,22.005 123.554,22.044 124.252,22.82 C124.873,23.596 124.756,24.721 124.058,25.342 C121.769,27.437 118.665,28.679 115.173,28.679 C107.607,28.679 101.632,22.549 101.632,14.944 Z M145.552,17.815 L145.552,26.7 C145.552,27.67 144.776,28.485 143.768,28.485 C142.798,28.485 142.022,27.67 142.022,26.7 L142.022,18.048 C142.022,15.06 140.237,13.237 137.754,13.237 C135.271,13.237 132.244,14.634 132.244,18.513 L132.244,26.7 C132.244,27.67 131.469,28.485 130.46,28.485 C129.49,28.485 128.714,27.67 128.714,26.7 L128.714,1.908 C128.714,0.938 129.49,0.123 130.46,0.123 C131.469,0.123 132.244,0.938 132.244,1.908 L132.244,12.888 C133.331,10.715 136.241,9.784 138.219,9.784 C142.759,9.784 145.591,12.732 145.552,17.815 Z M165.495,26.7 L165.495,25.497 C164.292,27.554 161.654,28.679 159.132,28.679 C154.166,28.679 149.937,24.954 149.937,19.212 C149.937,13.431 154.166,9.784 159.132,9.784 C161.654,9.784 164.292,10.831 165.495,12.888 L165.495,11.762 C165.495,10.793 166.271,9.978 167.241,9.978 C168.25,9.978 169.026,10.793 169.026,11.762 L169.026,26.7 C169.026,27.67 168.25,28.485 167.241,28.485 C166.271,28.485 165.495,27.67 165.495,26.7 Z M165.456,19.173 C165.456,15.293 162.352,13.237 159.442,13.237 C156.183,13.237 153.545,15.565 153.545,19.173 C153.545,22.743 156.183,25.226 159.442,25.226 C162.663,25.226 165.456,23.014 165.456,19.173 Z M173.914,3.537 C173.914,2.218 175.039,1.248 176.359,1.248 C177.717,1.248 178.803,2.218 178.803,3.537 C178.803,4.856 177.717,5.826 176.359,5.826 C175.039,5.826 173.914,4.856 173.914,3.537 Z M178.143,26.7 C178.143,27.67 177.367,28.485 176.359,28.485 C175.389,28.485 174.613,27.67 174.613,26.7 L174.613,11.762 C174.613,10.793 175.389,9.978 176.359,9.978 C177.367,9.978 178.143,10.793 178.143,11.762 L178.143,26.7 Z M187.261,11.762 L187.261,12.888 C188.347,10.715 190.947,9.784 192.926,9.784 C197.426,9.784 199.909,12.732 199.909,17.815 L199.909,26.7 C199.909,27.67 199.133,28.485 198.125,28.485 C197.155,28.485 196.379,27.67 196.379,26.7 L196.379,18.048 C196.379,15.022 194.866,13.237 192.383,13.237 C189.822,13.237 187.261,14.672 187.261,18.513 L187.261,26.7 C187.261,27.67 186.485,28.485 185.476,28.485 C184.506,28.485 183.73,27.67 183.73,26.7 L183.73,11.762 C183.73,10.793 184.506,9.978 185.476,9.978 C186.485,9.978 187.261,10.793 187.261,11.762 Z" id="path-1"></path>
    </defs>
    <g id="Sushi-Chain" stroke="none" stroke-width="1" fill="none" fill-rule="evenodd">
        <g id="Group-5" transform="translate(2.000000, 6.000000)" stroke-linecap="round" stroke-linejoin="round">
            <path d="M16.166,0.518 C5.389,0.001 0,3.352 0,10.57 C0,17.789 5.389,21.139 16.166,20.622" id="Stroke-1" stroke="#FB4934" stroke-width="4"></path>
            <path d="M26.674,20.622 C37.452,21.139 42.84,17.789 42.84,10.57 C42.84,3.352 37.452,0.001 26.674,0.518" id="Stroke-3" stroke="#83A598" stroke-width="4"></path>
            <path d="M14.682,10.57 L28.159,10.57" id="Stroke-4" stroke="#B8BB25" stroke-width="3"></path>
        </g>
        <g id="Group-8" transform="translate(60.000000, 0.000000)">
            <mask id="mask-2" fill="white">
                <use xlink:href="#path-1"></use>
            </mask>
            <g id="Clip-7"></g>
            <polygon id="Fill-6" fill="#EADCB1" mask="url(#mask-2)" points="-0.06 28.7 199.98 28.7 199.98 0.02 -0.06 0.02"></polygon>
        </g>
    </g>
</svg>