<svg id="svg-wallet" width="154px" height="154px" viewBox="0 0 308 308" version="1.1" xmlns="http://www.w3.org/2000/svg" xmlns:xlink="http://www.w3.org/1999/xlink">
  <title>Wallet</title>
  <desc>Wallet</desc>
  <defs></defs>
  <g id="wallet" stroke="none" stroke-width="1" fill="none" fill-rule="evenodd">
    <rect id="Rectangle-4" stroke="#D65D0D" stroke-width="6" fill-rule="nonzero" x="16" y="41" width="261" height="227" rx="8"></rect>
    <rect id="Rectangle" stroke="#D65D0D" stroke-width="6" fill-rule="nonzero" x="193" y="124" width="99" height="61" rx="8"></rect>
    <circle id="Oval" stroke="#D65D0D" stroke-width="6" fill-rule="nonzero" cx="228" cy="155" r="15"></circle>
    <g id="Group-2" transform="translate(15.000000, 85.000000)" fill-rule="nonzero" stroke="#D65D0D" stroke-linecap="square" stroke-width="4">
      <path d="M2.5,1.5 L55.5,1.5" id="Line-10"></path>
      <path d="M2.5,49.5 L95.5,49.5" id="Line"></path>
      <path d="M92.5,93.5 L0.5,93.5" id="Line-2"></path>
      <path d="M53.5,140.5 L2.5,140.5" id="Line-11"></path>
    </g>
    <g id="Group" transform="translate(57.000000, 75.000000)" fill="#FE8018" fill-rule="nonzero" stroke="#D65D0D" stroke-width="6">
      <circle id="Oval" cx="10" cy="10" r="10"></circle>
      <circle id="Oval" cx="50" cy="56.6666667" r="10"></circle>
      <circle id="Oval" cx="50" cy="103.333333" r="10"></circle>
      <circle id="Oval" cx="10" cy="150" r="10"></circle>
    </g>
    <g id="Group-3" transform="translate(146.000000, 208.000000)" fill-rule="nonzero" stroke="#D65D0D" stroke-linecap="square" stroke-width="4">
      <path d="M1.5,0.5 L1.5,58.5" id="Line-12"></path>
      <path d="M92.5,16.5 L44.5,16.5" id="Line-13"></path>
      <path d="M44.5,16.5 L44.5,58.5" id="Line-3"></path>
    </g>
    <g id="Group-4" transform="translate(137.000000, 198.000000)" fill="#FE8018" fill-rule="nonzero" stroke="#D65D0D" stroke-width="6">
      <circle id="Oval" cx="101" cy="27" r="10"></circle>
      <circle id="Oval" cx="10" cy="10" r="10"></circle>
    </g>
    <g id="Group-5" transform="translate(136.000000, 40.000000)" fill-rule="nonzero" stroke="#D65D0D">
      <g id="Group-6" transform="translate(9.000000, 0.000000)" stroke-linecap="square" stroke-width="4">
        <path d="M1.5,44.5 L1.5,0.5" id="Line-14"></path>
        <path d="M92.5,37.5 L48.5,37.5" id="Line-15"></path>
        <path d="M48.5,35 L48.5,3.5" id="Line-4"></path>
      </g>
      <circle id="Oval" stroke-width="6" fill="#FE8018" cx="102" cy="38" r="10"></circle>
      <circle id="Oval" stroke-width="6" fill="#FE8018" cx="10" cy="45" r="10"></circle>
    </g>
  </g>
</svg>
