<?xml version="1.0" encoding="UTF-8"?>
<svg width="64px" height="182px" viewBox="0 0 64 182" version="1.1" xmlns="http://www.w3.org/2000/svg" xmlns:xlink="http://www.w3.org/1999/xlink">
    <!-- Generator: Sketch 49.2 (51160) - http://www.bohemiancoding.com/sketch -->
    <title>Sushi LADY</title>
    <desc>Created with Sketch.</desc>
    <defs>
        <path d="M28.8995,12.6995 C22.403,16.4675 11.864,16.4675 5.3675,12.6995 C1.7255,10.586 0.119,7.7705 0.566,5.0375 L0.566,5.0015 C0.833,3.3755 1.811,1.787 3.509,0.41 C0.833,3.644 1.8335,7.6265 6.458,10.289 C12.3485,13.7 21.902,13.7 27.815,10.289 C32.4365,7.6265 33.4355,3.644 30.758,0.41 C32.456,1.787 33.4355,3.3755 33.701,5.0015 L33.701,5.0375 C34.1495,7.7705 32.5415,10.586 28.8995,12.6995" id="path-1"></path>
        <path d="M28.8995,12.6995 C22.403,16.4675 11.864,16.4675 5.3675,12.6995 C1.7255,10.586 0.119,7.7705 0.566,5.0375 L0.566,5.0015 C0.833,3.3755 1.811,1.787 3.509,0.41 C0.833,3.644 1.8335,7.6265 6.458,10.289 C12.3485,13.7 21.902,13.7 27.815,10.289 C32.4365,7.6265 33.4355,3.644 30.758,0.41 C32.456,1.787 33.4355,3.3755 33.701,5.0015 L33.701,5.0375 C34.1495,7.7705 32.5415,10.586 28.8995,12.6995" id="path-3"></path>
        <path d="M30.719,10.9481429 C30.401,8.90371429 28.937,6.92528571 26.348,5.35385714 C20.438,1.76157143 10.832,1.76157143 4.919,5.35385714 C2.33,6.92528571 0.8675,8.90371429 0.548,10.9481429 C0.137,8.32857143 1.5995,5.61471429 4.919,3.59857143 C10.832,0.0204285714 20.438,0.0204285714 26.348,3.59857143 C29.666,5.61471429 31.13,8.32857143 30.719,10.9481429" id="path-5"></path>
        <path d="M24.0153704,16.3787273 C23.616,16.3787273 23.2287778,16.3524545 22.874963,16.2968182 L18.8402593,15.6616364 L17.510037,15.4514545 L13.6347778,14.841 L8.45814815,14.025 C8.01777778,13.9554545 7.57285185,13.8318182 7.14918519,13.6695455 C6.00877778,13.2337273 5.0262963,12.5166364 4.70740741,11.815 L0.842777778,3.35363636 C0.742555556,3.12954545 0.706111111,2.88845455 0.709148148,2.64118182 L0.703074074,2.64118182 L0.703074074,0.151454545 C0.704592593,0.380181818 0.750148148,0.602727273 0.842777778,0.805181818 L4.70740741,9.26963636 C5.14474074,10.2262727 6.83181481,11.2184545 8.45814815,11.4780909 L22.874963,13.7483636 C23.2302963,13.8055455 23.616,13.8318182 24.0153704,13.8318182 C25.4564444,13.8318182 27.0751852,13.4887273 28.0075556,12.9385455 L38.5582222,6.73818182 C39.5118519,6.17718182 40.098,5.202 40.0721852,4.34581818 L40.0737037,4.34581818 L40.0737037,6.94372727 L40.0645926,6.94372727 C40.0645926,7.79218182 39.4905926,8.74109091 38.5582222,9.28663636 L28.0075556,15.487 C27.0751852,16.0356364 25.4564444,16.3787273 24.0153704,16.3787273 M0.703074074,0.115909091 L0.703074074,0.0741818182 L0.704592593,0.0741818182 C0.703074074,0.0880909091 0.703074074,0.102 0.703074074,0.115909091" id="path-7"></path>
        <path d="M24.0199259,16.0805 C23.619037,16.0805 23.2302963,16.055 22.874963,16.001 L8.45814815,13.799 C6.83181481,13.547 5.14474074,12.5855 4.70740741,11.6555 L0.842777778,3.4355 C0.804814815,3.3575 0.775962963,3.275 0.756222222,3.1895 C0.721296296,3.047 0.70762963,2.897 0.709148148,2.747 L0.703074074,2.747 L0.703074074,0.3305 C0.704592593,0.5525 0.750148148,0.767 0.842777778,0.9635 L4.70740741,9.1835 C5.14474074,10.109 6.83181481,11.075 8.45814815,11.327 L22.874963,13.529 C23.2287778,13.5815 23.612963,13.607 24.0108148,13.607 C25.4534074,13.607 27.0736667,13.2755 28.0075556,12.7445 L38.5582222,6.7265 C39.5103333,6.1835 40.0964815,5.2355 40.0721852,4.4045 L40.0737037,4.4045 L40.0737037,6.929 L40.0645926,6.929 C40.0645926,7.067 40.0478889,7.2065 40.016,7.3475 C39.8611111,8.0465 39.3341852,8.7575 38.5582222,9.2 L28.0075556,15.2165 C27.0751852,15.7505 25.4594815,16.0805 24.0199259,16.0805 M0.703074074,0.296 L0.703074074,0.2585 C0.703074074,0.2705 0.703074074,0.2825 0.703074074,0.296" id="path-9"></path>
    </defs>
    <g id="Page-1" stroke="none" stroke-width="1" fill="none" fill-rule="evenodd">
        <g id="Home" transform="translate(-886.000000, -347.000000)">
            <g id="Sushi-LADY" transform="translate(918.000000, 439.500000) scale(-1, 1) translate(-918.000000, -439.500000) translate(886.000000, 347.000000)">
                <path d="M22.4150501,125.033928 C26.4477363,127.27611 28.1734353,125.033928 28.9499998,124.133038 C29.101377,121.750236 29.0014681,111.701365 27.3151271,109.834683 C26.0783761,108.465576 21.0132981,107.611043 19.2558099,107.539961 C18.3914466,107.505965 17.9297464,106.639071 17.3999266,107.173733 C16.3660209,108.213698 17.6027719,111.651916 18.1265367,112.671793 L22.4150501,125.033928" id="Fill-5557" fill="#366272"></path>
                <path d="M37,77.689001 C31.2328576,74.5658274 22.5843683,69.7799789 15.7598918,71.2857408 C8.9087223,72.7960291 12.8444374,80.8830871 16.3767936,83.8870671 C20.5527445,87.4372252 26.2487059,87.7269109 31.4389858,88 L37,77.689001" id="Fill-5558" fill="#366272"></path>
                <path d="M12.4228585,139.083775 C7.80988693,144.782171 15.6214685,146.023602 18.7382183,144.252088 C20.6998303,143.137085 23.0480041,136.855292 21.4956929,135 L12.4228585,139.083775" id="Fill-5559" fill="#171C1E"></path>
                <path d="M15.3744909,129 C15.0671456,132.046672 13.6955597,137.829788 11.0640109,138.776568 C10.275005,142.904648 17.0029625,142.58125 18.9785355,140.517942 C20.6207687,138.801445 21.1773543,134.335334 22,132.048135 L15.3744909,129" id="Fill-5560" fill="#21272A"></path>
                <path d="M2,85 C2,85 13.8553899,122.775571 14.709994,128.919654 C18.1612795,131.114727 23.0782408,130.059636 22.9990555,124.881204 C22.9198701,119.702772 17.961075,90.0753486 17.961075,90.0753486 L2,85" id="Fill-5562" fill="#2A4954"></path>
                <path d="M38.898,164 C38.404,164 38,163.700206 38,163.325087 L38,107.673406 C38,107.3013 38.404,107 38.898,107 C39.396,107 39.8,107.3013 39.8,107.673406 L39.8,163.325087 C39.8,163.700206 39.396,164 38.898,164" id="Fill-5577" fill="#22201E"></path>
                <path d="M20.888,173 C20.394,173 20,172.698931 20,172.327917 L20,106.670563 C20,106.299548 20.394,106 20.888,106 C21.366,106 21.77,106.299548 21.77,106.670563 L21.77,172.327917 C21.77,172.698931 21.366,173 20.888,173" id="Fill-5578" fill="#22201E"></path>
                <path d="M52.88,175 C52.394,175 52,174.655115 52,174.230105 L52,98.7733792 C52,98.3431435 52.394,98 52.88,98 C53.37,98 53.76,98.3431435 53.76,98.7733792 L53.76,174.230105 C53.76,174.655115 53.37,175 52.88,175" id="Fill-5579" fill="#22201E"></path>
                <g id="Group-5588" transform="translate(19.000000, 169.000000)">
                    <mask id="mask-2" fill="white">
                        <use xlink:href="#path-1"></use>
                    </mask>
                    <g id="Clip-5587"></g>
                    <path d="M28.8995,12.6995 C22.403,16.4675 11.864,16.4675 5.3675,12.6995 C1.7255,10.586 0.119,7.7705 0.566,5.0375 L0.566,5.0015 C0.833,3.3755 1.811,1.787 3.509,0.41 C0.833,3.644 1.8335,7.6265 6.458,10.289 C12.3485,13.7 21.902,13.7 27.815,10.289 C32.4365,7.6265 33.4355,3.644 30.758,0.41 C32.456,1.787 33.4355,3.3755 33.701,5.0015 L33.701,5.0375 C34.1495,7.7705 32.5415,10.586 28.8995,12.6995" id="Fill-5586" mask="url(#mask-2)"></path>
                </g>
                <path d="M47.911936,178.587879 C41.8712625,181.962162 32.1114834,181.962162 26.0937957,178.587879 C21.3694435,175.95404 20.3473408,172.014409 23.0811209,168.815221 C23.6297158,168.362646 24.2671892,167.938264 24.9797497,167.549494 C31.6165221,163.836893 42.3830801,163.836893 49.0198525,167.549494 C49.7308806,167.938264 50.3698864,168.362646 50.9184813,168.815221 C53.6537938,172.014409 52.6332234,175.95404 47.911936,178.587879 Z M49.0198525,165.782225 C42.3830801,162.072592 31.6165221,162.072592 24.9797497,165.782225 C21.2591116,167.867039 19.6179241,170.655199 20.0745757,173.357296 L20.0745757,173.392909 C20.4362193,175.513335 22.0758744,177.580343 24.9797497,179.206646 C31.6165221,182.931118 42.3830801,182.931118 49.0198525,179.206646 C51.9175982,177.580343 53.5618505,175.513335 53.9250265,173.392909 L53.9250265,173.357296 C54.3832105,170.655199 52.7404906,167.867039 49.0198525,165.782225 Z" id="Fill-5589" fill="#22201E"></path>
                <g id="Group-5592" transform="translate(19.000000, 131.000000)">
                    <mask id="mask-4" fill="white">
                        <use xlink:href="#path-3"></use>
                    </mask>
                    <g id="Clip-5591"></g>
                    <path d="M28.8995,12.6995 C22.403,16.4675 11.864,16.4675 5.3675,12.6995 C1.7255,10.586 0.119,7.7705 0.566,5.0375 L0.566,5.0015 C0.833,3.3755 1.811,1.787 3.509,0.41 C0.833,3.644 1.8335,7.6265 6.458,10.289 C12.3485,13.7 21.902,13.7 27.815,10.289 C32.4365,7.6265 33.4355,3.644 30.758,0.41 C32.456,1.787 33.4355,3.3755 33.701,5.0015 L33.701,5.0375 C34.1495,7.7705 32.5415,10.586 28.8995,12.6995" id="Fill-5590" mask="url(#mask-4)"></path>
                </g>
                <path d="M47.911936,141.587879 C41.8712625,144.962162 32.1114834,144.962162 26.0937957,141.587879 C21.3694435,138.95404 20.3473408,135.014409 23.0811209,131.815221 C23.6297158,131.362646 24.2671892,130.938264 24.9797497,130.549494 C31.6165221,126.836893 42.3830801,126.836893 49.0198525,130.549494 C49.7308806,130.938264 50.3698864,131.362646 50.9184813,131.815221 C53.6537938,135.014409 52.6332234,138.95404 47.911936,141.587879 Z M49.0198525,128.782225 C42.3830801,125.072592 31.6165221,125.072592 24.9797497,128.782225 C21.2591116,130.867039 19.6179241,133.655199 20.0745757,136.357296 L20.0745757,136.392909 C20.4362193,138.513335 22.0758744,140.580343 24.9797497,142.206646 C31.6165221,145.931118 42.3830801,145.931118 49.0198525,142.206646 C51.9175982,140.580343 53.5618505,138.513335 53.9250265,136.392909 L53.9250265,136.357296 C54.3832105,133.655199 52.7404906,130.867039 49.0198525,128.782225 Z" id="Fill-5593" fill="#22201E"></path>
                <g id="Group-5597" transform="translate(21.000000, 163.000000)">
                    <mask id="mask-6" fill="white">
                        <use xlink:href="#path-5"></use>
                    </mask>
                    <g id="Clip-5596"></g>
                    <path d="M30.719,10.9481429 C30.401,8.90371429 28.937,6.92528571 26.348,5.35385714 C20.438,1.76157143 10.832,1.76157143 4.919,5.35385714 C2.33,6.92528571 0.8675,8.90371429 0.548,10.9481429 C0.137,8.32857143 1.5995,5.61471429 4.919,3.59857143 C10.832,0.0204285714 20.438,0.0204285714 26.348,3.59857143 C29.666,5.61471429 31.13,8.32857143 30.719,10.9481429" id="Fill-5595" mask="url(#mask-6)"></path>
                </g>
                <polygon id="Fill-5598" fill="#22201E" points="32 181 33.752 181 33.752 104 32 104"></polygon>
                <g id="Group-5601" transform="translate(15.000000, 100.000000)">
                    <mask id="mask-8" fill="white">
                        <use xlink:href="#path-7"></use>
                    </mask>
                    <g id="Clip-5600"></g>
                    <path d="M24.0153704,16.3787273 C23.616,16.3787273 23.2287778,16.3524545 22.874963,16.2968182 L18.8402593,15.6616364 L17.510037,15.4514545 L13.6347778,14.841 L8.45814815,14.025 C8.01777778,13.9554545 7.57285185,13.8318182 7.14918519,13.6695455 C6.00877778,13.2337273 5.0262963,12.5166364 4.70740741,11.815 L0.842777778,3.35363636 C0.742555556,3.12954545 0.706111111,2.88845455 0.709148148,2.64118182 L0.703074074,2.64118182 L0.703074074,0.151454545 C0.704592593,0.380181818 0.750148148,0.602727273 0.842777778,0.805181818 L4.70740741,9.26963636 C5.14474074,10.2262727 6.83181481,11.2184545 8.45814815,11.4780909 L22.874963,13.7483636 C23.2302963,13.8055455 23.616,13.8318182 24.0153704,13.8318182 C25.4564444,13.8318182 27.0751852,13.4887273 28.0075556,12.9385455 L38.5582222,6.73818182 C39.5118519,6.17718182 40.098,5.202 40.0721852,4.34581818 L40.0737037,4.34581818 L40.0737037,6.94372727 L40.0645926,6.94372727 C40.0645926,7.79218182 39.4905926,8.74109091 38.5582222,9.28663636 L28.0075556,15.487 C27.0751852,16.0356364 25.4564444,16.3787273 24.0153704,16.3787273 M0.703074074,0.115909091 L0.703074074,0.0741818182 L0.704592593,0.0741818182 C0.703074074,0.0880909091 0.703074074,0.102 0.703074074,0.115909091" id="Fill-5599" mask="url(#mask-8)"></path>
                </g>
                <g id="Group-5605" transform="translate(15.000000, 96.000000)">
                    <mask id="mask-10" fill="white">
                        <use xlink:href="#path-9"></use>
                    </mask>
                    <g id="Clip-5604"></g>
                    <path d="M24.0199259,16.0805 C23.619037,16.0805 23.2302963,16.055 22.874963,16.001 L8.45814815,13.799 C6.83181481,13.547 5.14474074,12.5855 4.70740741,11.6555 L0.842777778,3.4355 C0.804814815,3.3575 0.775962963,3.275 0.756222222,3.1895 C0.721296296,3.047 0.70762963,2.897 0.709148148,2.747 L0.703074074,2.747 L0.703074074,0.3305 C0.704592593,0.5525 0.750148148,0.767 0.842777778,0.9635 L4.70740741,9.1835 C5.14474074,10.109 6.83181481,11.075 8.45814815,11.327 L22.874963,13.529 C23.2287778,13.5815 23.612963,13.607 24.0108148,13.607 C25.4534074,13.607 27.0736667,13.2755 28.0075556,12.7445 L38.5582222,6.7265 C39.5103333,6.1835 40.0964815,5.2355 40.0721852,4.4045 L40.0737037,4.4045 L40.0737037,6.929 L40.0645926,6.929 C40.0645926,7.067 40.0478889,7.2065 40.016,7.3475 C39.8611111,8.0465 39.3341852,8.7575 38.5582222,9.2 L28.0075556,15.2165 C27.0751852,15.7505 25.4594815,16.0805 24.0199259,16.0805 M0.703074074,0.296 L0.703074074,0.2585 C0.703074074,0.2705 0.703074074,0.2825 0.703074074,0.296" id="Fill-5603" mask="url(#mask-10)"></path>
                </g>
                <path d="M42.047752,108.116135 C40.8669096,108.810617 38.5789335,109.171686 36.9633605,108.919706 L22.6819367,106.664177 C21.0708766,106.406051 19.3996461,105.416568 18.9664199,104.46857 L15.1380837,96.0487472 C14.7063617,95.0961395 15.3216032,93.7425147 16.5009413,93.0495694 L26.9510204,86.8837394 C28.1288543,86.1892577 30.4243518,85.8266522 32.0384204,86.0817052 L46.3138272,88.3372344 C47.9278959,88.5922874 49.6036391,89.5786973 50.0368653,90.5297685 L53.8576802,98.9511276 C54.2969235,99.9006624 53.6846906,101.252751 52.4993354,101.951842 L42.047752,108.116135" id="Fill-5606" fill="#22201E"></path>
                <path d="M42.047752,108.117775 C40.8669096,108.809223 38.5789335,109.171849 36.9633605,108.919855 L22.6819367,106.661125 C21.0708766,106.406057 19.3996461,105.421128 18.9664199,104.468467 L15.1380837,96.0450954 C14.7063617,95.0908973 15.3216032,93.7418057 16.5009413,93.0488213 L26.9510204,86.8795698 C28.1288543,86.1865854 30.4243518,85.8270325 32.0384204,86.0820999 L46.3138272,88.3331469 C47.9278959,88.5928239 49.6036391,89.5823627 50.0368653,90.5319511 L53.8576802,98.9522495 C54.2969235,99.9079841 53.6846906,101.255539 52.4993354,101.946987 L42.047752,108.117775" id="Fill-5609" fill="#5E704A"></path>
                <path d="M42.047752,105.116039 C40.8669096,105.812097 38.5789335,106.173187 36.9633605,105.918119 L22.6819367,103.665534 C21.0708766,103.410466 19.3996461,102.420927 18.9664199,101.466728 L15.1380837,93.0464216 C14.7063617,92.0999055 15.3216032,90.746203 16.5009413,90.0486083 L26.9510204,83.8839609 C28.1288543,83.1879028 30.4243518,82.826813 32.0384204,83.0818807 L46.3138272,85.3406124 C47.9278959,85.5895339 49.6036391,86.5821466 50.0368653,87.5332724 L53.8576802,95.9535784 C54.2969235,96.9047042 53.6846906,98.253797 52.4993354,98.9498551 L42.047752,105.116039" id="Fill-5610" fill="#89AE4F"></path>
                <path d="M47.5019394,6.03035646 C45.4511938,4.83737094 43.3468439,3.77028609 41.1444748,2.91815358 C39.8258101,2.52509787 39.9728389,2.27790267 38.6235432,2 C29.9534378,6.22074282 25.5961776,16.0901262 32.1879694,26.6550339 C32.982844,27.9247881 36.2358565,33.7423198 39.1304863,32.9208947 C47.5586068,30.5042162 41.1536641,27.415044 42.5198068,27.7528262 C44.861547,28.3040254 48.6215026,25.6232626 48.7241165,22.6016468 C49.7303449,21.5668048 50.4226056,20.5288921 51,19.477161 C49.6798038,15.0307182 48.2631199,10.6057706 47.5019394,6.03035646" id="Fill-5612" fill="#E0AD9C"></path>
                <path d="M56.3232192,27 C63.5348448,27.6399574 64.5339585,33.7068136 63.7962408,39.8635935 C63.4622348,42.6002732 60.20495,70.9307529 55.5245091,68.8954786 C50.1513688,66.5544634 54.8172877,37.2498096 56.1809036,32.8045785 L56.3232192,27" id="Fill-5613" fill="#75B720"></path>
                <path d="M33.306849,106 C29.6881207,106 26.4362182,105.272443 24,104 L36,105.868852 C35.0852573,105.956284 34.1859925,106 33.306849,106" id="Fill-5614" fill="#536543"></path>
                <path d="M35.9282341,105 L24.3172434,103.169135 C21.9345417,101.907261 20.3635461,100.09934 20.0550379,97.9243278 C19.3286958,92.8034133 25.8762582,87.6014329 34.683718,86.2982611 C36.0480431,86.0963613 37.3854112,86 38.6748557,86 C45.7166302,86 51.33118,88.8770729 51.9452012,93.2056835 C52.6700457,98.3235389 46.119488,103.527049 37.3120282,104.830221 C36.8477683,104.89905 36.385006,104.955643 35.9282341,105" id="Fill-5615" fill="#799C47"></path>
                <path d="M28.0472967,83.9594245 C27.6418173,82.9997004 9.29158915,76.3565147 3.38469979,80.1709595 C-1.16246176,83.106676 6.94560135,91.7350236 6.94560135,91.7350236 C14.7731825,100.154005 23.5047082,103.824796 30,105 L28.0472967,83.9594245" id="Fill-5616" fill="#365765"></path>
                <path d="M14.7143723,77.4947935 C14.3505442,77.5601542 13.7742283,77.4565336 13.0924329,77.2445098 C12.427453,76.5685843 11.4368623,76.2529399 10.7520095,75.5865794 C9.84243934,74.7050067 6.94251566,74.4116806 6.35702764,74.0593704 C5.52542064,73.6464819 2.56893546,75.5132478 2.05376715,75.7730965 C1.37502909,76.1110593 0.725336116,76.5574252 0.00532343707,76.8140855 C-0.0711110299,77.7689897 0.697819708,78.8673686 0.882791118,79.8079253 C1.07846335,80.7755827 1.25579132,81.8914974 1.41171763,82.8575607 C1.55847181,82.9308923 1.41171763,82.8575607 1.81834899,82.8782848 L1.81070555,82.9500222 C3.02907095,82.9133565 3.69710819,80.214437 3.79035824,79.6230023 C3.82093203,79.4030076 5.00413758,79.3727185 5.04541219,79.1288115 C5.37560909,79.4906867 10.2765871,82.6837969 11.1815712,82.8591549 C13.3660683,83.3517515 14.7250731,82.481338 16,81.3478875 C15.350307,79.8190844 15.3610079,77.3800137 14.7143723,77.4947935" id="Fill-5617" fill="#F0CAB2"></path>
                <path d="M62.8275199,36.5169451 C63.1798737,33.6474018 64.1556226,24.7705061 51.4964855,27.5224945 C52.9887187,29.6882159 46.5379345,33.0731918 41.9513124,32.2668863 C39.5751832,34.636068 34.2507264,39.0971226 32.7027791,40.8860658 C32.7027791,40.8860658 26.8949651,50.5858453 29.8267291,55.2383032 C32.1938236,60.2871319 32.4979923,58.2465008 34.597057,62.9230726 C35.375548,64.6411814 36.2850423,65.9764836 36.7066622,67.5303171 C37.2080887,69.5257348 37.0002903,72.5625676 36.5229564,73.9084195 C36.4431498,75.0266974 35.9989431,76.4403694 35.5201034,77.2783243 L35.3589843,77.4968557 L35.4914935,77.594818 L35.5818406,77.7048373 C37.5755003,88.8228101 54.4929983,85.767892 57.3539903,78.2775402 C57.8042202,77.0839067 57.9081193,75.7877895 57.5376962,74.3982313 C56.7305952,72.8323408 56.1102117,71.1639667 56.0740728,69.2680185 C55.6268546,53.5412939 61.922543,44.3720182 62.8275199,36.5169451" id="Fill-5618" fill="#90E129"></path>
                <path d="M36.1903362,41 C24.9584596,41.0044937 30.7536461,59.2264296 27.0547525,69.3522237 C16.1464342,74.6038561 16.3302396,76.5466305 13.7281021,75.460654 C13.7281021,75.460654 9.98363687,74.6922321 13.5184728,81.323429 C14.2643277,82.7209683 25.9078676,85.4726079 35.5720817,78.074487 C38.0663664,76.1646664 41.5282878,41 36.1903362,41" id="Fill-5619" fill="#88CF2D"></path>
                <path d="M52.0569419,96.8837078 C42.4011963,104.525455 33.6583797,104.131933 29.1530752,103.912155 C23.1323085,103.600308 19.9020614,84.2345819 27.2024502,83.4668432 C29.9138493,81.9402758 30.9941486,80.5577522 34.6306491,79 L34.7645453,79.0965242 L34.8558382,79.2049283 C36.8703682,90.1596832 53.9649635,87.1496129 56.8559053,79.7692237 C61.6244377,88.6524206 57.7368817,92.3886498 52.0569419,96.8837078" id="Fill-5620" fill="#365765"></path>
                <path d="M36.5586282,37 C33.9758667,32.5058327 40.9934623,26.3600433 44.4530505,24.8541526 C46.7316068,23.8606721 51.683888,23.1038092 52.7948333,26.3522083 C53.9773563,29.81372 49.7751497,33.2595616 47.1700201,34.1731249 C44.8467278,34.987967 44.4515593,34.6965042 42.0596716,34.8061945 C40.8517982,34.8626066 39.7035728,35.3750169 38.3629824,35.8607881 L36.5586282,37" id="Fill-5621" fill="#7ABC26"></path>
                <path d="M30.3888307,21.7782617 L30.569128,21.8464783 C31.2054712,22.719651 32.0190815,23.4579064 32.9039017,24.1249133 C38.0613122,26.1153225 48.4943114,24.5311811 51.0957433,21.1809874 C53.3244598,18.3098259 52.9729559,12.6205602 52.9881069,7.84691311 C52.8123549,7.21325656 52.6032707,6.6281096 52.342673,6.12785442 C49.3745863,0.50528946 42.3899615,-1.60336189 36.6886289,1.30114996 C36.1901601,1.54369793 35.6992667,1.81050069 35.2341301,2.09701047 C27.5722543,6.52351079 22.3784812,13.934867 29.1070536,18.9616735 C29.2888659,20.0516234 29.7630932,20.9717898 30.3888307,21.7782617" id="Fill-5622" fill="#902E21"></path>
                <path d="M30.475669,21.767559 L30.6598731,21.835874 C31.3100053,22.7103072 32.1412456,23.4496282 33.0452389,24.117598 C35.2371129,24.9480059 38.3561991,25.165096 41.4551622,24.882727 C41.040316,24.5836587 40.6301136,24.278518 40.2895682,23.889881 C37.1766737,20.3420508 35.4631112,14.8237097 38.47539,10.585138 C39.8112567,8.69964157 41.2926292,7.2164451 43,6.08848708 C41.4458746,6.17653764 39.3886709,6.84906173 38.4955132,7.09803228 C35.0436212,8.02863559 31.9895481,9.93842185 28.6289842,10.9494852 C29.1877883,9.027554 32.9895133,7.32574924 34.6814047,6.57580138 C35.9677375,5.99891841 37.3825489,5.45847015 38.8314147,5 C35.5095492,5.38863695 32.1923274,6.13251236 28.8271197,7.27109717 C25.4325013,11.1574666 24.5780419,15.5842844 29.1661172,18.9469049 C29.3518692,20.0384282 29.8363725,20.9599228 30.475669,21.767559" id="Fill-5623" fill="#7E231B"></path>
                <path d="M41.4912713,6 C41.5734019,9.6745599 46.1055166,9.87460758 48.6664974,9.58732107 C48.1438483,14.0605676 50.5256351,18.7308535 47.1508149,22.7017246 C45.3827675,24.7789113 42.2677786,25.106809 39.6933583,24.9744467 C31.8730337,24.5788637 32.7570574,17.2387686 33.4066357,11.0583483 L41.4912713,6" id="Fill-5624" fill="#7E231B"></path>
                <path d="M55.4008444,8.83051171 C53.7823442,5.24538582 50.8009747,1.26106289 46.5325334,2.11757761 C46.5325334,2.11757761 43.8201709,3.79542876 43.1602865,5.35856812 C41.4986858,9.29088837 41.9564434,14.9071777 42.4899986,19.0536267 C42.9670771,22.7626413 44.0460772,26.4257712 46.4299838,29.3302738 C47.3395542,30.4406839 49.5020131,32.3693716 47.0958131,33.5164895 C48.021732,34.0900484 48.6504056,33.1830605 48.9521095,32.3464292 C48.9208987,32.6477388 49.0843836,32.9888152 49.0977596,33.277889 C49.9122115,33.1616477 50.474005,32.3219573 50.7549017,31.6076853 C53.5519791,34.5641905 53.5935935,39.0410094 49.8007446,40 C54.8821515,39.9739987 56.9242261,34.0181624 55.6698513,29.708058 C55.0604986,27.6050084 54.7647396,26.6169575 55.5048802,24.4420219 C57.285379,19.2111642 57.738678,14.0124258 55.4008444,8.83051171" id="Fill-5625" fill="#902E21"></path>
                <path d="M24.6959559,130.123007 C23.7399265,129.481958 21.9379946,131.517764 21.5150434,132.285753 C20.8159768,133.556743 20.8734343,135.657606 21.4176848,137 C21.8661727,136.94129 26.0206711,135.870231 25.9999225,135.429113 L24.6959559,130.123007" id="Fill-5627" fill="#171C1E"></path>
                <path d="M29.4848908,124 C29.3340491,124.031242 29.1803342,124.064047 29.0338023,124.106224 C27.3055876,124.620158 25.6750609,125.402775 24,126.055737 C24.5344105,127.680332 25.4854314,129.128409 27.1633655,128.990943 C28.9849583,128.842543 30.3008724,127.44914 29.940289,125.344977 C29.8584035,124.871658 29.686013,124.428018 29.4848908,124" id="Fill-5628" fill="#21272A"></path>
                <path d="M24,127.612931 L25.3330064,133 L30,131.71816 L29.4820991,126 C29.4820991,126 28.5978421,127.161857 27.1500736,127.59015 C25.7008337,128.016923 24,127.612931 24,127.612931" id="Fill-5629" fill="#171C1E"></path>
            </g>
        </g>
    </g>
</svg>