<?xml version="1.0" encoding="UTF-8"?>
<svg width="74px" height="208px" viewBox="0 0 74 208" version="1.1" xmlns="http://www.w3.org/2000/svg" xmlns:xlink="http://www.w3.org/1999/xlink">
    <!-- Generator: Sketch 49.2 (51160) - http://www.bohemiancoding.com/sketch -->
    <title>Sushi DUDE</title>
    <desc>Created with Sketch.</desc>
    <defs>
        <path d="M31.1563043,23.976 C22.0657609,23.976 19.4018478,17.6268 15.4908696,11.4096 C-1.4001087,8.874 -2.10793478,3.39 5.98184783,1.7664 L33.3933696,0.3456 C65.3543478,5.7264 54.6353261,18.516 38.9567391,22.7784 C35.911413,23.6076 33.3479348,23.976 31.1563043,23.976" id="path-1"></path>
    </defs>
    <g id="Page-1" stroke="none" stroke-width="1" fill="none" fill-rule="evenodd">
        <g id="Home" transform="translate(-979.000000, -241.000000)">
            <g id="Sushi-DUDE" transform="translate(979.000000, 241.000000)">
                <path d="M8.39341292,29.6375691 L9.06228668,28.7522282 C9.19155484,28.58041 9.40502519,28.4897282 9.61968148,28.5123986 C9.8272221,28.5374554 9.98732486,28.6901827 10.0430643,28.8906372 C10.2114687,29.4943872 10.6739878,30.6732509 11.7152487,30.4095577 C11.3215145,31.2746145 11.6571374,31.8676259 11.6571374,31.8676259 C11.6571374,31.8676259 11.4472248,33.3066032 9.37893436,32.0668872 C7.31064388,30.8295577 8.39341292,29.6375691 8.39341292,29.6375691 Z M32.1099686,35.6225691 C30.4093215,38.1413759 25.3524461,47.6534213 20.533946,53.819785 C17.659212,49.08166 13.9732906,43.7827395 11.0653501,39.0505804 L11.8101244,37.7846145 C11.8101244,37.7846145 15.1651667,31.5669441 14.3800702,30.1864327 C13.5973456,28.803535 12.30585,29.013535 12.30585,29.013535 L11.8955126,27.3657509 C11.7733601,26.8801259 11.4306216,26.4768304 10.9728463,26.2811486 L9.2366208,25.5377963 C8.7942628,25.3492736 8.27126045,25.43041 7.92615005,25.7752395 C7.56087857,26.1379668 7.0248308,26.7071145 6.31919271,27.5399554 C5.96459474,23.4676259 5.0941101,19.7818872 4.43472392,19.1029668 C3.77533773,18.4228532 0.332535395,21.2029668 0.209196971,24.7562622 C0.197337508,25.1070577 0.222242382,25.548535 0.273238076,26.0520577 C0.304072682,26.3789895 0.283911593,26.7142736 0.172432634,27.018535 C-0.039851768,27.5900691 -0.0552690709,28.2152963 0.121436939,28.7999554 C0.121436939,28.7999554 3.65674309,40.7305804 3.86784155,40.8045577 C6.51250197,48.3323418 14.9991342,68.4458077 19.6433003,68.4458077 L19.6456722,68.4458077 C26.5822725,68.4458077 35.6820391,60.014785 42.7692546,43.3567736 C48.4108016,30.0826259 35.3618336,30.8104668 32.1099686,35.6225691 Z" id="Fill-41" fill="#E2CDB5"></path>
                <path d="M30.8030328,35.4440128 C29.2850214,37.6931606 25.2824524,45.1648651 21,51.2441265 C22.5108957,56.7781037 25.731926,60.4817401 30.5610997,62.9253765 C35.7484292,57.4653765 39.5458295,50.6892969 42.4988359,43.7485583 C48.3989192,29.8635015 34.5055574,29.9696947 30.8030328,35.4440128" id="Fill-42" fill="#36C0D1"></path>
                <g id="Group-45" transform="translate(18.000000, 186.000000)">
                    <mask id="mask-2" fill="white">
                        <use xlink:href="#path-1"></use>
                    </mask>
                    <g id="Clip-44"></g>
                    <path d="M31.1563043,23.976 C22.0657609,23.976 19.4018478,17.6268 15.4908696,11.4096 C-1.4001087,8.874 -2.10793478,3.39 5.98184783,1.7664 L33.3933696,0.3456 C65.3543478,5.7264 54.6353261,18.516 38.9567391,22.7784 C35.911413,23.6076 33.3479348,23.976 31.1563043,23.976" id="Fill-43" mask="url(#mask-2)"></path>
                </g>
                <path d="M51.4048834,29 C51.4048834,29 51.103653,32.6010227 51.0016616,32.8468182 C50.9020421,33.0914205 55.3149486,34.8060227 55.3149486,34.8060227 L55.3149486,29.6061364 L51.4048834,29" id="Fill-46" fill="#2BA6B5"></path>
                <path d="M40.5854344,178 C39.024729,178.65267 33.9690396,179.967557 29.6521948,181.859943 C28.0381217,182.561534 25.8026128,182.234602 24.228862,186.162557 C24.0972219,186.495455 24.4399604,186.933352 24.1067095,187.359318 C23.2955222,188.389034 22.5127976,189.657386 23.3773525,190.312443 C25.2914699,191.762159 28.4698062,191.584375 34.5857317,190.384034 C42.7367412,188.783977 46.0324861,190.764659 49.9010432,190.004602 C51.8222764,189.626364 53.2537136,187.965455 53.2608293,185.997898 C53.2703169,183.948011 52.4698031,180.777727 52.2219403,179.816023 C51.8685283,178.448636 43.5823209,178.005966 43.5823209,178.005966 L40.5854344,178" id="Fill-47" fill="#363636"></path>
                <path d="M66.6173502,185.510397 C65.825138,184.091703 55.829982,186.080738 55.829982,186.080738 C54.8100681,188.533919 53.3632135,192.421306 48.9467492,197.289488 C42.2615695,204.646647 45.6474464,206.888635 47.7003195,205.033238 C47.9932483,204.767158 47.9375088,205.082158 48.0122234,205.471135 C48.2173922,206.623749 49.5397224,207.529374 50.6995779,207.641533 C55.4030413,208.08301 59.0771032,205.43176 62.5033022,202.171988 C64.9356783,199.860794 67.6669128,198.185567 68.0167669,197.24176 C69.3141923,193.729033 67.4048186,186.938635 66.6173502,185.510397" id="Fill-48" fill="#515151"></path>
                <path d="M36.8327625,88.8288068 C34.9506656,97.4519318 36.5872716,124.902273 38.4930875,136.218409 C39.9209669,144.661364 40.4546428,174.32267 37.109088,178.738636 C40.249474,181.892216 49.8888462,183.654545 53.6506681,181.342159 C54.0716791,173.345455 54.5804501,152.507727 52.9094516,141.777443 C51.2360813,131.051932 53.0031414,119.972045 54.0455883,116.394886 C55.0927789,112.816534 52.5809445,84 52.5809445,84 L36.8327625,88.8288068" id="Fill-49" fill="#2BA6B5"></path>
                <path d="M68.6780609,141.150511 C62.1814466,112.909091 64.6316119,101.536875 61.5291761,91.0726705 C61.5291761,91.0726705 56.579036,91.7432386 46.3075544,91.7432386 C40.8806638,91.7432386 38,90 38,90 C38,97.4120455 38.7993279,100.201705 41.6847354,105.98983 C44.8215636,112.276705 52.1044603,143.053636 53.7790166,149.826136 C57.0012329,162.831818 56.7604858,182.481136 55.5045685,186.585682 C58.3271209,190.057841 64.7371611,192.828409 69.2840795,190.30483 C72.2619909,183.838977 72.7624602,158.90625 68.6780609,141.150511" id="Fill-50" fill="#37DAEE"></path>
                <path d="M33.7832424,89.2148478 C33.7832424,89.2148478 52.8651196,98.8855864 61.6743293,91.6358137 C60.2488217,69.4485978 69.2157623,55.5707 66.0896076,40.5628591 C64.6332655,33.579166 46.1929853,28.6262682 37.0173181,32.18195 C34.3501247,33.2140523 32.2711607,36.7410978 32.1798429,39.7538819 C31.845406,50.6905864 31.7801789,66.4024046 33.7832424,89.2148478" id="Fill-51" fill="#37DAEE"></path>
                <path d="M41.8832828,50.4764867 L56.7894429,33.2290435 C51.5594193,31.3247253 45.0699208,30.4739867 40,31.3378503 C40.7803527,39.3906344 41.8832828,50.4764867 41.8832828,50.4764867" id="Fill-52" fill="#F4E4D0"></path>
                <path d="M40.7822302,38 L38,44.8894318 C38.0711568,45.5707386 42.0618663,53.2918182 42.5884265,54.0494886 C43.1161727,54.8071591 50.9422328,38.6813068 50.9422328,38.6813068 L40.7822302,38" id="Fill-53" fill="#FFFFFF"></path>
                <path d="M44.2924343,23.5913802 C44.3564755,22.6821756 44.9838411,22.0533688 45.1202249,21.3625165 C45.2625385,20.6645052 50.4498679,20.7372892 53.433709,20.1096756 C56.4187361,19.4749029 53.9282487,21.7097324 54.5473127,23.8717779 C53.6436215,25.7259824 54.031426,29.8603574 54.1784834,32.2944483 C53.4847047,34.3228574 47.0355283,38.5156983 43.813312,36.1854142 C42.3628996,34.7810392 42.1411276,30.0106983 42,27.291437 L44.2924343,23.5913802" id="Fill-54" fill="#E2CDB5"></path>
                <path d="M36.1165705,7.38124226 C36.2493965,4.56891271 36.9313157,6.92186726 36.9313157,6.92186726 L51.6785589,6.48516271 L54.1429554,13.7301627 C52.8301128,21.8509582 53.6092796,20.7842536 50.9539456,26.2585718 C49.3256413,29.4897082 44.7621196,30.6900491 41.3015281,30.4907877 C39.3968982,30.3905604 37.8670273,28.8776059 37.4211115,26.9172082 C37.1862941,25.8576627 35.9208893,19.3440832 36.0039056,13.2851059 C36.0549013,9.86902635 36.1165705,7.38124226 36.1165705,7.38124226" id="Fill-55" fill="#F4E4D0"></path>
                <path d="M35.8171454,16.8514246 C35.4803366,15.0544928 35.2158706,12.8817087 35.0403505,10.5550042 C34.7652109,6.96472007 35.7412448,1.91398144 42.8782701,0.32704962 C49.2562897,-1.09522311 57.566216,2.19318598 57.8662604,8.79267462 C58.0821027,13.6620496 57.6919263,14.819436 56.2249106,19.6279587 C55.1255383,22.668186 53.7877908,24.5402883 53.6146427,26.7560269 C52.2638497,25.0104019 52.478506,22.221936 52.478506,20.2686973 C52.478506,18.3166519 51.5404224,17.8560837 51.1241553,18.9036973 C50.709074,19.9525042 49.5551482,21.4105723 49.0558648,15.2012542 C48.5542095,8.99790189 43.5969536,7.72000417 40.9724543,7.58278826 C38.3337236,7.44079962 36.0258719,7.25108371 35.8456081,10.6480723 C35.6368815,14.4925042 35.8171454,16.8514246 35.8171454,16.8514246" id="Fill-56" fill="#636363"></path>
                <path d="M38.5547757,16 C39.2936203,18.3446023 38.4859908,20.5663068 37.5680683,22.1961932 C38.2001777,22.7903977 39.3730787,23.3392614 40.362158,23.2461932 C39.4394917,23.5647727 37.9689182,23.2521591 37,22.2844886 C37.8171171,20.7846591 38.7065768,19.4399432 38.5547757,16" id="Fill-57" fill="#E2CDB5"></path>
                <path d="M39,26.1525745 C40.2262686,26.8147904 41.7893459,26.8243359 42.9658047,26.0093927 C41.5806193,25.9926881 40.3887432,25.97837 39,26.1525745" id="Fill-58" fill="#E2CDB5"></path>
                <path d="M40.0607447,13.9596277 C39.9314765,13.7758777 40.0180506,13.508605 40.230335,13.4143436 C41.158931,12.99673 42.176473,12.9000822 43.1359036,13.1005368 C44.2305321,13.3427527 45.1555703,13.9918436 45.8683241,14.7602527 C45.0583227,14.086105 44.077545,13.6016732 43.0742344,13.52173 C42.1871465,13.4465595 41.3000586,13.67923 40.5884908,14.1063891 C40.407041,14.2221277 40.1734096,14.1326391 40.0607447,13.9596277" id="Fill-59" fill="#636363"></path>
                <path d="M37.4952312,14.0304534 C37.34343,14.1712489 37.1145424,14.2010784 36.9769726,14.0447716 C36.746899,13.778692 36.458714,13.5400557 36.1562977,13.4207375 C35.7376586,13.214317 35.2502347,13.4839761 35,13.9672148 C35.0747146,13.7142602 35.1873795,13.4601125 35.3925483,13.2632375 C35.6131343,13.0508511 35.9475712,12.9756807 36.2440578,13.0067034 C36.6994612,13.0675557 37.0742202,13.240567 37.4383058,13.4875557 C37.6292431,13.6092602 37.6624496,13.8717602 37.4952312,14.0304534" id="Fill-60" fill="#636363"></path>
                <path d="M35.1662606,11.7125019 C35.1662606,11.7125019 34.6373285,10.0456269 35.466305,6.56392233 C36.5929541,5.72988824 52.6969199,4.21812687 57.8878072,15.7215928 C57.361247,17.8430701 56.5144813,19.8667064 56.5144813,19.8667064 C56.5144813,19.8667064 47.5060326,8.45630869 35.1662606,11.7125019" id="Fill-61" fill="#FFFFFF"></path>
                <path d="M54.8078981,20.1248422 C55.1304755,18.7085354 54.4426266,17.3244445 53.2649819,17.0500127 C52.0968247,16.7696149 50.8919032,17.6967172 50.5693258,19.1177967 C50.4874955,19.4447286 50.1945667,20.7429104 50.1091786,21.1354672 C49.790159,22.5350695 50.1945667,23.824899 51.005754,24.0205808 C52.5688314,24.3845013 54.5659651,21.199899 54.8078981,20.1248422" id="Fill-62" fill="#F4E4D0"></path>
                <path d="M40.914809,8.19426136 C40.914809,9.40653409 40.0383946,10.3885227 38.9579975,10.3885227 C37.8776003,10.3885227 37,9.40653409 37,8.19426136 C37,6.97960227 37.8776003,6 38.9579975,6 C40.0383946,6 40.914809,6.97960227 40.914809,8.19426136" id="Fill-63" fill="#F85D56"></path>
                <polyline id="Fill-64" fill="#36C0D1" points="56.1435965 30 42 52.6346591 46.5896125 54.7561364 59.4547588 34.4672727 56.1435965 30"></polyline>
                <polyline id="Fill-65" fill="#36C0D1" points="41.1377669 31 39.3327565 32.0595455 38.5073378 36.9802273 37 56.2083523 44.8272461 56.8896591 41.1377669 31"></polyline>
                <path d="M33,73.3059091 C33.0237189,73.7605114 33.0486238,74.2186932 33.0747146,74.6792614 C36.4748229,69.5855682 52.6013217,45.4391477 59.3552864,35.328125 C59.1026798,35.2159659 58.8453294,35.1085795 58.5867931,35 C58.1052989,35.6920455 39.6650186,62.0625568 33,73.3059091" id="Fill-66" fill="#2BA6B5"></path>
                <path d="M40.149182,54.378125 L40.7504569,53.3173864 L39.5514651,32 C39.3628996,32.0429545 39.1861936,32.0930682 39,32.1419886 L40.149182,54.378125" id="Fill-67" fill="#2BA6B5"></path>
                <path d="M61.7969027,92.301875 L50.8612912,95.7346591 L37.0165532,92.7063636 L33.9058158,92 L32,102.193352 C32,102.193352 44.4417634,110.876136 64.1011966,103.003523 C63.6007272,99.8726136 61.7969027,92.301875 61.7969027,92.301875" id="Fill-68" fill="#36C0D1"></path>
                <path d="M33.5016553,88 C33.0011859,89.1752841 33,91.9375 33,91.9375 C33,91.9375 49.7538645,100.617898 62.7969027,92.7440909 L62.3948669,89.0094318 C56.7770389,92.0365341 44.3376474,93.7153409 33.5016553,88" id="Fill-69" fill="#2BA6B5"></path>
                <path d="M55.6889684,104.785074 C54.3547788,105.873256 52.447777,108.804904 53.1510432,111.842745 C53.6266077,113.932006 54.3701961,116.271836 54.8303433,117.896949 C55.0426277,118.625983 55.9961286,119.008995 56.2854995,118.305017 C56.7883407,117.061722 56.9579311,115.147858 56.6317958,113.472631 C56.1265827,110.913256 58.8673047,109.91337 59.1341427,108.141495 C59.3950509,106.372006 58.7427804,102.293711 55.6889684,104.785074" id="Fill-70" fill="#E2CDB5"></path>
                <path d="M56.059669,108.253412 C55.90431,107.443241 55.9896981,104.266991 57.0843267,102.425912 L57.0629796,102.403241 C63.4552306,91.6097185 60.1464402,59.9259685 58.425632,45.3011389 C58.0069929,41.7394912 60.8924005,37.7292071 64.4502396,38.0143776 C68.7492952,38.3484685 70.1961498,42.3384685 71.0630766,46.5921617 C74.924518,65.5375026 68.8726337,96.4623889 65.4013686,102.647843 C66.6881204,104.681025 64.8309284,104.943525 68.6899979,114.04273 C68.821638,114.346991 68.7504812,114.706139 68.5085481,114.937616 C67.780377,116.174946 67.13878,117.201082 66.5742696,118.049434 C66.3916338,118.323866 66.0512672,118.445571 65.7322476,118.360855 L64.1857736,117.952787 C63.8394772,117.863298 63.5204576,117.671196 63.2785246,117.401537 L61.2944363,115.2204 L61.1473789,115.321821 L62.4104118,118.141309 C62.5645849,118.476593 62.7816131,118.774889 63.0579386,119.017105 L64.3126698,120.149434 C64.5569748,120.366593 64.5178386,120.753184 64.2747195,120.97273 C63.6663291,121.5204 63.2500619,121.614662 62.9559472,121.401082 C59.154989,118.628128 57.5978414,116.257275 56.059669,108.253412" id="Fill-71" fill="#F4E4D0"></path>
                <path d="M57.0431205,44.6917348 C56.1631483,38.6172462 69.0045757,30.6038371 72.4414483,45.4303144 C73.6819482,50.8187235 73.6262087,58.9920189 73.597746,64.7073598 C72.5458116,64.8565075 71.9054005,64.9698598 71.9054005,64.9698598 C67.5257006,65.5437803 63.6405402,65.2049166 59.796888,64.2444053 C59.2098446,57.8680416 57.4641315,47.6377007 57.0431205,44.6917348" id="Fill-72" fill="#56EDFF"></path>
            </g>
        </g>
    </g>
</svg>