<?xml version="1.0" encoding="UTF-8"?>
<svg width="260px" height="29px" viewBox="0 0 260 29" version="1.1" xmlns="http://www.w3.org/2000/svg" xmlns:xlink="http://www.w3.org/1999/xlink">
    <!-- Generator: Sketch 49.2 (51160) - http://www.bohemiancoding.com/sketch -->
    <title>logo</title>
    <desc>Created with Sketch.</desc>
    <defs>
        <path d="M16.1661342,0.0518525327 C5.3887114,-0.465259718 3.53601242e-16,2.88540073 0,10.1038339 C0,17.322267 5.3887114,20.6729275 16.1661342,20.1558152" id="path-1"></path>
    </defs>
    <g id="Page-1" stroke="none" stroke-width="1" fill="none" fill-rule="evenodd">
        <g id="logo" transform="translate(2.000000, 0.000000)">
            <g id="Mark" transform="translate(0.000000, 6.466454)" stroke="#FFFFFF" stroke-linecap="round">
                <g id="Path-2">
                    <use stroke-width="4" xlink:href="#path-1"></use>
                    <use stroke-width="1" xlink:href="#path-1"></use>
                </g>
                <path d="M42.8402546,0.0518527914 C32.0628318,-0.465259459 26.6741204,2.88540099 26.6741204,10.1038342 C26.6741204,17.3222673 32.0628318,20.6729278 42.8402546,20.1558155" id="Path-2" stroke-width="4" transform="translate(34.757188, 10.103834) rotate(-180.000000) translate(-34.757188, -10.103834) "></path>
                <path d="M14.6816478,10.1038339 L28.1586078,10.1038339" id="Line" stroke-width="3"></path>
            </g>
            <path d="M61.5103387,21.5785559 C62.0535208,23.5572907 64.2262492,25.3032332 67.1361534,25.3032332 C70.6668371,25.3032332 72.5291757,23.1693035 72.5291757,20.9965751 C72.5679744,18.358262 70.2788498,17.1943003 67.9897252,16.6123195 L64.536639,15.7587476 C58.8720256,14.3619936 58.0184537,11.0641022 58.0184537,8.77497764 C58.0184537,4.27432588 62.1311182,1.24802556 66.6705687,1.24802556 C70.9384281,1.24802556 74.0035272,3.45955272 74.9734952,6.91263898 C75.0510927,7.18423003 75.0898914,7.49461981 75.0898914,7.80500958 C75.0898914,8.65858147 74.6631054,9.43455591 73.3051502,9.43455591 C72.6455719,9.43455591 71.9083962,9.16296486 71.6368051,8.19299681 C70.9772268,5.70987859 69.0760895,4.70111182 66.63177,4.70111182 C64.0322556,4.70111182 61.6267348,6.29185942 61.6267348,8.73617891 C61.6267348,9.90014058 62.0535208,11.6460831 65.4290096,12.4608562 L68.9208946,13.3144281 C73.4991438,14.4395911 76.1374569,17.0003067 76.1374569,20.6473866 C76.1374569,24.9540447 72.8783642,28.678722 67.1361534,28.678722 C62.441508,28.678722 59.2988115,26.1568051 58.2124473,22.7425176 C58.1348498,22.4709265 58.0960511,22.1993355 58.0960511,21.9665431 C58.0960511,20.8801789 58.949623,20.2981981 59.8807923,20.2981981 C60.6567668,20.2981981 61.2775463,20.8413802 61.5103387,21.5785559 Z M93.1700958,26.6999872 L93.1700958,25.5748243 C92.0837316,27.7475527 89.4842173,28.678722 87.5054824,28.678722 C83.0048307,28.678722 80.5217125,25.7300192 80.5217125,20.6473866 L80.5217125,11.7624792 C80.5217125,10.7925112 81.2976869,9.97773802 82.3064537,9.97773802 C83.2764217,9.97773802 84.0523962,10.7925112 84.0523962,11.7624792 L84.0523962,20.4145942 C84.0523962,23.4408946 85.5655463,25.2256358 88.0486645,25.2256358 C90.6093802,25.2256358 93.1700958,23.7900831 93.1700958,19.9490096 L93.1700958,11.7624792 C93.1700958,10.7925112 93.9460703,9.97773802 94.9548371,9.97773802 C95.9248051,9.97773802 96.7007796,10.7925112 96.7007796,11.7624792 L96.7007796,26.6999872 C96.7007796,27.6699553 95.9248051,28.4847284 94.9548371,28.4847284 C93.9460703,28.4847284 93.1700958,27.6699553 93.1700958,26.6999872 Z M104.382927,23.4020958 C104.88731,24.7212524 106.322863,25.5748243 108.146403,25.5748243 C109.969942,25.5748243 111.327898,24.6048562 111.327898,23.1693035 C111.327898,21.850147 110.280332,21.1905687 108.922377,20.8801789 L106.439259,20.2981981 C103.37416,19.4834249 101.55062,17.9702748 101.55062,15.0991693 C101.55062,12.1116677 104.227732,9.78374441 107.874812,9.78374441 C110.241534,9.78374441 112.530658,10.6373163 113.578224,12.7324473 C113.733419,13.0040383 113.772217,13.3144281 113.772217,13.5472204 C113.772217,14.7111821 112.647054,15.1379681 112.103872,15.1379681 C111.599489,15.1379681 111.211502,14.866377 110.823514,14.3619936 C110.008741,13.2756294 109.077572,12.8488435 107.952409,12.8488435 C106.245265,12.8488435 105.120102,13.8576102 105.120102,15.2155655 C105.120102,16.3795272 106.245265,17.0391054 107.409227,17.3106965 L110.086339,17.9702748 C113.849815,18.9014441 114.780984,21.1905687 114.780984,23.246901 C114.780984,26.6223898 111.521891,28.678722 107.758415,28.678722 C104.964907,28.678722 102.093802,27.1267732 101.24023,24.3332652 C101.201431,24.1392716 101.162633,23.945278 101.162633,23.7900831 C101.162633,22.8589137 102.055003,22.3933291 102.869776,22.3933291 C103.490556,22.3933291 104.111335,22.7037188 104.382927,23.4020958 Z M135.965086,17.8150799 L135.965086,26.6999872 C135.965086,27.6699553 135.189112,28.4847284 134.180345,28.4847284 C133.210377,28.4847284 132.434403,27.6699553 132.434403,26.6999872 L132.434403,18.0478722 C132.434403,15.0603706 130.649661,13.2368307 128.166543,13.2368307 C125.683425,13.2368307 122.657125,14.6335847 122.657125,18.5134569 L122.657125,26.6999872 C122.657125,27.6699553 121.88115,28.4847284 120.872383,28.4847284 C119.902415,28.4847284 119.126441,27.6699553 119.126441,26.6999872 L119.126441,1.90760383 C119.126441,0.937635783 119.902415,0.12286262 120.872383,0.12286262 C121.88115,0.12286262 122.657125,0.937635783 122.657125,1.90760383 L122.657125,12.8876422 C123.743489,10.7149137 126.653393,9.78374441 128.632128,9.78374441 C133.171578,9.78374441 136.003885,12.7324473 135.965086,17.8150799 Z M140.69853,3.53715016 C140.69853,2.21799361 141.823693,1.24802556 143.14285,1.24802556 C144.500805,1.24802556 145.587169,2.21799361 145.587169,3.53715016 C145.587169,4.85630671 144.500805,5.82627476 143.14285,5.82627476 C141.823693,5.82627476 140.69853,4.85630671 140.69853,3.53715016 Z M144.927591,26.6999872 C144.927591,27.6699553 144.151617,28.4847284 143.14285,28.4847284 C142.172882,28.4847284 141.396907,27.6699553 141.396907,26.6999872 L141.396907,11.7624792 C141.396907,10.7925112 142.172882,9.97773802 143.14285,9.97773802 C144.151617,9.97773802 144.927591,10.7925112 144.927591,11.7624792 L144.927591,26.6999872 Z M159.632307,14.9439744 C159.632307,7.33942492 165.60731,1.24802556 173.173061,1.24802556 C176.664946,1.24802556 179.768843,2.48958466 182.057968,4.58471565 C182.756345,5.20549521 182.872741,6.33065815 182.251962,7.10663259 C181.553585,7.88260703 180.428422,7.92140575 179.691246,7.3006262 C177.945304,5.74867732 175.733776,4.73991054 173.173061,4.73991054 C167.586045,4.73991054 163.240588,9.31815974 163.240588,14.9827732 C163.240588,20.6473866 167.586045,25.1868371 173.173061,25.1868371 C175.733776,25.1868371 177.945304,24.1780703 179.691246,22.6261214 C180.428422,22.0053419 181.553585,22.0441406 182.251962,22.820115 C182.872741,23.5960895 182.756345,24.7212524 182.057968,25.3420319 C179.768843,27.4371629 176.664946,28.678722 173.173061,28.678722 C165.60731,28.678722 159.632307,22.548524 159.632307,14.9439744 Z M203.55246,17.8150799 L203.55246,26.6999872 C203.55246,27.6699553 202.776486,28.4847284 201.767719,28.4847284 C200.797751,28.4847284 200.021776,27.6699553 200.021776,26.6999872 L200.021776,18.0478722 C200.021776,15.0603706 198.237035,13.2368307 195.753917,13.2368307 C193.270799,13.2368307 190.244498,14.6335847 190.244498,18.5134569 L190.244498,26.6999872 C190.244498,27.6699553 189.468524,28.4847284 188.459757,28.4847284 C187.489789,28.4847284 186.713815,27.6699553 186.713815,26.6999872 L186.713815,1.90760383 C186.713815,0.937635783 187.489789,0.12286262 188.459757,0.12286262 C189.468524,0.12286262 190.244498,0.937635783 190.244498,1.90760383 L190.244498,12.8876422 C191.330863,10.7149137 194.240767,9.78374441 196.219502,9.78374441 C200.758952,9.78374441 203.591259,12.7324473 203.55246,17.8150799 Z M223.495003,26.6999872 L223.495003,25.4972268 C222.292243,27.5535591 219.65393,28.678722 217.132013,28.678722 C212.165776,28.678722 207.936716,24.9540447 207.936716,19.2118339 C207.936716,13.4308243 212.165776,9.78374441 217.132013,9.78374441 C219.65393,9.78374441 222.292243,10.8313099 223.495003,12.8876422 L223.495003,11.7624792 C223.495003,10.7925112 224.270978,9.97773802 225.240946,9.97773802 C226.249712,9.97773802 227.025687,10.7925112 227.025687,11.7624792 L227.025687,26.6999872 C227.025687,27.6699553 226.249712,28.4847284 225.240946,28.4847284 C224.270978,28.4847284 223.495003,27.6699553 223.495003,26.6999872 Z M223.456204,19.1730351 C223.456204,15.2931629 220.352307,13.2368307 217.442403,13.2368307 C214.18331,13.2368307 211.544997,15.564754 211.544997,19.1730351 C211.544997,22.7425176 214.18331,25.2256358 217.442403,25.2256358 C220.662696,25.2256358 223.456204,23.0141086 223.456204,19.1730351 Z M231.914326,3.53715016 C231.914326,2.21799361 233.039489,1.24802556 234.358645,1.24802556 C235.716601,1.24802556 236.802965,2.21799361 236.802965,3.53715016 C236.802965,4.85630671 235.716601,5.82627476 234.358645,5.82627476 C233.039489,5.82627476 231.914326,4.85630671 231.914326,3.53715016 Z M236.143387,26.6999872 C236.143387,27.6699553 235.367412,28.4847284 234.358645,28.4847284 C233.388677,28.4847284 232.612703,27.6699553 232.612703,26.6999872 L232.612703,11.7624792 C232.612703,10.7925112 233.388677,9.97773802 234.358645,9.97773802 C235.367412,9.97773802 236.143387,10.7925112 236.143387,11.7624792 L236.143387,26.6999872 Z M245.261086,11.7624792 L245.261086,12.8876422 C246.34745,10.7149137 248.946965,9.78374441 250.9257,9.78374441 C255.426351,9.78374441 257.90947,12.7324473 257.90947,17.8150799 L257.90947,26.6999872 C257.90947,27.6699553 257.133495,28.4847284 256.124728,28.4847284 C255.15476,28.4847284 254.378786,27.6699553 254.378786,26.6999872 L254.378786,18.0478722 C254.378786,15.0215719 252.865636,13.2368307 250.382518,13.2368307 C247.821802,13.2368307 245.261086,14.6723834 245.261086,18.5134569 L245.261086,26.6999872 C245.261086,27.6699553 244.485112,28.4847284 243.476345,28.4847284 C242.506377,28.4847284 241.730403,27.6699553 241.730403,26.6999872 L241.730403,11.7624792 C241.730403,10.7925112 242.506377,9.97773802 243.476345,9.97773802 C244.485112,9.97773802 245.261086,10.7925112 245.261086,11.7624792 Z" id="Sushi-Chain" fill="#FFFFFF" fill-rule="nonzero"></path>
        </g>
    </g>
</svg>