<?xml version="1.0" encoding="UTF-8"?>
<svg width="35px" height="40px" viewBox="0 0 35 40" version="1.1" xmlns="http://www.w3.org/2000/svg" xmlns:xlink="http://www.w3.org/1999/xlink">
    <!-- Generator: Sketch 49.2 (51160) - http://www.bohemiancoding.com/sketch -->
    <title>Sushi</title>
    <desc>Created with Sketch.</desc>
    <defs>
        <path d="M31.994766,3.79811881 L23.9590638,8.42435644 C20.4115532,10.4667327 15.045234,10.6886139 11.9729787,8.91980198 L2.08510638,3.22722772 C0.754659574,2.46118812 0.0737234043,1.44742574 0.0162340426,0.378267327 L0.0162340426,19.8386139 L0.0177234043,19.8386139 C-0.0533191489,21.0224257 0.624191489,22.1622772 2.08510638,23.0034653 L11.9729787,28.6960396 C15.045234,30.4648515 20.4115532,30.2429703 23.9590638,28.2005941 L31.994617,23.5743564 C33.8551277,22.5032673 34.8442128,21.1442079 34.9225532,19.8386139 L34.9292553,19.8386139 L34.9292553,0.0623762376 L34.9225532,0.0623762376 C34.8442128,1.3679703 33.8551277,2.7270297 31.994766,3.79811881" id="path-1"></path>
    </defs>
    <g id="Page-1" stroke="none" stroke-width="1" fill="none" fill-rule="evenodd">
        <g id="Home" transform="translate(-971.000000, -345.000000)">
            <g id="Sushi" transform="translate(971.000000, 345.000000)">
                <g id="Group-277" transform="translate(0.000000, 10.000000)">
                    <mask id="mask-2" fill="white">
                        <use xlink:href="#path-1"></use>
                    </mask>
                    <use id="Clip-276" fill="#000000" xlink:href="#path-1"></use>
                    <path d="M31.994766,3.79811881 L23.9590638,8.42435644 C20.4115532,10.4667327 15.045234,10.6886139 11.9729787,8.91980198 L2.08510638,3.22722772 C0.754659574,2.46118812 0.0737234043,1.44742574 0.0162340426,0.378267327 L0.0162340426,19.8386139 L0.0177234043,19.8386139 C-0.0533191489,21.0224257 0.624191489,22.1622772 2.08510638,23.0034653 L11.9729787,28.6960396 C15.045234,30.4648515 20.4115532,30.2429703 23.9590638,28.2005941 L31.994617,23.5743564 C33.8551277,22.5032673 34.8442128,21.1442079 34.9225532,19.8386139 L34.9292553,19.8386139 L34.9292553,0.0623762376 L34.9225532,0.0623762376 C34.8442128,1.3679703 33.8551277,2.7270297 31.994766,3.79811881" id="Fill-275" fill="#3F464C" mask="url(#mask-2)"></path>
                </g>
                <path d="M5.44531189,6.92274084 L12.1147104,3.11203403 C15.0589979,1.42971431 19.5129772,1.24694341 22.0628218,2.70393925 L30.2695323,7.39303978 C32.8193769,8.85003563 32.4995825,11.3949394 29.5552951,13.0772592 L22.8858966,16.887966 C19.9416091,18.5702857 15.4876297,18.7530566 12.9377852,17.2960607 L4.73107473,12.6069602 C2.18108084,11.1499644 2.50087515,8.60506056 5.44531189,6.92274084 Z M2.07791657,13.148624 L11.9897488,18.8120102 C15.0694487,20.5717527 20.4487713,20.3510091 24.0048781,18.319105 L32.060052,13.7165879 C33.9249216,12.6509907 34.9164034,11.2988998 34.9949337,10 C35.0661484,8.822258 34.3871453,7.68825098 32.9226904,6.85137597 L23.0107089,1.18798982 C19.9311583,-0.571752659 14.5516864,-0.351009145 10.9957289,1.68089501 L2.94055501,6.28341207 C1.07553606,7.34900928 0.0840542482,8.70110024 0.00552399145,10 C0.00507610025,10.0060579 0.00432961492,10.0121158 0.00403102078,10.0183214 C-0.00134367359,10.1173162 -0.00134367359,10.2160154 0.00403102078,10.3142714 C0.0616596883,11.3779478 0.744245875,12.3865122 2.07791657,13.148624 Z" id="Fill-278" fill="#3F464C"></path>
                <path d="M4.72261797,12.5189031 L12.9346041,17.0496167 C15.4860879,18.4573986 19.9429306,18.2808013 22.8891108,16.6553064 L29.5627968,12.9733165 C32.508977,11.3478216 32.8289769,8.88887876 30.2774931,7.48109687 L22.0655069,2.95038332 C19.5140231,1.54260142 15.0571805,1.71919874 12.1110003,3.34469359 L5.43731429,7.02668354 C2.4909847,8.65217839 2.1709848,11.1111212 4.72261797,12.5189031 Z" id="Fill-279" fill="#F2EEE9"></path>
                <path d="M11.7045852,10.9609923 L15.4055088,13.0977777 C16.5555494,13.7616392 18.56419,13.678434 19.8919128,12.9117897 L22.8997568,11.1753086 C24.227628,10.4086644 24.3717909,9.24898328 23.2218987,8.58497354 L19.5208268,6.44818812 C18.3707862,5.78432669 16.3621456,5.86753184 15.0344228,6.6341761 L12.0265788,8.37065724 C10.6988559,9.1373015 10.5545447,10.2969826 11.7045852,10.9609923" id="Fill-342" fill="#96BF66"></path>
            </g>
        </g>
    </g>
</svg>