<?xml version="1.0" encoding="UTF-8"?>
<svg width="35px" height="40px" viewBox="0 0 35 40" version="1.1" xmlns="http://www.w3.org/2000/svg" xmlns:xlink="http://www.w3.org/1999/xlink">
    <!-- Generator: Sketch 49.2 (51160) - http://www.bohemiancoding.com/sketch -->
    <title>Sushi</title>
    <desc>Created with Sketch.</desc>
    <defs>
        <path d="M31.994766,3.79811881 L23.9590638,8.42435644 C20.4115532,10.4667327 15.045234,10.6886139 11.9729787,8.91980198 L2.08510638,3.22722772 C0.754659574,2.46118812 0.0737234043,1.44742574 0.0162340426,0.378267327 L0.0162340426,19.8386139 L0.0177234043,19.8386139 C-0.0533191489,21.0224257 0.624191489,22.1622772 2.08510638,23.0034653 L11.9729787,28.6960396 C15.045234,30.4648515 20.4115532,30.2429703 23.9590638,28.2005941 L31.994617,23.5743564 C33.8551277,22.5032673 34.8442128,21.1442079 34.9225532,19.8386139 L34.9292553,19.8386139 L34.9292553,0.0623762376 L34.9225532,0.0623762376 C34.8442128,1.3679703 33.8551277,2.7270297 31.994766,3.79811881" id="path-1"></path>
    </defs>
    <g id="Page-1" stroke="none" stroke-width="1" fill="none" fill-rule="evenodd">
        <g id="Home" transform="translate(-1040.000000, -389.000000)">
            <g id="Sushi" transform="translate(1040.000000, 389.000000)">
                <g id="Group-277" transform="translate(0.000000, 10.000000)">
                    <mask id="mask-2" fill="white">
                        <use xlink:href="#path-1"></use>
                    </mask>
                    <use id="Clip-276" fill="#000000" xlink:href="#path-1"></use>
                    <path d="M31.994766,3.79811881 L23.9590638,8.42435644 C20.4115532,10.4667327 15.045234,10.6886139 11.9729787,8.91980198 L2.08510638,3.22722772 C0.754659574,2.46118812 0.0737234043,1.44742574 0.0162340426,0.378267327 L0.0162340426,19.8386139 L0.0177234043,19.8386139 C-0.0533191489,21.0224257 0.624191489,22.1622772 2.08510638,23.0034653 L11.9729787,28.6960396 C15.045234,30.4648515 20.4115532,30.2429703 23.9590638,28.2005941 L31.994617,23.5743564 C33.8551277,22.5032673 34.8442128,21.1442079 34.9225532,19.8386139 L34.9292553,19.8386139 L34.9292553,0.0623762376 L34.9225532,0.0623762376 C34.8442128,1.3679703 33.8551277,2.7270297 31.994766,3.79811881" id="Fill-275" fill="#3F464C" mask="url(#mask-2)"></path>
                </g>
                <path d="M5.44531189,6.92274084 L12.1147104,3.11203403 C15.0589979,1.42971431 19.5129772,1.24694341 22.0628218,2.70393925 L30.2695323,7.39303978 C32.8193769,8.85003563 32.4995825,11.3949394 29.5552951,13.0772592 L22.8858966,16.887966 C19.9416091,18.5702857 15.4876297,18.7530566 12.9377852,17.2960607 L4.73107473,12.6069602 C2.18108084,11.1499644 2.50087515,8.60506056 5.44531189,6.92274084 Z M2.07791657,13.148624 L11.9897488,18.8120102 C15.0694487,20.5717527 20.4487713,20.3510091 24.0048781,18.319105 L32.060052,13.7165879 C33.9249216,12.6509907 34.9164034,11.2988998 34.9949337,10 C35.0661484,8.822258 34.3871453,7.68825098 32.9226904,6.85137597 L23.0107089,1.18798982 C19.9311583,-0.571752659 14.5516864,-0.351009145 10.9957289,1.68089501 L2.94055501,6.28341207 C1.07553606,7.34900928 0.0840542482,8.70110024 0.00552399145,10 C0.00507610025,10.0060579 0.00432961492,10.0121158 0.00403102078,10.0183214 C-0.00134367359,10.1173162 -0.00134367359,10.2160154 0.00403102078,10.3142714 C0.0616596883,11.3779478 0.744245875,12.3865122 2.07791657,13.148624 Z" id="Fill-278" fill="#3F464C"></path>
                <path d="M11.3861453,9.11315879 C11.5546606,8.94883905 11.7669481,8.79251402 12.0248005,8.65017971 L15.054342,6.97871531 C15.923212,6.49931854 17.0805599,6.29959367 18.1030058,6.39210383 C18.103454,6.39181831 18.1036034,6.39139002 18.1040516,6.39110449 C18.1210824,6.39267488 18.1375156,6.39538737 18.1545464,6.39710052 C18.2238648,6.40409589 18.2924362,6.41209059 18.3602607,6.42179845 C18.383566,6.42522475 18.4064231,6.42907934 18.429579,6.43279117 C18.5005407,6.44392665 18.5706061,6.456347 18.6396257,6.47062326 C18.658748,6.47462061 18.6775715,6.47918901 18.6965444,6.48332913 C18.7685519,6.49931854 18.8395136,6.51659281 18.9089813,6.53600852 C18.9218291,6.53972035 18.9342287,6.5437177 18.9469271,6.54742953 C19.0222212,6.56941497 19.0957226,6.59297079 19.1671325,6.61895359 C19.1681782,6.61938187 19.1693734,6.6196674 19.1704191,6.62009569 C19.1704191,6.62023845 19.1704191,6.62023845 19.1702697,6.62023845 C19.3127907,6.67234679 19.4488878,6.73102222 19.5733322,6.79969102 L23.3012862,8.85647166 C23.557794,8.99809214 23.7467762,9.16383951 23.8765988,9.3428638 C23.8897454,9.36113741 23.9046847,9.37883997 23.9166361,9.39725635 C23.931426,9.42024112 23.9430787,9.44379695 23.9559265,9.46721001 C23.9696706,9.49219347 23.9834148,9.51717692 23.9949181,9.54273142 C24.004778,9.56471686 24.013144,9.58684507 24.0213606,9.60911603 C24.0321169,9.63809683 24.0412299,9.66707764 24.0491477,9.69648673 C24.0543765,9.71604521 24.0596053,9.73574645 24.0634895,9.75544768 C24.0711085,9.79327977 24.0757397,9.83139738 24.0785782,9.86980052 C24.0794745,9.88150705 24.081566,9.89321358 24.0820142,9.90492012 C24.0841057,9.95831332 24.0818648,10.0119921 24.0749927,10.0659563 C24.0749927,10.0660991 24.0749927,10.0662418 24.0748433,10.0665274 C24.0681207,10.1200633 24.055721,10.1737421 24.0401842,10.2275636 C24.0379433,10.2348445 24.0354036,10.2419826 24.0331627,10.2492635 C24.0177752,10.2982311 23.9988023,10.3470559 23.9762439,10.3958807 C23.9737043,10.4013056 23.971314,10.4067306 23.9687743,10.4121556 C23.8077286,10.7483615 23.4769724,11.0764299 22.9779996,11.351819 L21.2696902,12.2943376 C21.2717817,12.2923389 21.2738732,12.2901975 21.2758153,12.2881988 L19.947263,13.0212847 C18.9074874,13.5949048 17.4549388,13.7690751 16.3149205,13.5188123 C16.3149205,13.5188123 16.3147711,13.5188123 16.3147711,13.5189551 C16.3129784,13.5185268 16.3113351,13.5179557 16.3095424,13.5176702 C16.2364892,13.501538 16.1646311,13.484121 16.0944164,13.4644198 C16.0576657,13.4544264 16.0224089,13.4430054 15.9865546,13.4321554 C15.95324,13.4217338 15.919029,13.4123114 15.8864613,13.4010332 C15.7216807,13.3460696 15.5658638,13.2816837 15.4251356,13.2040208 L15.0217743,12.9814539 C15.0238658,12.9807401 15.0256586,12.9800263 15.0277501,12.9793125 L11.7003188,11.1435283 C11.1345674,10.8313066 10.8819437,10.4051602 10.9252677,9.9648804 C10.924222,9.96516593 10.9233256,9.96559422 10.9222799,9.96587974 C10.9228774,9.95902714 10.9252677,9.95217453 10.9261641,9.94532193 C10.9290025,9.92162334 10.9349783,9.89806751 10.9394601,9.87436892 C10.9457346,9.84210458 10.9509633,9.80998299 10.9603751,9.77757589 C10.9691893,9.74702469 10.9820371,9.7164735 10.9936897,9.6859223 C11.0035497,9.6603678 11.0116169,9.63467053 11.0234189,9.60897327 C11.0404498,9.57199776 11.0619623,9.53530777 11.0831762,9.49847502 C11.0942312,9.47934484 11.1033442,9.46007189 11.1155945,9.4409417 C11.1436803,9.39697082 11.1765468,9.35342823 11.2106084,9.3100284 C11.2197214,9.29846463 11.2270417,9.28661534 11.2366028,9.27519433 C11.2809725,9.22123007 11.3302723,9.16797963 11.3840537,9.11544299 C11.3848007,9.11472918 11.3853983,9.11387261 11.3861453,9.11315879 Z M4.72261797,12.5189031 L12.9346041,17.0496167 C15.4860879,18.4573986 19.9429306,18.2808013 22.8891108,16.6553064 L29.5627968,12.9733165 C32.508977,11.3478216 32.8289769,8.88887876 30.2774931,7.48109687 L22.0655069,2.95038332 C19.5140231,1.54260142 15.0571805,1.71919874 12.1110003,3.34469359 L5.43731429,7.02668354 C2.4909847,8.65217839 2.1709848,11.1111212 4.72261797,12.5189031 Z" id="Fill-279" fill="#F2EEE9"></path>
                <path d="M15.1446894,6.67474757 C15.1982035,6.64234106 15.2589128,6.61842945 15.3145255,6.58838264 C14.9075484,7.19781389 14.4944255,7.7638267 14.0376818,8.18369557 C13.1381352,9.01100557 12.1075764,9.59416552 11.0047661,9.96117716 C10.9612952,10.446331 11.2147752,10.9159108 11.7824445,11.2599548 L15.1211551,13.2828449 C17.2410333,12.4997399 18.6316506,10.773857 20.1033635,8.61048622 C20.412756,8.15569382 20.7522783,7.72874586 21.121031,7.35119423 L21.9733593,7.8676534 C20.6196173,9.12678807 19.695637,11.3560731 18.4480238,12.5032008 C17.825941,13.0753488 17.1403009,13.5284108 16.4126889,13.8773314 C17.5565717,14.1531014 19.0140441,13.9611793 20.0573444,13.329095 L21.3904003,12.5212918 C22.1162135,11.7591095 22.7798184,10.854716 23.4597623,9.85514808 C23.6143087,9.62783054 23.7790482,9.41058104 23.9482847,9.19915213 C23.9673219,9.22432224 23.9830614,9.25027891 24,9.27576365 C23.8697374,9.07849292 23.6801146,8.89585233 23.4227372,8.73979765 L19.682146,6.4733867 C19.5572798,6.39771907 19.4207214,6.33306335 19.2777173,6.27564404 C18.0474924,7.56136464 17.1578391,9.59778372 15.9829271,10.6783679 C15.2226371,11.377625 14.3682102,11.9014779 13.4568214,12.2706919 L12.301996,11.5711202 C14.6230392,10.8561318 16.0871073,9.06543593 17.638117,6.78549605 C17.8178464,6.52136722 18.0076192,6.26636256 18.2068355,6.02425758 C17.1809236,5.92231864 16.0196525,6.14239978 15.1478373,6.67065743 L12.1080261,8.51248011 C11.8492996,8.66932135 11.6362925,8.84157928 11.4672059,9.02264675 C11.6352432,8.84315241 11.8479505,8.67215299 12.1048782,8.51657025 L15.1446894,6.67474757" id="Fill-290" fill="#FF846C"></path>
            </g>
        </g>
    </g>
</svg>