<?xml version="1.0" encoding="utf-8"?>
<!-- Generator: Adobe Illustrator 16.0.0, SVG Export Plug-In . SVG Version: 6.00 Build 0)  -->
<!DOCTYPE svg PUBLIC "-//W3C//DTD SVG 1.1//EN" "http://www.w3.org/Graphics/SVG/1.1/DTD/svg11.dtd">
<svg version="1.1" id="Layer_1" xmlns="http://www.w3.org/2000/svg" xmlns:xlink="http://www.w3.org/1999/xlink" x="0px" y="0px"
	 width="50px" height="50px" viewBox="0 0 50 50" enable-background="new 0 0 50 50" xml:space="preserve">
<path fill="#85C6FC" d="M25,0C11.192,0,0,11.191,0,25c0,13.807,11.192,25,25,25c13.805,0,24.999-11.193,24.999-25
	C49.998,11.191,38.805,0,25,0L25,0z"/>
<path fill="#FFFFFF" d="M38.236,18.854c-0.117,2.576-1.92,6.102-5.402,10.569c-3.603,4.677-6.65,7.011-9.145,7.011
	c-1.545,0-2.852-1.422-3.921-4.272c-0.712-2.614-1.426-5.229-2.138-7.841c-0.792-2.853-1.644-4.276-2.555-4.276
	c-0.199,0-0.889,0.416-2.079,1.248l-1.247-1.606c1.307-1.144,2.593-2.295,3.862-3.438c1.74-1.508,3.048-2.296,3.919-2.379
	c2.057-0.199,3.326,1.208,3.803,4.215c0.512,3.249,0.87,5.271,1.068,6.062c0.594,2.692,1.247,4.037,1.96,4.037
	c0.553,0,1.385-0.869,2.493-2.609c1.107-1.745,1.701-3.07,1.78-3.982c0.158-1.504-0.436-2.252-1.78-2.252
	c-0.632,0-1.286,0.135-1.96,0.415c1.309-4.237,3.802-6.297,7.482-6.177C37.109,13.646,38.396,15.412,38.236,18.854z"/>
</svg>
