<?xml version="1.0" encoding="utf-8"?>
<!-- Generator: Adobe Illustrator 16.0.0, SVG Export Plug-In . SVG Version: 6.00 Build 0)  -->
<!DOCTYPE svg PUBLIC "-//W3C//DTD SVG 1.1//EN" "http://www.w3.org/Graphics/SVG/1.1/DTD/svg11.dtd">
<svg version="1.1" id="Layer_1" xmlns="http://www.w3.org/2000/svg" xmlns:xlink="http://www.w3.org/1999/xlink" x="0px" y="0px"
	 width="50px" height="50px" viewBox="0 0 50 50" enable-background="new 0 0 50 50" xml:space="preserve">
<path fill="#479951" d="M25,0C11.192,0,0,11.191,0,25c0,13.807,11.192,25,25,25c13.807,0,25-11.193,25-25C50,11.191,38.807,0,25,0
	L25,0z"/>
<g>
	<circle fill="#FFFFFF" cx="33.062" cy="26.383" r="1.339"/>
	<path fill="#FFFFFF" d="M33.062,22.429c-1.056,0-2.048,0.411-2.795,1.158c-0.747,0.747-1.158,1.74-1.158,2.796
		s0.411,2.049,1.158,2.795c0.747,0.747,1.739,1.158,2.795,1.158c2.181,0,3.954-1.773,3.954-3.953
		C37.016,24.203,35.242,22.429,33.062,22.429z M33.062,29.124c-0.731,0-1.42-0.284-1.938-0.803
		c-0.518-0.518-0.803-1.206-0.803-1.938s0.285-1.421,0.803-1.939c0.519-0.518,1.207-0.803,1.938-0.803
		c1.513,0,2.742,1.23,2.742,2.742C35.804,27.895,34.574,29.124,33.062,29.124z"/>
	<circle fill="#FFFFFF" cx="16.938" cy="26.383" r="1.339"/>
	<path fill="#FFFFFF" d="M16.938,22.429c-1.056,0-2.049,0.411-2.795,1.158c-0.747,0.747-1.158,1.74-1.158,2.796
		s0.411,2.049,1.158,2.795c0.747,0.747,1.739,1.158,2.795,1.158c2.18,0,3.954-1.773,3.954-3.953
		C20.891,24.203,19.118,22.429,16.938,22.429z M16.938,29.124c-0.732,0-1.421-0.284-1.939-0.803
		c-0.518-0.518-0.803-1.206-0.803-1.938s0.285-1.421,0.803-1.939c0.518-0.518,1.207-0.803,1.939-0.803
		c1.512,0,2.742,1.23,2.742,2.742C19.679,27.895,18.449,29.124,16.938,29.124z"/>
	<path fill="#FFFFFF" d="M39.433,21.184c0.311-0.924,0.785-2.012,1.44-2.668h-5.402c-0.09-0.027-0.184-0.046-0.274-0.071
		c-0.294-0.46-2.303-3.054-10.336-3.054c-8.815,0-10.378,3.125-10.378,3.125H8.848c0.719,0.719,1.218,1.956,1.524,2.929
		c-1.039,1.377-1.663,3.084-1.663,4.938c0,4.537,3.691,8.227,8.229,8.227c2.515,0,4.767-1.137,6.278-2.92l1.869,2.615l1.612-2.717
		c1.51,1.844,3.802,3.021,6.365,3.021c4.537,0,8.229-3.689,8.229-8.227C41.291,24.412,40.593,22.602,39.433,21.184z M16.938,32.995
		c-3.646,0-6.613-2.966-6.613-6.612s2.966-6.613,6.613-6.613s6.613,2.966,6.613,6.613S20.584,32.995,16.938,32.995z M17.049,18.683
		c0,0,2.12-2.343,7.755-2.343h0.558c5.636,0,7.756,2.343,7.756,2.343s-6.026-1.004-8.034,6.417
		C23.075,17.679,17.049,18.683,17.049,18.683z M33.062,32.995c-3.646,0-6.612-2.966-6.612-6.612s2.967-6.613,6.612-6.613
		c3.646,0,6.613,2.966,6.613,6.613S36.708,32.995,33.062,32.995z"/>
</g>
</svg>
