<?xml version="1.0" encoding="utf-8"?>
<!-- Generator: Adobe Illustrator 16.0.0, SVG Export Plug-In . SVG Version: 6.00 Build 0)  -->
<!DOCTYPE svg PUBLIC "-//W3C//DTD SVG 1.1//EN" "http://www.w3.org/Graphics/SVG/1.1/DTD/svg11.dtd">
<svg version="1.1" id="Layer_1" xmlns="http://www.w3.org/2000/svg" xmlns:xlink="http://www.w3.org/1999/xlink" x="0px" y="0px"
	 width="50px" height="50px" viewBox="0 0 50 50" enable-background="new 0 0 50 50" xml:space="preserve">
<g>
	<g>
		<path fill="#E4405F" d="M25,13.814c3.645,0,4.075,0.015,5.516,0.08c1.328,0.062,2.051,0.282,2.531,0.471
			c0.637,0.246,1.094,0.543,1.569,1.021c0.477,0.479,0.771,0.933,1.021,1.568c0.188,0.479,0.408,1.203,0.471,2.532
			c0.063,1.438,0.078,1.869,0.078,5.514c0,3.645-0.015,4.074-0.078,5.514c-0.062,1.33-0.281,2.053-0.471,2.532
			c-0.246,0.638-0.544,1.093-1.021,1.569c-0.479,0.477-0.935,0.771-1.569,1.02c-0.48,0.188-1.203,0.409-2.531,0.473
			c-1.438,0.063-1.871,0.078-5.516,0.078c-3.642,0-4.073-0.015-5.513-0.078c-1.33-0.062-2.052-0.284-2.532-0.473
			c-0.638-0.246-1.092-0.543-1.569-1.02c-0.478-0.479-0.773-0.934-1.021-1.569c-0.188-0.479-0.409-1.202-0.47-2.532
			c-0.066-1.438-0.08-1.869-0.08-5.514c0-3.645,0.014-4.073,0.08-5.514c0.061-1.329,0.283-2.053,0.47-2.532
			c0.248-0.638,0.543-1.093,1.021-1.568c0.477-0.478,0.931-0.771,1.569-1.021c0.48-0.188,1.203-0.409,2.532-0.471
			C20.927,13.829,21.358,13.814,25,13.814 M25,11.355c-3.705,0-4.169,0.018-5.624,0.082c-1.452,0.066-2.444,0.297-3.312,0.637
			c-0.897,0.349-1.658,0.812-2.417,1.572c-0.759,0.758-1.225,1.521-1.574,2.416c-0.337,0.867-0.567,1.859-0.634,3.312
			c-0.066,1.456-0.082,1.92-0.082,5.625s0.016,4.17,0.082,5.625c0.066,1.452,0.297,2.44,0.634,3.312
			c0.349,0.896,0.815,1.658,1.574,2.416c0.758,0.76,1.519,1.228,2.417,1.573c0.868,0.337,1.86,0.567,3.312,0.636
			c1.455,0.064,1.919,0.082,5.624,0.082c3.706,0,4.171-0.018,5.626-0.082c1.452-0.064,2.442-0.299,3.312-0.636
			c0.896-0.35,1.658-0.813,2.418-1.573c0.758-0.758,1.227-1.521,1.571-2.416c0.339-0.867,0.568-1.856,0.636-3.312
			c0.065-1.455,0.082-1.92,0.082-5.625s-0.017-4.169-0.082-5.625c-0.063-1.451-0.297-2.441-0.636-3.312
			c-0.349-0.896-0.813-1.658-1.571-2.416c-0.76-0.76-1.521-1.226-2.418-1.572c-0.867-0.34-1.855-0.568-3.312-0.637
			C29.171,11.373,28.706,11.355,25,11.355"/>
	</g>
	<g>
		<path fill="#E4405F" d="M25,17.994c-3.868,0-7.005,3.137-7.005,7.006s3.137,7.006,7.005,7.006c3.87,0,7.006-3.137,7.006-7.006
			S28.87,17.994,25,17.994 M25,29.548c-2.511,0-4.547-2.036-4.547-4.548c0-2.514,2.036-4.548,4.547-4.548
			c2.514,0,4.549,2.034,4.549,4.548C29.549,27.512,27.514,29.548,25,29.548"/>
		<path fill="#E4405F" d="M33.92,17.718c0,0.904-0.73,1.638-1.637,1.638c-0.907,0-1.639-0.731-1.639-1.638
			c0-0.903,0.73-1.637,1.639-1.637C33.188,16.081,33.92,16.812,33.92,17.718"/>
	</g>
</g>
<g>
	<path fill="#E4405F" d="M25,2c12.684,0,23,10.318,23,23c0,12.684-10.316,23-23,23C12.318,48,2,37.684,2,25C2,12.318,12.318,2,25,2
		 M25,0C11.192,0,0,11.191,0,25c0,13.807,11.192,25,25,25c13.807,0,25-11.193,25-25C50,11.191,38.807,0,25,0L25,0z"/>
</g>
</svg>
