<?xml version="1.0" encoding="utf-8"?>
<!-- Generator: Adobe Illustrator 16.0.0, SVG Export Plug-In . SVG Version: 6.00 Build 0)  -->
<!DOCTYPE svg PUBLIC "-//W3C//DTD SVG 1.1//EN" "http://www.w3.org/Graphics/SVG/1.1/DTD/svg11.dtd">
<svg version="1.1" id="Layer_1" xmlns="http://www.w3.org/2000/svg" xmlns:xlink="http://www.w3.org/1999/xlink" x="0px" y="0px"
	 width="50px" height="50px" viewBox="0 0 50 50" enable-background="new 0 0 50 50" xml:space="preserve">
<path fill="#D20003" d="M25,0C11.192,0,0,11.191,0,25c0,13.807,11.192,25,25,25c13.807,0,25-11.193,25-25C50,11.191,38.807,0,25,0
	L25,0z"/>
<path fill="#FFFFFF" d="M26.658,11.936c-7.675,0-11.545,5.504-11.545,10.092c0,2.779,1.052,5.252,3.308,6.175
	c0.37,0.149,0.702,0.004,0.809-0.404c0.074-0.282,0.251-0.999,0.33-1.298c0.107-0.404,0.066-0.547-0.233-0.898
	c-0.65-0.769-1.066-1.764-1.066-3.168c0-4.084,3.055-7.738,7.955-7.738c4.339,0,6.722,2.649,6.722,6.189
	c0,4.659-2.062,8.59-5.121,8.59c-1.689,0-2.956-1.396-2.55-3.111c0.485-2.047,1.425-4.254,1.425-5.732
	c0-1.322-0.709-2.425-2.177-2.425c-1.728,0-3.116,1.788-3.116,4.183c0,1.524,0.515,2.557,0.515,2.557s-1.769,7.49-2.078,8.805
	c-0.618,2.609-0.093,5.814-0.048,6.141c0.026,0.189,0.272,0.235,0.383,0.092c0.159-0.207,2.217-2.748,2.917-5.287
	c0.198-0.719,1.136-4.44,1.136-4.44c0.562,1.071,2.202,2.015,3.946,2.015c5.192,0,8.718-4.732,8.718-11.072
	C36.887,16.398,32.828,11.936,26.658,11.936z"/>
</svg>
