<?xml version="1.0" encoding="UTF-8"?>
<svg width="44px" height="44px" viewBox="0 0 44 44" version="1.1" xmlns="http://www.w3.org/2000/svg" xmlns:xlink="http://www.w3.org/1999/xlink">
    <!-- Generator: Sketch 49.2 (51160) - http://www.bohemiancoding.com/sketch -->
    <title>Shape</title>
    <desc>Created with Sketch.</desc>
    <defs></defs>
    <g id="Page-1" stroke="none" stroke-width="1" fill="none" fill-rule="evenodd">
        <g id="Home" transform="translate(-576.000000, -3680.000000)" fill="#F85D56">
            <g id="Contact-Us" transform="translate(380.000000, 3388.000000)">
                <g id="if_github_circle_black_107161" transform="translate(196.000000, 292.000000)">
                    <path d="M12.1474222,22.7525659 C12.1080539,22.7525659 12.579015,23.784545 12.5921378,23.784545 C13.6200868,25.6839301 15.6016226,26.864629 18.9442796,27.1922654 C18.4674862,27.5606676 17.8944593,28.2597259 17.8149938,29.067493 C17.2149923,29.4623175 16.008428,29.5929191 15.0708801,29.291705 C13.7564176,28.8697033 13.2533787,26.2221899 11.2856947,26.5996512 C10.8599343,26.6804279 10.9445031,26.9665436 11.3126693,27.2103835 C11.9126707,27.605208 12.4769491,28.0996823 12.9121871,29.1512894 C13.2468174,29.9590565 13.9496137,31.4017135 16.1731914,31.4017135 C17.0553321,31.4017135 17.6735596,31.2937596 17.6735596,31.2937596 C17.6735596,31.2937596 17.6903276,33.3554531 17.6903276,34.1571808 C17.6903276,35.081961 16.4640792,35.3424092 16.4640792,35.7870586 C16.4640792,35.9629556 16.8701555,35.9795639 17.1960372,35.9795639 C17.8405102,35.9795639 19.1812182,35.432245 19.1812182,34.4712286 C19.1812182,33.7080019 19.1936119,31.1420202 19.1936119,30.6920863 C19.1936119,29.710687 19.7105026,29.3996589 19.7105026,29.3996589 C19.7105026,29.3996589 19.7746583,34.6388214 19.5872946,35.3424092 C19.3671239,36.1682945 18.9697961,36.0512815 18.9697961,36.4196837 C18.9697961,36.9677575 20.5838948,36.5548148 21.1190115,35.3507134 C21.5323783,34.4153643 21.3515759,29.2735869 21.3515759,29.2735869 L21.7926462,29.2645278 C21.7926462,29.2645278 21.8174337,31.6176214 21.8021238,32.693386 C21.7868139,33.8076517 21.7124516,35.2163372 22.362757,35.880669 C22.7899755,36.3177692 24.173697,37.0840156 24.173697,36.3834474 C24.173697,35.9765442 23.4154934,35.6421135 23.4154934,34.5406815 L23.4154934,29.4713766 C24.0213272,29.4713766 23.930197,31.1382456 23.930197,31.1382456 L23.9746686,34.2356928 C23.9746686,34.2356928 23.8405249,35.3635471 25.1739424,35.8353737 C25.6441745,36.0037214 26.6502522,36.0490167 26.69764,35.7674306 C26.7450277,35.4858445 25.4859724,35.0668625 25.4743077,34.194172 C25.4670173,33.6604418 25.497637,33.3494137 25.497637,31.0333113 C25.497637,28.7172089 25.1921685,27.8611268 24.1270383,27.1786768 C27.4135591,26.835187 29.448315,26.0077919 30.4390829,23.7920942 C30.5163613,23.794359 30.8437011,22.7570954 30.8006876,22.7570954 C31.0230454,21.9206412 31.1433373,20.9309378 31.1666667,19.759298 C31.1608343,16.581074 29.6662985,15.4569944 29.379785,14.9293035 C29.8026293,12.5233653 29.3083389,11.4287277 29.0794198,11.0527762 C28.2322731,10.7462777 26.1333616,11.8416703 24.9858496,12.6132011 C23.1165863,12.0568232 19.1637212,12.1104227 17.6815791,12.7566364 C14.946943,10.7643958 13.4997949,11.0693845 13.4997949,11.0693845 C13.4997949,11.0693845 12.5644342,12.7747546 13.2526497,15.2705285 C12.353012,16.4376388 11.6822935,17.263524 11.6822935,19.4520445 C11.6830225,20.6855879 11.8259147,21.7892847 12.1474222,22.7525659 Z M22,44 C9.85013333,44 0,34.1498667 0,22 C0,9.8494 9.85013333,0 22,0 C34.1498667,0 44,9.8494 44,22 C44,34.1498667 34.1498667,44 22,44 Z" id="Shape"></path>
                </g>
            </g>
        </g>
    </g>
</svg>