<?xml version="1.0" encoding="utf-8"?>
<!-- Generator: Adobe Illustrator 16.0.0, SVG Export Plug-In . SVG Version: 6.00 Build 0)  -->
<!DOCTYPE svg PUBLIC "-//W3C//DTD SVG 1.1//EN" "http://www.w3.org/Graphics/SVG/1.1/DTD/svg11.dtd">
<svg version="1.1" id="Layer_1" xmlns="http://www.w3.org/2000/svg" xmlns:xlink="http://www.w3.org/1999/xlink" x="0px" y="0px"
	 width="50px" height="50px" viewBox="0 0 50 50" enable-background="new 0 0 50 50" xml:space="preserve">
<path fill="#CE8B4E" d="M10.985,16.039v18.909h14.014h14.017V16.039H24.999H10.985z M12.609,18.706l7.511,6.834l-7.511,6.821V18.706
	z M24.999,33.324H13.968l7.359-6.686l1.18,1.07c1.211,1.104,2.05,1.271,2.444,1.271c0.017,0,0.033,0,0.048,0
	c0.374,0.021,1.229-0.116,2.493-1.268l1.183-1.074l7.351,6.686H24.999z M37.391,32.373l-7.511-6.832l7.511-6.834V32.373z
	 M26.398,26.512c-0.779,0.711-1.229,0.823-1.331,0.842l-0.07-0.012l-0.068,0.012c-0.102-0.019-0.548-0.131-1.331-0.842l-9.725-8.849
	h11.124h11.126L26.398,26.512z"/>
<g>
	<path fill="#CE8B4E" d="M25,2c12.684,0,23,10.318,23,23c0,12.684-10.316,23-23,23C12.318,48,2,37.684,2,25C2,12.318,12.318,2,25,2
		 M25,0C11.192,0,0,11.191,0,25c0,13.807,11.192,25,25,25c13.807,0,25-11.193,25-25C50,11.191,38.807,0,25,0L25,0z"/>
</g>
</svg>
