<?xml version="1.0" encoding="utf-8"?>
<!-- Generator: Adobe Illustrator 16.0.0, SVG Export Plug-In . SVG Version: 6.00 Build 0)  -->
<!DOCTYPE svg PUBLIC "-//W3C//DTD SVG 1.1//EN" "http://www.w3.org/Graphics/SVG/1.1/DTD/svg11.dtd">
<svg version="1.1" id="Layer_1" xmlns="http://www.w3.org/2000/svg" xmlns:xlink="http://www.w3.org/1999/xlink" x="0px" y="0px"
	 width="50px" height="50px" viewBox="0 0 50 50" enable-background="new 0 0 50 50" xml:space="preserve">
<path fill="#C8302D" d="M25,0C11.192,0,0,11.191,0,25c0,13.807,11.192,25,25,25c13.807,0,25-11.193,25-25C50,11.191,38.807,0,25,0
	L25,0z"/>
<g>
	<path fill="#FFFFFF" d="M28.325,23.452H24.85l-0.009-0.002c0,0.001,0,0.002,0,0.013h-5.937v3.814h5.377
		c-0.007,0.633-0.238,1.154-0.641,1.643c-1.125,1.369-2.835,2.241-4.741,2.241c-3.393,0-6.146-2.761-6.146-6.159
		c0-3.404,2.752-6.164,6.146-6.164c1.507,0,2.889,0.547,3.961,1.454l2.622-2.769c-1.754-1.56-4.059-2.502-6.583-2.502
		c-5.496,0-9.951,4.47-9.951,9.98c0,5.51,4.455,9.977,9.951,9.977c1.917,0,3.708-0.545,5.225-1.487
		c2.838-1.755,4.312-4.902,4.312-8.488C28.441,24.473,28.4,23.96,28.325,23.452z"/>
	<polygon fill="#FFFFFF" points="41.052,23.215 37.042,23.215 37.042,19.191 34.343,19.191 34.343,23.215 30.337,23.215 
		30.337,25.922 34.343,25.922 34.343,29.939 37.042,29.939 37.042,25.922 41.052,25.922 	"/>
</g>
</svg>
