<?xml version="1.0" encoding="UTF-8"?>
<svg width="44px" height="44px" viewBox="0 0 44 44" version="1.1" xmlns="http://www.w3.org/2000/svg" xmlns:xlink="http://www.w3.org/1999/xlink">
    <!-- Generator: Sketch 51.1 (57501) - http://www.bohemiancoding.com/sketch -->
    <title>social-slack-2</title>
    <desc>Created with Sketch.</desc>
    <defs></defs>
    <g id="Page-1" stroke="none" stroke-width="1" fill="none" fill-rule="evenodd">
        <g id="social-slack-2" fill-rule="nonzero">
            <path d="M22,44 C9.85013333,44 0,34.1498667 0,22 C0,9.8494 9.85013333,0 22,0 C34.1498667,0 44,9.8494 44,22 C44,34.1498667 34.1498667,44 22,44 Z" id="Shape" fill="#F85D56"></path>
            <path d="M34.3911894,25.8457609 L31.8844403,26.7207762 L32.7465664,29.377196 C33.1625979,30.659085 32.4977847,32.0479214 31.2617726,32.4793615 C30.0256653,32.9108016 28.6864302,32.2213657 28.2703987,30.9395753 L27.4082726,28.2830569 L22.2540677,30.0821215 L23.1261831,32.7692245 C23.5422146,34.0511135 22.8774015,35.43995 21.6413893,35.87139 C20.405282,36.3028301 19.0660469,35.6134929 18.6500154,34.3316038 L17.7779,31.6445008 L15.386266,32.4792628 C14.1501587,32.9107029 12.8109236,32.221267 12.3948921,30.9394767 C11.9788606,29.6575876 12.6435787,28.2687512 13.8796859,27.8373111 L16.27132,27.0025491 L14.5723741,21.7678483 L12.1153814,22.6254007 C10.8792741,23.0568408 9.54003894,22.3675036 9.12400745,21.0856145 C8.70797597,19.8037255 9.37278915,18.4148891 10.6088013,17.983449 L13.065794,17.1258965 L12.2534243,14.6227944 C11.8373928,13.341004 12.502206,11.9520689 13.7382181,11.5207275 C14.9743254,11.0892874 16.3135605,11.7786247 16.729592,13.0605137 L17.5419617,15.5635172 L22.6961666,13.7644526 L21.8738075,11.2307658 C21.4577761,9.94887682 22.1225892,8.56004038 23.3586014,8.12860032 C24.5947087,7.69716026 25.9339438,8.38659615 26.3499753,9.66838652 L27.1723343,12.2020733 L29.6137247,11.3499471 C30.849832,10.918507 32.1890671,11.6078443 32.6050986,12.8897333 C33.0211301,14.1716223 32.356412,15.5604588 31.1203048,15.9918988 L28.6789144,16.844025 L30.3778603,22.0788245 L32.8846093,21.2038092 C34.1207166,20.7723691 35.4599518,21.461805 35.8759832,22.7435954 C36.2920147,24.0254844 35.6272967,25.4143209 34.3911894,25.8457609 Z M20.750765,25.4435864 L25.9051688,23.6445221 L24.2061681,18.4095561 L19.0517643,20.2086204 L20.750765,25.4435864 Z" id="Combined-Shape" fill="#FFFFFF"></path>
        </g>
    </g>
</svg>