<?xml version="1.0" encoding="utf-8"?>
<!-- Generator: Adobe Illustrator 16.0.0, SVG Export Plug-In . SVG Version: 6.00 Build 0)  -->
<!DOCTYPE svg PUBLIC "-//W3C//DTD SVG 1.1//EN" "http://www.w3.org/Graphics/SVG/1.1/DTD/svg11.dtd">
<svg version="1.1" id="Layer_1" xmlns="http://www.w3.org/2000/svg" xmlns:xlink="http://www.w3.org/1999/xlink" x="0px" y="0px"
	 width="50px" height="50px" viewBox="0 0 50 50" enable-background="new 0 0 50 50" xml:space="preserve">
<path fill="#C8302D" d="M25,0C11.192,0,0,11.191,0,25c0,13.807,11.192,25,25,25c13.807,0,25-11.193,25-25C50,11.191,38.807,0,25,0
	L25,0z"/>
<g>
	<polygon fill="#FFFFFF" points="18.368,21.117 20.153,21.117 20.153,16.325 22.229,9.566 20.417,9.566 19.314,14.184 
		19.202,14.184 18.044,9.566 16.247,9.566 18.368,16.539 	"/>
	<path fill="#FFFFFF" d="M22.149,18.963c0,0.725,0.208,1.301,0.625,1.729c0.415,0.429,0.97,0.644,1.664,0.644
		c0.719,0,1.285-0.207,1.695-0.623c0.411-0.414,0.615-0.987,0.615-1.717v-4.399c0-0.648-0.209-1.182-0.627-1.593
		c-0.419-0.414-0.956-0.619-1.612-0.619c-0.72,0-1.293,0.193-1.719,0.587c-0.427,0.391-0.64,0.916-0.64,1.575L22.149,18.963
		L22.149,18.963z M23.78,14.48c0-0.187,0.06-0.336,0.181-0.449c0.121-0.115,0.276-0.174,0.471-0.174
		c0.209,0,0.378,0.059,0.506,0.174c0.13,0.113,0.194,0.266,0.194,0.449v4.641c0,0.23-0.062,0.41-0.188,0.54
		c-0.127,0.132-0.297,0.194-0.511,0.194c-0.209,0-0.371-0.062-0.483-0.189c-0.113-0.128-0.169-0.311-0.169-0.544V14.48H23.78z"/>
	<path fill="#FFFFFF" d="M29.198,21.238c0.297,0,0.604-0.09,0.921-0.271c0.314-0.182,0.617-0.444,0.91-0.793v0.941h1.584v-8.521
		h-1.584v6.469c-0.147,0.186-0.312,0.338-0.491,0.457c-0.179,0.121-0.323,0.181-0.438,0.181c-0.147,0-0.259-0.045-0.324-0.136
		c-0.063-0.088-0.1-0.235-0.1-0.438v-6.533H28.09v7.123c0,0.506,0.094,0.889,0.279,1.143C28.557,21.113,28.832,21.238,29.198,21.238
		z"/>
	<path fill="#FFFFFF" d="M35.43,25.75c0-1.666-1.369-3.02-3.056-3.02c-2.403-0.101-4.865-0.146-7.374-0.14
		c-2.51-0.006-4.973,0.039-7.376,0.14c-1.687,0-3.053,1.354-3.053,3.02c-0.101,1.318-0.146,2.639-0.141,3.959
		c-0.005,1.316,0.04,2.637,0.141,3.957c0,1.666,1.367,3.02,3.053,3.02c2.403,0.101,4.866,0.144,7.376,0.14
		c2.509,0.004,4.971-0.039,7.374-0.14c1.687,0,3.056-1.354,3.056-3.02c0.1-1.32,0.146-2.641,0.141-3.957
		C35.574,28.389,35.529,27.068,35.43,25.75z M19.005,34.148v0.102h-1.443v-0.102v-7.896h-1.495v-0.101v-1.256v-0.104h4.435v0.104
		v1.256v0.101h-1.497V34.148z M24.143,27.35v6.801v0.101h-1.281V34.15v-0.664c-0.236,0.281-0.481,0.496-0.739,0.644
		c-0.254,0.146-0.502,0.222-0.743,0.222c-0.297,0-0.52-0.104-0.67-0.312c-0.151-0.205-0.226-0.515-0.226-0.923v-0.102V27.35v-0.1
		h1.282v0.1v5.188c0,0.162,0.026,0.28,0.08,0.354c0.054,0.073,0.143,0.108,0.262,0.108c0.095,0,0.214-0.048,0.357-0.146
		c0.144-0.098,0.276-0.221,0.397-0.371v-5.139v-0.1h1.281V27.35z M29.081,28.993v3.728v0.1c0,0.492-0.101,0.867-0.302,1.128
		c-0.199,0.26-0.491,0.391-0.871,0.391c-0.251,0-0.477-0.051-0.672-0.149c-0.196-0.104-0.379-0.258-0.547-0.469v0.432v0.102h-1.293
		v-0.102V24.9v-0.103h1.293V24.9v2.91c0.172-0.209,0.354-0.369,0.551-0.479c0.195-0.109,0.392-0.164,0.59-0.164
		c0.404,0,0.716,0.146,0.932,0.439c0.213,0.295,0.319,0.724,0.319,1.287V28.993L29.081,28.993z M33.822,29.206v1.655v0.1h-2.453
		v1.201c0,0.363,0.042,0.613,0.127,0.758c0.083,0.139,0.229,0.209,0.434,0.209c0.213,0,0.36-0.061,0.444-0.179
		c0.085-0.118,0.127-0.382,0.127-0.788v-0.378v-0.103h1.321v0.103v0.417v0.102c0,0.705-0.16,1.24-0.482,1.596
		c-0.32,0.359-0.802,0.537-1.439,0.537c-0.573,0-1.024-0.188-1.354-0.567c-0.33-0.38-0.496-0.9-0.496-1.562v-0.104v-2.995v-0.103
		c0-0.598,0.185-1.086,0.544-1.465c0.362-0.375,0.831-0.563,1.404-0.563c0.586,0,1.039,0.176,1.354,0.522
		c0.314,0.352,0.474,0.854,0.474,1.506v0.102L33.822,29.206L33.822,29.206z"/>
	<path fill="#FFFFFF" d="M27.227,28.357c-0.093,0-0.183,0.022-0.271,0.067c-0.089,0.048-0.177,0.117-0.265,0.212v4.198
		c0.104,0.11,0.205,0.19,0.305,0.241c0.097,0.052,0.199,0.074,0.311,0.074c0.156,0,0.272-0.047,0.348-0.146
		c0.074-0.096,0.109-0.254,0.109-0.476v-3.461c0-0.231-0.047-0.411-0.139-0.528C27.532,28.42,27.398,28.357,27.227,28.357z"/>
	<path fill="#FFFFFF" d="M31.941,28.383c-0.205,0-0.352,0.062-0.439,0.188c-0.089,0.125-0.133,0.332-0.133,0.621v0.6h1.132v-0.6
		c0-0.289-0.044-0.496-0.133-0.621C32.277,28.445,32.137,28.383,31.941,28.383z"/>
	<rect x="22.861" y="27.25" fill="#FFFFFF" width="1.281" height="0.1"/>
	<rect x="25.396" y="24.797" fill="#FFFFFF" width="1.293" height="0.102"/>
	<path fill="#FFFFFF" d="M27.303,33.152c-0.107,0-0.212-0.023-0.309-0.074c-0.1-0.051-0.198-0.13-0.305-0.242v0.102
		c0.104,0.111,0.205,0.191,0.305,0.242c0.097,0.051,0.201,0.072,0.309,0.072c0.158,0,0.274-0.048,0.348-0.145
		c0.074-0.099,0.111-0.256,0.111-0.478v-0.101c0,0.222-0.037,0.38-0.111,0.476C27.577,33.105,27.461,33.152,27.303,33.152z"/>
	<rect x="16.067" y="24.797" fill="#FFFFFF" width="4.435" height="0.102"/>
	<path fill="#FFFFFF" d="M21.846,32.994c0.054,0.072,0.143,0.109,0.262,0.109c0.095,0,0.214-0.049,0.357-0.146
		c0.144-0.096,0.276-0.219,0.397-0.369v-0.102c-0.121,0.149-0.253,0.272-0.397,0.371c-0.143,0.098-0.262,0.146-0.357,0.146
		c-0.119,0-0.208-0.037-0.262-0.109c-0.054-0.074-0.08-0.191-0.08-0.354v0.101C21.766,32.801,21.792,32.922,21.846,32.994z"/>
	<rect x="20.483" y="27.25" fill="#FFFFFF" width="1.282" height="0.1"/>
	<rect x="32.501" y="31.682" fill="#FFFFFF" width="1.321" height="0.104"/>
	<rect x="31.369" y="29.791" fill="#FFFFFF" width="1.132" height="0.1"/>
	<path fill="#FFFFFF" d="M27.83,27.164c-0.198,0-0.395,0.055-0.59,0.165c-0.194,0.108-0.379,0.269-0.551,0.479v0.101
		c0.172-0.214,0.354-0.372,0.551-0.481c0.195-0.107,0.392-0.164,0.59-0.164c0.404,0,0.716,0.147,0.932,0.443
		c0.213,0.295,0.319,0.723,0.319,1.287v-0.102c0-0.563-0.106-0.992-0.319-1.287C28.546,27.311,28.234,27.164,27.83,27.164z"/>
	<path fill="#FFFFFF" d="M31.496,33.016c0.083,0.144,0.229,0.213,0.434,0.213c0.213,0,0.36-0.061,0.444-0.18
		c0.085-0.117,0.127-0.381,0.127-0.787v-0.101c0,0.407-0.042,0.67-0.127,0.788c-0.084,0.119-0.231,0.18-0.444,0.18
		c-0.205,0-0.351-0.072-0.434-0.211c-0.085-0.143-0.127-0.393-0.127-0.757v0.101C31.369,32.627,31.411,32.877,31.496,33.016z"/>
	<path fill="#FFFFFF" d="M31.996,27.075c-0.573,0-1.042,0.188-1.404,0.565c-0.361,0.377-0.544,0.864-0.544,1.463v0.103
		c0-0.603,0.183-1.088,0.544-1.464c0.362-0.377,0.831-0.566,1.404-0.566c0.586,0,1.039,0.178,1.354,0.523
		c0.315,0.35,0.475,0.852,0.475,1.507v-0.103c0-0.651-0.157-1.154-0.475-1.504C33.035,27.25,32.582,27.075,31.996,27.075z"/>
	<rect x="16.067" y="26.154" fill="#FFFFFF" width="1.495" height="0.1"/>
	<rect x="31.369" y="30.861" fill="#FFFFFF" width="2.453" height="0.1"/>
	<path fill="#FFFFFF" d="M27.227,28.26c-0.093,0-0.183,0.021-0.271,0.065s-0.177,0.116-0.265,0.211v0.101
		c0.088-0.094,0.175-0.164,0.265-0.211c0.09-0.045,0.18-0.066,0.271-0.066c0.174,0,0.308,0.062,0.396,0.183
		c0.092,0.118,0.139,0.297,0.139,0.528v-0.102c0-0.23-0.047-0.406-0.139-0.527C27.532,28.318,27.398,28.26,27.227,28.26z"/>
	<path fill="#FFFFFF" d="M31.941,28.283c-0.205,0-0.352,0.062-0.439,0.189c-0.089,0.123-0.133,0.329-0.133,0.618v0.101
		c0-0.289,0.044-0.496,0.133-0.621c0.09-0.125,0.234-0.188,0.439-0.188c0.194,0,0.336,0.062,0.427,0.188
		c0.089,0.125,0.133,0.332,0.133,0.621v-0.101c0-0.289-0.044-0.495-0.133-0.618C32.277,28.346,32.137,28.283,31.941,28.283z"/>
	<rect x="17.562" y="34.148" fill="#FFFFFF" width="1.443" height="0.102"/>
	<rect x="19.005" y="26.154" fill="#FFFFFF" width="1.497" height="0.1"/>
	<rect x="25.396" y="34.148" fill="#FFFFFF" width="1.293" height="0.102"/>
	<rect x="22.861" y="34.148" fill="#FFFFFF" width="1.281" height="0.102"/>
	<path fill="#FFFFFF" d="M22.122,34.027c-0.254,0.146-0.502,0.223-0.743,0.223c-0.297,0-0.52-0.104-0.67-0.309
		c-0.151-0.205-0.226-0.515-0.226-0.926v0.101c0,0.409,0.074,0.718,0.226,0.923c0.15,0.206,0.373,0.311,0.67,0.311
		c0.241,0,0.489-0.072,0.743-0.221c0.258-0.146,0.503-0.359,0.739-0.643v-0.098C22.625,33.668,22.38,33.883,22.122,34.027z"/>
	<path fill="#FFFFFF" d="M27.908,34.236c-0.251,0-0.477-0.051-0.672-0.15c-0.196-0.102-0.379-0.256-0.547-0.467v0.1
		c0.168,0.209,0.351,0.365,0.547,0.469c0.195,0.101,0.421,0.148,0.672,0.148c0.38,0,0.672-0.13,0.871-0.391
		c0.201-0.26,0.302-0.635,0.302-1.127v-0.101c0,0.49-0.101,0.867-0.302,1.128C28.58,34.105,28.288,34.236,27.908,34.236z"/>
	<path fill="#FFFFFF" d="M31.9,34.336c-0.575,0-1.026-0.188-1.356-0.566s-0.496-0.901-0.496-1.566v0.104
		c0,0.661,0.166,1.184,0.496,1.562s0.781,0.567,1.356,0.567c0.638,0,1.117-0.178,1.438-0.537c0.322-0.354,0.48-0.891,0.48-1.596
		v-0.102c0,0.708-0.158,1.24-0.48,1.6C33.02,34.154,32.538,34.336,31.9,34.336z"/>
</g>
</svg>
