<?xml version="1.0" encoding="UTF-8"?>
<svg width="44px" height="44px" viewBox="0 0 44 44" version="1.1" xmlns="http://www.w3.org/2000/svg" xmlns:xlink="http://www.w3.org/1999/xlink">
    <!-- Generator: Sketch 49.2 (51160) - http://www.bohemiancoding.com/sketch -->
    <title>if_twitter_circle_color_107170</title>
    <desc>Created with Sketch.</desc>
    <defs></defs>
    <g id="Page-1" stroke="none" stroke-width="1" fill="none" fill-rule="evenodd">
        <g id="Home" transform="translate(-727.000000, -3680.000000)" fill="#F85D56">
            <g id="Contact-Us" transform="translate(380.000000, 3388.000000)">
                <g id="if_twitter_circle_color_107170" transform="translate(347.000000, 292.000000)">
                    <path d="M25.0558,13.4075333 C23.1352,14.1064 21.9215333,15.9089333 22.0594,17.8816 L22.1056,18.6428 L21.3370667,18.5496667 C18.5408667,18.1925333 16.0974,16.9810667 14.0228,14.9453333 L13.0086,13.9355333 L12.7475333,14.6813333 C12.1946,16.3438 12.5480667,18.0994 13.7001333,19.2800667 C14.3146667,19.9327333 14.1760667,20.0258667 13.1164,19.6372 C12.7475333,19.5132667 12.4248667,19.4201333 12.3940667,19.4663333 C12.287,19.5756 12.6551333,20.9887333 12.947,21.5482667 C13.3466667,22.3256 14.1606667,23.0860667 15.0524,23.5370667 L15.8055333,23.8942 L14.9145333,23.9096 C14.0543333,23.9096 14.0235333,23.925 14.1159333,24.2520667 C14.4232,25.2618667 15.6368667,26.334 16.9891333,26.8004 L17.9417333,27.126 L17.1123333,27.6232 C15.8832667,28.3389333 14.4386,28.7422667 12.9939333,28.7723333 C12.3016667,28.7877333 11.7333333,28.8500667 11.7333333,28.897 C11.7333333,29.0517333 13.6084667,29.9214667 14.6989333,30.2639333 C17.9718,31.2737333 21.8599333,30.8381333 24.7793333,29.1140667 C26.8539333,27.8864667 28.9278,25.4474 29.8965333,23.0853333 C30.4194,21.8276667 30.9415333,19.5279333 30.9415333,18.4257333 C30.9415333,17.7107333 30.9877333,17.6176 31.8479333,16.7632667 C32.3554,16.2660667 32.8313333,15.7226667 32.9237333,15.5672 C33.0777333,15.2716667 33.0616,15.2716667 32.2784,15.5356667 C30.9723333,16.0020667 30.7875333,15.9397333 31.4336,15.2408667 C31.9095333,14.7436667 32.4786,13.8424 32.4786,13.5784 C32.4786,13.5322 32.2483333,13.6092 31.9865333,13.7492667 C31.7100667,13.9047333 31.0955333,14.1379333 30.6342667,14.2772667 L29.8048667,14.542 L29.0517333,14.0286667 C28.6366667,13.7492667 28.0536667,13.4383333 27.7456667,13.3452 C26.9617333,13.1281333 25.7627333,13.1589333 25.0558,13.4075333 Z M22,44 C9.85013333,44 0,34.1498667 0,22 C0,9.8494 9.85013333,0 22,0 C34.1498667,0 44,9.8494 44,22 C44,34.1498667 34.1498667,44 22,44 Z" id="Shape"></path>
                </g>
            </g>
        </g>
    </g>
</svg>