<?xml version="1.0" encoding="UTF-8"?>
<svg width="44px" height="44px" viewBox="0 0 44 44" version="1.1" xmlns="http://www.w3.org/2000/svg" xmlns:xlink="http://www.w3.org/1999/xlink">
    <!-- Generator: Sketch 51.1 (57501) - http://www.bohemiancoding.com/sketch -->
    <title>discord</title>
    <desc>Created with Sketch.</desc>
    <defs></defs>
    <g id="Page-1" stroke="none" stroke-width="1" fill="none" fill-rule="evenodd">
        <g id="discord" fill-rule="nonzero">
            <circle id="ellipse" fill="#F85D56" cx="22" cy="22" r="22"></circle>
            <path d="M32.003125,14.4976562 C32.003125,14.4976562 29.1414063,12.2546875 25.7554687,11.996875 L25.4546875,12.6070312 C28.5140625,13.3546875 29.9148437,14.4289062 31.384375,15.74375 C28.8578125,14.4546875 26.3570312,13.2429687 22.0085938,13.2429687 C17.6601563,13.2429687 15.159375,14.4546875 12.6328125,15.74375 C14.1023438,14.4289062 15.7695313,13.234375 18.5625,12.6070312 L18.2617188,11.996875 C14.7125,12.3320312 12.0140625,14.4976562 12.0140625,14.4976562 C12.0140625,14.4976562 8.8171875,19.1382812 8.2671875,28.2476562 C11.4898438,31.96875 16.3882813,31.9945312 16.3882813,31.9945312 L17.4109375,30.628125 C15.675,30.0265625 13.7070313,28.94375 12.0140625,26.9929687 C14.0335938,28.5226562 17.0929688,30.1210938 22.0171875,30.1210938 C26.9414063,30.1210938 29.9921875,28.53125 32.0203125,26.9929687 C30.3273438,28.94375 28.359375,30.0265625 26.6234375,30.628125 L27.6460937,31.9945312 C27.6460937,31.9945312 32.5445313,31.96875 35.7671875,28.2476562 C35.2,19.1382812 32.003125,14.4976562 32.003125,14.4976562 Z M17.9351563,25.746875 C16.7234375,25.746875 15.74375,24.6296875 15.74375,23.2460938 C15.74375,21.8625 16.7234375,20.7453125 17.9351563,20.7453125 C19.146875,20.7453125 20.1265625,21.8625 20.1265625,23.2460938 C20.1265625,24.6296875 19.146875,25.746875 17.9351563,25.746875 Z M26.0648438,25.746875 C24.853125,25.746875 23.8734375,24.6296875 23.8734375,23.2460938 C23.8734375,21.8625 24.853125,20.7453125 26.0648438,20.7453125 C27.2765625,20.7453125 28.25625,21.8625 28.25625,23.2460938 C28.25625,24.6296875 27.2679688,25.746875 26.0648438,25.746875 Z" id="logo" fill="#FFFFFF"></path>
        </g>
    </g>
</svg>