<?xml version="1.0" encoding="utf-8"?>
<!-- Generator: Adobe Illustrator 16.0.0, SVG Export Plug-In . SVG Version: 6.00 Build 0)  -->
<!DOCTYPE svg PUBLIC "-//W3C//DTD SVG 1.1//EN" "http://www.w3.org/Graphics/SVG/1.1/DTD/svg11.dtd">
<svg version="1.1" id="Layer_1" xmlns="http://www.w3.org/2000/svg" xmlns:xlink="http://www.w3.org/1999/xlink" x="0px" y="0px"
	 width="50px" height="50px" viewBox="0 0 50 50" enable-background="new 0 0 50 50" xml:space="preserve">
<path fill="#67C9E8" d="M39.613,17.557c-1.002,0.445-2.079,0.744-3.207,0.879c1.152-0.689,2.039-1.785,2.455-3.09
	c-1.077,0.641-2.273,1.105-3.547,1.356c-1.021-1.086-2.473-1.765-4.076-1.765c-3.086,0-5.586,2.502-5.586,5.584
	c0,0.438,0.05,0.865,0.145,1.272c-4.641-0.231-8.756-2.457-11.512-5.836c-0.48,0.826-0.756,1.785-0.756,2.81
	c0,1.938,0.986,3.646,2.484,4.648c-0.916-0.029-1.777-0.281-2.529-0.699c-0.001,0.023-0.001,0.049-0.001,0.07
	c0,2.707,1.925,4.965,4.481,5.479c-0.469,0.127-0.964,0.19-1.472,0.19c-0.36,0-0.71-0.034-1.051-0.103
	c0.711,2.223,2.773,3.834,5.217,3.881c-1.911,1.496-4.319,2.393-6.938,2.393c-0.451,0-0.896-0.023-1.333-0.075
	c2.472,1.58,5.408,2.509,8.562,2.509c10.271,0,15.891-8.514,15.891-15.895c0-0.242-0.004-0.481-0.015-0.722
	C37.918,19.661,38.865,18.677,39.613,17.557z"/>
<g>
	<path fill="#67C9E8" d="M25,2c12.684,0,23,10.318,23,23c0,12.684-10.316,23-23,23C12.318,48,2,37.684,2,25C2,12.318,12.318,2,25,2
		 M25,0C11.192,0,0,11.191,0,25c0,13.807,11.192,25,25,25c13.807,0,25-11.193,25-25C50,11.191,38.807,0,25,0L25,0z"/>
</g>
</svg>
