<?xml version="1.0" encoding="utf-8"?>
<!-- Generator: Adobe Illustrator 16.0.0, SVG Export Plug-In . SVG Version: 6.00 Build 0)  -->
<!DOCTYPE svg PUBLIC "-//W3C//DTD SVG 1.1//EN" "http://www.w3.org/Graphics/SVG/1.1/DTD/svg11.dtd">
<svg version="1.1" id="Layer_1" xmlns="http://www.w3.org/2000/svg" xmlns:xlink="http://www.w3.org/1999/xlink" x="0px" y="0px"
	 width="50px" height="50px" viewBox="0 0 50 50" enable-background="new 0 0 50 50" xml:space="preserve">
<path fill="#4A6EA9" d="M25,0C11.192,0,0,11.191,0,25c0,13.807,11.192,25,25,25c13.807,0,25-11.193,25-25C50,11.191,38.807,0,25,0
	L25,0z"/>
<path fill="#FFFFFF" d="M21.609,38.832V25.443h-3.543v-4.82h3.543c0,0,0-1.977,0-4.117c0-3.234,2.088-6.207,6.907-6.207
	c1.952,0,3.396,0.188,3.396,0.188l-0.113,4.5c0,0-1.471-0.014-3.077-0.014c-1.734,0-2.014,0.803-2.014,2.131c0,1.053,0-2.242,0,3.52
	h5.229l-0.228,4.82h-5.002v13.389H21.609z"/>
</svg>
