<?xml version="1.0" encoding="UTF-8"?>
<svg width="29px" height="29px" viewBox="0 0 29 29" version="1.1" xmlns="http://www.w3.org/2000/svg" xmlns:xlink="http://www.w3.org/1999/xlink">
    <!-- Generator: Sketch 49.2 (51160) - http://www.bohemiancoding.com/sketch -->
    <title>if_109-slack_710949</title>
    <desc>Created with Sketch.</desc>
    <defs></defs>
    <g id="Page-1" stroke="none" stroke-width="1" fill="none" fill-rule="evenodd">
        <g id="Home" transform="translate(-575.000000, -3606.000000)" fill="#FFFFFF" fill-rule="nonzero">
            <g id="Contact-Us" transform="translate(380.000000, 3388.000000)">
                <g id="Slack-CTA" transform="translate(178.000000, 202.000000)">
                    <g id="if_109-slack_710949" transform="translate(17.000000, 15.000000)">
                        <path d="M26.831,19.0723 L24.1961,19.9592 L25.1023,22.6517 C25.5396,23.951 24.8408,25.3587 23.5416,25.796 C22.2423,26.2333 20.8346,25.5345 20.3973,24.2353 L19.4911,21.5427 L14.0734,23.3662 L14.9901,26.0898 C15.4274,27.3891 14.7286,28.7968 13.4294,29.2341 C12.1301,29.6714 10.7224,28.9727 10.2851,27.6734 L9.3684,24.9498 L6.8545,25.7959 C5.5552,26.2332 4.1475,25.5344 3.7102,24.2352 C3.2729,22.9359 3.9716,21.5282 5.2709,21.0909 L7.7848,20.2448 L5.999,14.939 L3.4164,15.8082 C2.1171,16.2455 0.7094,15.5468 0.2721,14.2475 C-0.1652,12.9482 0.5336,11.5405 1.8328,11.1032 L4.4154,10.234 L3.5615,7.6969 C3.1242,6.3977 3.823,4.9899 5.1222,4.5527 C6.4215,4.1154 7.8292,4.8141 8.2665,6.1134 L9.1204,8.6504 L14.5381,6.8269 L13.6737,4.2588 C13.2364,2.9595 13.9352,1.5518 15.2344,1.1145 C16.5337,0.6772 17.9414,1.376 18.3787,2.6752 L19.2431,5.2433 L21.8093,4.3796 C23.1086,3.9423 24.5163,4.641 24.9536,5.9403 C25.3909,7.2396 24.6922,8.6473 23.3929,9.0846 L20.8267,9.9483 L22.6125,15.2542 L25.2474,14.3673 C26.5467,13.93 27.9544,14.6288 28.3917,15.928 C28.829,17.2273 28.1303,18.635 26.831,19.0723 Z M12.4932449,18.664663 L17.911154,16.8411633 L16.1252963,11.5350946 L10.7073872,13.3585943 L12.4932449,18.664663 Z" id="Combined-Shape"></path>
                    </g>
                </g>
            </g>
        </g>
    </g>
</svg>