<?xml version="1.0" encoding="utf-8"?>
<!-- Generator: Adobe Illustrator 16.0.0, SVG Export Plug-In . SVG Version: 6.00 Build 0)  -->
<!DOCTYPE svg PUBLIC "-//W3C//DTD SVG 1.1//EN" "http://www.w3.org/Graphics/SVG/1.1/DTD/svg11.dtd">
<svg version="1.1" id="Layer_1" xmlns="http://www.w3.org/2000/svg" xmlns:xlink="http://www.w3.org/1999/xlink" x="0px" y="0px"
	 width="50px" height="50px" viewBox="0 0 50 50" enable-background="new 0 0 50 50" xml:space="preserve">
<g>
	<g>
		<path fill="#0098BD" d="M19.488,35.113V19.727h-5.113v15.388L19.488,35.113L19.488,35.113z M16.932,17.627
			c1.783,0,2.894-1.182,2.894-2.659c-0.033-1.509-1.11-2.657-2.86-2.657s-2.893,1.148-2.893,2.657c0,1.478,1.109,2.659,2.826,2.659
			H16.932L16.932,17.627z"/>
		<path fill="#0098BD" d="M22.319,35.113h5.113v-8.592c0-0.461,0.033-0.92,0.168-1.25c0.371-0.918,1.213-1.871,2.625-1.871
			c1.854,0,2.592,1.412,2.592,3.479v8.229h5.111V26.29c0-4.727-2.521-6.925-5.887-6.925c-2.759,0-3.971,1.542-4.643,2.593h0.033
			v-2.23h-5.117C22.386,21.17,22.319,35.113,22.319,35.113L22.319,35.113z"/>
	</g>
</g>
<g>
	<path fill="#0098BD" d="M25,2c12.684,0,23,10.318,23,23c0,12.684-10.316,23-23,23C12.318,48,2,37.684,2,25C2,12.318,12.318,2,25,2
		 M25,0C11.192,0,0,11.191,0,25c0,13.807,11.192,25,25,25c13.807,0,25-11.193,25-25C50,11.191,38.807,0,25,0L25,0z"/>
</g>
</svg>
