<?xml version="1.0" encoding="UTF-8"?>
<svg width="308px" height="308px" viewBox="0 0 308 308" version="1.1" xmlns="http://www.w3.org/2000/svg" xmlns:xlink="http://www.w3.org/1999/xlink">
    <!-- Generator: Sketch 51.3 (57544) - http://www.bohemiancoding.com/sketch -->
    <title>Artboard 4</title>
    <desc>Created with Sketch.</desc>
    <defs></defs>
    <g id="Artboard-4" stroke="none" stroke-width="1" fill="none" fill-rule="evenodd">
        <g id="Group-4" transform="translate(24.000000, 24.000000)" fill-rule="nonzero" stroke="#689D6A">
            <circle id="Oval-2" stroke-width="6" cx="130" cy="130" r="130"></circle>
            <g id="Group-3" transform="translate(29.000000, 79.000000)">
                <g id="Group-2" transform="translate(8.000000, 7.000000)" stroke-linecap="square" stroke-width="4">
                    <path d="M0.414893617,1.25229358 L51.0319149,1.25229358" id="Line-16"></path>
                    <path d="M0.414893617,45.2912844 L77.5851064,45.2912844" id="Line-16"></path>
                    <path d="M0.414893617,90.4151376 L51.0319149,90.4151376" id="Line-16"></path>
                    <path d="M52.6914894,1.25229358 L52.6914894,90.5825688" id="Line-17"></path>
                </g>
                <g id="Group" fill="#8DC07C" stroke-width="5">
                    <ellipse id="Oval-3" cx="8.5" cy="8.30645161" rx="8.5" ry="8.30645161"></ellipse>
                    <ellipse id="Oval-3" cx="8.5" cy="51.5" rx="8.5" ry="8.30645161"></ellipse>
                    <ellipse id="Oval-3" cx="8.5" cy="94.6935484" rx="8.5" ry="8.30645161"></ellipse>
                </g>
            </g>
        </g>
        <g id="fingerprint-svgrepo-com-(1)" transform="translate(154.000000, 96.000000)" fill-rule="nonzero">
            <path d="M44,0 C44,0 30.666,16 0,16 L0,54.17 C0,74.102 8.656,93.324 24.328,105.64 C29.874,110 36.416,113.75 44,116 C51.584,113.75 58.124,110 63.672,105.64 C79.344,93.324 88,74.102 88,54.17 L88,16 C57.334,16 44,0 44,0 Z" id="Shape" stroke="#689D6A" stroke-width="5"></path>
            <g id="Group" transform="translate(11.000000, 22.000000)" fill="#8DC07C">
                <path d="M33.7,31.066 C32.686,31.486 32.202,32.652 32.614,33.67 C32.644,33.746 35.676,41.55 34.826,65.93 C34.788,67.036 35.652,67.962 36.756,67.998 C36.78,68 36.804,68 36.828,68 C37.9,68 38.788,67.15 38.826,66.07 C39.716,40.51 36.444,32.456 36.304,32.126 C35.876,31.118 34.718,30.638 33.7,31.066 Z" id="Shape"></path>
                <path d="M64.606,20.154 C59.472,8.02 47.64,0.178 34.464,0.178 C30.112,0.178 25.872,1.028 21.862,2.704 C20.138,3.422 18.7,4.414 17.312,5.376 C16.848,5.696 16.384,6.016 15.91,6.324 C14.984,6.928 14.72,8.166 15.324,9.092 C15.928,10.018 17.164,10.282 18.09,9.68 C18.594,9.352 19.09,9.01 19.586,8.668 C20.862,7.788 22.066,6.954 23.404,6.396 C26.924,4.926 30.646,4.18 34.464,4.18 C46.03,4.18 56.416,11.062 60.922,21.716 C63.292,27.318 64.59,31.92 65.01,36.198 C65.11,37.228 65.98,38 66.998,38 C67.062,38 67.128,37.996 67.194,37.99 C68.294,37.882 69.098,36.904 68.99,35.804 C68.532,31.114 67.138,26.138 64.606,20.154 Z" id="Shape"></path>
                <path d="M5.012,32.756 C5.24,24.312 7.588,18.17 12.404,13.424 C13.19,12.648 13.2,11.382 12.424,10.596 C11.648,9.81 10.382,9.8 9.594,10.576 C3.996,16.094 1.268,23.108 1.012,32.646 L1.012,32.648 C0.86,38.268 1.518,43.326 3.08,48.57 C3.342,49.44 4.138,50 5,50 C5.19,50 5.382,49.972 5.572,49.916 C6.63,49.602 7.234,48.488 6.918,47.43 C5.478,42.602 4.874,37.94 5.012,32.756 Z" id="Shape"></path>
                <path d="M60.758,32.378 C60.372,29.968 59.83,27.758 59.104,25.62 C55.792,15.858 45.158,7.634 35.4,7.286 C31.662,7.148 28.028,7.812 24.592,9.244 C15.096,13.206 8.904,22.406 8.818,32.68 C8.796,35.104 9.122,37.522 9.788,39.872 C10.136,41.106 10.466,42.316 10.644,43.536 C11.066,46.42 11.176,51.484 11,59.958 C10.978,61.062 11.854,61.976 12.958,62 C12.972,62 12.986,62 13,62 C14.084,62 14.976,61.13 15,60.042 C15.18,51.338 15.058,46.07 14.602,42.96 C14.39,41.502 14.008,40.096 13.636,38.784 C13.074,36.802 12.8,34.76 12.818,32.718 C12.892,24.046 18.118,16.282 26.134,12.938 C29.034,11.728 32.09,11.158 35.26,11.284 C43.358,11.574 52.544,18.728 55.32,26.908 C55.972,28.832 56.46,30.83 56.812,33.018 C56.812,33.018 56.812,33.02 56.812,33.02 C57.518,37.404 57.356,42.518 57.134,49.594 L57,53.946 C56.97,55.05 57.84,55.97 58.944,56 C58.962,56 58.982,56 59,56 C60.08,56 60.968,55.14 60.998,54.054 L61.128,49.718 C61.358,42.418 61.522,37.144 60.756,32.38 C60.758,32.38 60.758,32.38 60.758,32.378 Z" id="Shape"></path>
                <path d="M53.542,32.314 C53.084,29.946 52.432,27.776 51.544,25.68 C48.496,18.474 42.156,14 35,14 C33.66,14 32.32,14.144 31.022,14.432 C29.942,14.67 29.262,15.736 29.5,16.816 C29.738,17.894 30.802,18.564 31.884,18.338 C32.9,18.114 33.948,18 35,18 C40.522,18 45.45,21.54 47.86,27.238 C48.636,29.074 49.21,30.982 49.612,33.072 C49.612,33.074 49.612,33.076 49.612,33.078 C50.528,37.828 51.514,45.174 50.998,59.93 C50.96,61.036 51.824,61.962 52.928,61.998 C52.954,62 52.978,62 53,62 C54.072,62 54.96,61.15 54.998,60.07 C55.41,48.242 54.96,39.684 53.54,32.32 C53.542,32.318 53.542,32.316 53.542,32.314 Z" id="Shape"></path>
                <path d="M20.818,37.97 C20.356,36.258 20.146,34.504 20.194,32.76 C20.194,32.758 20.194,32.758 20.194,32.756 C20.32,28.364 22.236,22.384 26.15,19.636 C27.054,19.002 27.272,17.754 26.638,16.85 C26.004,15.946 24.758,15.724 23.852,16.362 C18.782,19.92 16.354,27.102 16.196,32.642 C16.196,32.644 16.196,32.646 16.196,32.648 C16.136,34.782 16.392,36.924 16.952,39.002 C16.978,39.102 17.022,39.244 17.084,39.436 C19.148,45.956 19.266,56.354 19,63.93 C18.962,65.034 19.826,65.962 20.93,65.998 C20.954,66 20.978,66 21,66 C22.072,66 22.96,65.15 22.998,64.07 C23.398,52.594 22.692,43.898 20.896,38.228 L20.818,37.97 Z" id="Shape"></path>
                <path d="M47,58.458 L47,58.01 C47.006,56.906 46.118,56.006 45.012,55.998 C45.008,55.998 45.004,55.998 45,55.998 C43.902,55.998 43.006,56.884 43,57.986 L43,58.456 C43,59.124 43.01,59.712 43.02,60.292 C43.028,60.836 43.038,61.374 43.038,61.996 C43.038,63.102 43.934,63.982 45.038,63.982 C46.142,63.982 47.038,63.072 47.038,61.966 C47.038,61.35 47.03,60.792 47.02,60.226 C47.008,59.67 47,59.102 47,58.458 Z" id="Shape"></path>
                <path d="M45.034,32.184 C44.554,30.388 44.128,29.386 43.924,28.904 C42.314,25.096 38.6,22.634 34.464,22.634 C33.1,22.634 31.768,22.902 30.506,23.426 C26.782,24.978 24.306,28.598 24.196,32.644 C24.158,34.004 24.388,35.336 24.858,36.55 C25.336,38 27.69,46.224 27.002,65.926 C26.964,67.03 27.828,67.958 28.932,67.994 C28.954,68 28.978,68 29,68 C30.072,68 30.96,67.15 30.998,66.07 C31.692,46.196 29.38,37.492 28.608,35.164 C28.31,34.392 28.17,33.582 28.192,32.756 C28.26,30.28 29.772,28.068 32.044,27.12 C32.816,26.798 33.628,26.636 34.462,26.636 C36.988,26.636 39.254,28.138 40.24,30.466 C40.408,30.864 40.76,31.69 41.166,33.216 C41.166,33.216 41.166,33.218 41.166,33.218 C41.968,36.216 42.972,41.884 43.202,51.864 C43.226,52.954 44.118,53.82 45.2,53.82 C45.216,53.82 45.232,53.82 45.246,53.82 C46.35,53.794 47.224,52.878 47.2,51.776 C47.012,43.566 46.262,36.794 45.032,32.19 L45.034,32.184 Z" id="Shape"></path>
            </g>
        </g>
    </g>
</svg>