<?xml version="1.0" standalone="no"?>
<!DOCTYPE svg PUBLIC "-//W3C//DTD SVG 1.1//EN" "http://www.w3.org/Graphics/SVG/1.1/DTD/svg11.dtd" >
<svg xmlns="http://www.w3.org/2000/svg">
<defs>
  <font id="SiimpleIcons" horiz-adv-x="1000">
    <font-face font-family="SiimpleIcons"
      units-per-em="1000" ascent="1000"
      descent="0" />
    <missing-glyph horiz-adv-x="0" />
    <glyph glyph-name="announcement"
      unicode="&#xE000;"
      horiz-adv-x="1000" d="M861.3541666666666 760.7291666666667A33.93125 33.93125 0 0 1 827.95625 726.3583333333333V718.9375L171.3104166666667 575.3145833333334A33.93125 33.93125 0 0 1 137.5583333333334 602.3958333333335A33.93125 33.93125 0 0 1 104.1604166666667 568.0270833333334V432.3125000000001A33.93125 33.93125 0 0 1 171.3104166666667 425.0687500000002L248.6645833333334 408.1479166666668C239.6041666666667 377.9645833333335 242.8718750000001 344.5437500000002 259.7531250000001 316.1708333333334C286.1843750000001 271.7458333333335 339.303125 250.3333333333334 389.1489583333334 264.0416666666668C433.8177083333333 276.325 466.109375 314.2604166666667 472.3802083333334 359.2000000000001L827.9635416666667 281.4020833333334V273.9812500000001A33.93125 33.93125 0 1 1 895.8197916666668 273.9812500000001V726.35625A33.93125 33.93125 0 0 1 861.3614583333335 760.7270833333333zM293.0625 398.4375L427.9354166666667 368.9270833333334C425.4129166666667 340.0270833333334 405.5875 315.5104166666668 377.175 307.6958333333335C346.7604166666667 299.3333333333334 314.75625 312.1750000000002 298.6270833333334 339.2833333333336C287.690625 357.6666666666669 286.2110416666667 379.3000000000002 293.060625 398.4375000000003z" />
    <glyph glyph-name="arrow-down"
      unicode="&#xE001;"
      horiz-adv-x="1000" d="M148.75625 470.125C148.75625 459.4741666666666 152.8427083333333 448.8270833333334 161.0039583333333 440.6645833333334L426.1914583333333 175.4979166666666C426.3289583333332 175.3562500000001 426.4183333333333 175.1895833333333 426.5577083333332 175.0504166666667L470.7472916666666 130.8608333333334C487.0695833333333 114.5385416666667 513.3452083333333 114.5385416666667 529.6660416666666 130.8608333333334L839.0202083333334 440.2150000000001C855.3427083333332 456.5375 855.3427083333332 482.8129166666668 839.0202083333334 499.13375L794.830625 543.3233333333334C778.5081250000001 559.6456250000001 752.193125 559.6456250000001 735.8702083333333 543.3233333333334L573.1514583333333 380.6045833333334V839.70875C573.1514583333333 862.7920833333334 554.568125 881.3754166666666 531.4847916666666 881.3754166666666H468.9847916666666C445.9014583333333 881.3753958333333 427.318125 862.7920833333333 427.318125 839.70875V380.6045833333334L264.1514583333333 543.77125C247.8291666666667 560.09375 221.5139583333333 560.09375 205.1910416666667 543.77125L161.0014583333333 499.5816666666667C152.8402083333333 491.4204166666667 148.75375 480.7729166666667 148.75375 470.12125z" />
    <glyph glyph-name="arrow-left"
      unicode="&#xE002;"
      horiz-adv-x="1000" d="M470.1458333333333 851.2583333333333C459.4949999999999 851.2583333333333 448.8479166666666 847.171875 440.6854166666667 839.010625L175.4979166666667 573.8439583333334C175.3570833333333 573.7064583333334 175.1896041666667 573.6170833333334 175.0503333333333 573.4777083333335L130.86075 529.288125C114.5384583333333 512.9658333333334 114.5384583333333 486.6902083333334 130.86075 470.3693750000001L440.23575 161.0152083333334C456.5582499999999 144.6927083333334 482.8336666666666 144.6927083333334 499.1544999999999 161.0152083333334L543.3440833333332 205.2047916666667C559.6663749999999 221.5272916666666 559.6663749999999 247.8422916666666 543.3440833333332 264.1652083333334L380.6253333333332 426.8839583333334H839.7294999999998C862.8128333333331 426.8839583333334 881.3961666666664 445.4672916666667 881.3961666666664 468.5506250000001V531.0506250000001C881.3961458333331 554.1339583333333 862.8128333333331 572.7172916666667 839.7294999999998 572.7172916666667H380.6253333333331L543.7919999999998 735.8839583333333C560.1144999999998 752.20625 560.1144999999998 778.5214583333334 543.7919999999998 794.844375L499.6024166666665 839.0339583333333C491.4411666666665 847.1952083333333 480.7936666666665 851.2816666666668 470.1419999999998 851.2816666666668z" />
    <glyph glyph-name="arrow-right"
      unicode="&#xE003;"
      horiz-adv-x="1000" d="M529.875 148.7500000000001C540.5258333333334 148.7500000000001 551.1729166666667 152.8364583333335 559.3354166666667 160.9977083333334L824.5229166666667 426.1643750000001C824.6645833333333 426.3018750000001 824.83125 426.3912500000002 824.9704166666666 426.5306250000001L869.1599999999999 470.7202083333334C885.4822916666666 487.0425000000001 885.4822916666666 513.3181250000001 869.1599999999999 529.6389583333334L559.8058333333332 839.0139583333334C543.4833333333332 855.3364583333334 517.2079166666666 855.3364583333334 500.8870833333332 839.0139583333334L456.6974999999999 794.8243750000001C440.3752083333332 778.501875 440.3752083333332 752.1868750000001 456.6974999999999 735.8639583333334L619.4162499999999 573.1452083333334H160.3120833333333C137.2287499999999 573.1452083333334 118.6454166666666 554.5618750000001 118.6454166666666 531.4785416666668V468.9785416666667C118.6454375 445.8952083333335 137.2287499999999 427.3118750000001 160.3120833333333 427.3118750000001H619.4162499999999L456.2495833333332 264.1452083333335C439.9270833333332 247.8229166666669 439.9270833333332 221.5077083333336 456.2495833333332 205.1847916666668L500.4391666666666 160.9952083333335C508.5849999999999 152.8077083333335 519.2308333333333 148.7243750000002 529.8766666666666 148.7243750000002z" />
    <glyph glyph-name="arrow-up"
      unicode="&#xE004;"
      horiz-adv-x="1000" d="M851.2708333333333 529.875C851.2708333333333 540.5258333333334 847.1843749999998 551.1729166666668 839.0231249999998 559.3354166666668L573.8356249999999 824.5020833333334C573.6981249999999 824.6429166666667 573.6087499999999 824.8103958333334 573.4693749999999 824.9496666666666L529.2797916666666 869.1392500000001C512.9574999999999 885.4615416666667 486.6818749999999 885.4615416666667 470.3610416666666 869.1392500000001L161.0068749999999 559.7642500000001C144.6843749999999 543.4417500000001 144.6843749999999 517.1663333333333 161.0068749999999 500.8455000000001L205.1964583333333 456.6559166666668C221.5189583333332 440.3336250000001 247.8339583333333 440.3336250000001 264.1568749999999 456.6559166666668L426.8756249999999 619.3746666666668V160.2705000000002C426.8756249999999 137.187166666667 445.4589583333332 118.6038333333336 468.5422916666666 118.6038333333336H531.0422916666665C554.1256249999999 118.6038541666669 572.7089583333333 137.187166666667 572.7089583333333 160.2705000000002V619.3746666666668L735.8756249999999 456.2080000000002C752.1979166666666 439.8855000000002 778.5131249999998 439.8855000000002 794.8360416666666 456.2080000000002L839.0256249999999 500.3975833333335C847.1868749999999 508.5588333333335 851.2733333333333 519.2063333333335 851.2733333333333 529.8580000000002z" />
    <glyph glyph-name="arrows"
      unicode="&#xE005;"
      horiz-adv-x="1000" d="M499.3958333333333 895.8375C488.5625 895.6291666666667 478.2083333333333 891.3229166666666 470.5416666666666 883.6708333333333L345.6249999999999 758.625C319.3958333333333 732.375 337.9374999999999 687.5208333333334 375.0416666666666 687.5H447.9166666666666V552.0833333333334H312.4999999999999V624.9583333333334C312.4791666666666 662.0416666666667 267.6249999999999 680.6041666666667 241.3749999999999 654.375L116.3333333333333 529.4583333333334C108.6812499999999 521.7916666666667 104.3749999999999 511.4375000000001 104.1666666666666 500.6041666666667C103.9937499999999 489.3541666666667 108.3833333333333 478.5 116.3333333333333 470.5416666666666L241.3749999999999 345.625C267.6249999999999 319.3958333333333 312.4791666666666 337.9375 312.4999999999999 375.0416666666667V447.9166666666667H447.9166666666666V312.5H375.0416666666666C337.9374999999999 312.4791666666668 319.3958333333333 267.6250000000001 345.6249999999999 241.375L470.5416666666666 116.3333333333333C478.2083333333333 108.6875 488.5624999999999 104.375 499.3958333333333 104.1666666666665C510.6458333333333 103.9999999999999 521.5 108.3749999999999 529.4583333333334 116.3333333333333L654.375 241.375C680.6041666666667 267.625 662.0625 312.4791666666667 624.9583333333334 312.5H552.0833333333334V447.9166666666668H687.5V375.0416666666667C687.5208333333333 337.9375 732.3749999999999 319.3958333333333 758.625 345.625L883.6666666666667 470.5416666666666C891.625 478.5 896 489.3541666666666 895.8333333333335 500.6041666666667C895.6250000000001 511.4375 891.3125000000001 521.7916666666667 883.6666666666667 529.4583333333334L758.625 654.3750000000001C732.375 680.6041666666667 687.5208333333334 662.0416666666667 687.5 624.9583333333335V552.0833333333335H552.0833333333333V687.5000000000001H624.9583333333334C662.0625 687.5208333333335 680.6041666666667 732.3750000000001 654.375 758.6250000000001L529.4583333333334 883.6708333333333C521.5 891.6208333333334 510.6458333333334 896.0104166666667 499.3958333333333 895.8375000000001z" />
    <glyph glyph-name="box"
      unicode="&#xE006;"
      horiz-adv-x="1000" d="M500 774.5L578.7729166666666 595.3875C586.2972916666666 579.2041666666667 591.4058333333332 569.4833333333333 610.3249999999999 567.5145833333333L895.8249999999999 538.3479166666667L810.2416666666667 711.2645833333333L499.9916666666667 773.7645833333333zL189.75 710.3104166666667L104.1666666666667 539.4770833333334L389.6666666666667 567.8520833333334C408.585 569.8104166666667 413.69375 579.5416666666667 421.21875 595.7250000000001L500.0104166666666 774.8916666666668zM500 642.1916666666667L463.0583333333333 562.3333333333334C450.2883333333333 539.2395833333334 433.7020833333334 513.5625 402.9229166666667 510.5958333333334L196.0208333333333 493.0020833333334L197.4834791666666 305.74375C198.4426458333333 292.4729166666667 205.0963958333333 284.4583333333333 215.7874375 281.3375L500.0166041666666 225.0875L784.2249375 281.7958333333333C794.9159791666667 284.9166666666667 801.5697291666667 292.93125 802.5288958333334 306.2020833333334L803.9916041666668 493.4604166666666L597.0895208333335 511.0541666666666C566.3103541666668 514.0208333333333 549.7249375000001 539.6979166666666 536.9541041666669 562.7916666666666L500.0124375000001 642.65z" />
    <glyph glyph-name="calendar"
      unicode="&#xE007;"
      horiz-adv-x="1000" d="M270.8333333333333 833.3333333333334C259.2916666666667 833.3333333333334 250 824.0416666666667 250 812.5V750H166.6666666666667C132.0416666666667 750 104.1666666666667 722.125 104.1666666666667 687.5V625H895.8333333333333V687.5C895.8333333333333 722.125 867.9583333333333 750 833.3333333333333 750H750V812.5C750 824.0416666666667 740.7083333333334 833.3333333333334 729.1666666666666 833.3333333333334H687.5C675.9583333333333 833.3333333333334 666.6666666666666 824.0416666666667 666.6666666666666 812.5V750H333.3333333333333V812.5C333.3333333333333 824.0416666666667 324.0416666666667 833.3333333333334 312.5 833.3333333333334H270.8333333333333zM104.1666666666667 583.3333333333334V229.1666666666668C104.1666666666667 194.5416666666668 132.0416666666667 166.6666666666668 166.6666666666667 166.6666666666668H833.3333333333333C867.9583333333333 166.6666666666668 895.8333333333333 194.5416666666668 895.8333333333333 229.1666666666668V583.3333333333334H104.1666666666667zM197.9166666666667 510.4166666666667H322.9166666666667C334.4583333333333 510.4166666666667 343.75 501.125 343.75 489.5833333333334V432.2916666666668C343.75 420.7500000000001 334.4583333333333 411.4583333333334 322.9166666666667 411.4583333333334H197.9166666666667C186.375 411.4583333333334 177.0833333333333 420.7500000000001 177.0833333333333 432.2916666666668V489.5833333333334C177.0833333333333 501.125 186.375 510.4166666666667 197.9166666666667 510.4166666666667zM437.5 510.4166666666667H562.5C574.0416666666666 510.4166666666667 583.3333333333333 501.125 583.3333333333333 489.5833333333334V432.2916666666668C583.3333333333333 420.7500000000001 574.0416666666666 411.4583333333334 562.5 411.4583333333334H437.5C425.9583333333333 411.4583333333334 416.6666666666667 420.7500000000001 416.6666666666667 432.2916666666668V489.5833333333334C416.6666666666667 501.125 425.9583333333333 510.4166666666667 437.5 510.4166666666667zM677.0833333333333 510.4166666666667H802.0833333333333C813.625 510.4166666666667 822.9166666666666 501.125 822.9166666666666 489.5833333333334V432.2916666666668C822.9166666666666 420.7500000000001 813.625 411.4583333333334 802.0833333333333 411.4583333333334H677.0833333333333C665.5416666666666 411.4583333333334 656.25 420.7500000000001 656.25 432.2916666666668V489.5833333333334C656.25 501.125 665.5416666666666 510.4166666666667 677.0833333333333 510.4166666666667zM197.9166666666667 338.5416666666668H322.9166666666667C334.4583333333333 338.5416666666668 343.75 329.2500000000001 343.75 317.7083333333334V260.4166666666668C343.75 248.875 334.4583333333333 239.5833333333334 322.9166666666667 239.5833333333334H197.9166666666667C186.375 239.5833333333334 177.0833333333333 248.875 177.0833333333333 260.4166666666668V317.7083333333334C177.0833333333333 329.2500000000001 186.375 338.5416666666668 197.9166666666667 338.5416666666668zM437.5 338.5416666666668H562.5C574.0416666666666 338.5416666666668 583.3333333333333 329.2500000000001 583.3333333333333 317.7083333333334V260.4166666666668C583.3333333333333 248.875 574.0416666666666 239.5833333333334 562.5 239.5833333333334H437.5C425.9583333333333 239.5833333333334 416.6666666666667 248.875 416.6666666666667 260.4166666666668V317.7083333333334C416.6666666666667 329.2500000000001 425.9583333333333 338.5416666666668 437.5 338.5416666666668zM677.0833333333333 338.5416666666668H802.0833333333333C813.625 338.5416666666668 822.9166666666666 329.2500000000001 822.9166666666666 317.7083333333334V260.4166666666668C822.9166666666666 248.875 813.625 239.5833333333334 802.0833333333333 239.5833333333334H677.0833333333333C665.5416666666666 239.5833333333334 656.25 248.875 656.25 260.4166666666668V317.7083333333334C656.25 329.2500000000001 665.5416666666666 338.5416666666668 677.0833333333333 338.5416666666668z" />
    <glyph glyph-name="check"
      unicode="&#xE008;"
      horiz-adv-x="1000" d="M798.0208333333333 824.2791666666667C786.8958333333333 823.3041666666667 776.1249999999999 818.05625 768.3333333333334 808.7770833333334L402.8125 373.1729166666668L218.2083333333333 528.1104166666668C199.6479166666667 543.6729166666668 172.1604166666667 541.2770833333334 156.5895833333333 522.7145833333334L114.4416666666667 472.4645833333334C98.86875 453.9020833333334 101.2645833333333 426.4229166666668 119.8208333333333 410.8395833333334L387.8 185.9854166666668C390.25375 183.9264583333335 392.8972916666666 182.2529166666667 395.6147916666667 180.8181250000001C398.0760416666667 179.5187500000001 400.6139583333333 178.3664583333334 403.21625 177.5725C419.5877083333333 172.3739583333334 438.1287499999999 177.1785416666668 449.8933333333333 191.1950000000001L885.6016666666667 710.4449999999999C901.17375 729.003125 898.73625 756.45125 880.178125 772.0241666666667L829.9697916666665 814.22C820.6781249999999 822.0054166666666 809.1572916666665 825.2720833333333 798.0114583333333 824.2970833333334z" />
    <glyph glyph-name="quote"
      unicode="&#xE009;"
      horiz-adv-x="1000" d="M163.2083333333333 854.1666666666667C130.50625 854.1666666666667 104.1666666666667 827.8270833333333 104.1666666666667 795.125V500C104.1666666666667 467.2979166666667 130.50625 440.9583333333334 163.2083333333333 440.9583333333334H266.4791666666667C291.0041666666667 440.9583333333334 310.75 421.2135416666668 310.75 396.6875V367.1875C310.75 325.0354166666667 279.13125 293.4166666666668 236.9791666666667 293.4166666666668C212.4541666666667 293.4166666666668 192.7083333333333 273.6718750000001 192.7083333333333 249.1458333333335V190.1041666666668C192.7083333333333 165.5833333333334 212.4583333333334 145.8333333333334 236.9791666666667 145.8333333333334C358.3333333333333 145.8333333333334 458.3333333333333 245.8333333333334 458.3333333333333 367.1875V500V603.3125V795.125C458.3333333333333 827.8270833333333 432 854.1666666666667 399.2916666666667 854.1666666666667H163.2083333333333zM600.7083333333333 854.1666666666667C568 854.1666666666667 541.6666666666666 827.8270833333333 541.6666666666666 795.125V500C541.6666666666666 467.2979166666667 568.0062499999999 440.9583333333334 600.7083333333333 440.9583333333334H703.9791666666665C728.5041666666665 440.9583333333334 748.2499999999999 421.2135416666668 748.2499999999999 396.6875V367.1875C748.2499999999999 325.0354166666667 716.6312499999999 293.4166666666668 674.4791666666666 293.4166666666668C649.9541666666667 293.4166666666668 630.2083333333333 273.6718750000001 630.2083333333333 249.1458333333335V190.1041666666668C630.2083333333333 165.5833333333334 649.9583333333333 145.8333333333334 674.4791666666666 145.8333333333334C795.8333333333334 145.8333333333334 895.8333333333333 245.8333333333334 895.8333333333333 367.1875V500V603.3125V795.125C895.8333333333333 827.8270833333333 869.4999999999999 854.1666666666667 836.7916666666665 854.1666666666667H600.7083333333333z" />
    <glyph glyph-name="tasks"
      unicode="&#xE00A;"
      horiz-adv-x="1000" d="M242.3125 804.1583333333333C237.3541666666667 804.1583333333333 232.3958333333334 802.2291666666667 228.6041666666667 798.3395833333334L169.2291666666667 737.5L146.4020833333333 760.8958333333334C138.8125 768.6875 126.6083333333334 768.6875 119.01875 760.8958333333334L109.8625 751.5416666666667C102.2729166666667 743.7708333333334 102.2729166666667 731.25 109.8625 723.4791666666667L146.4020833333333 686.0416666666667L155.5166666666667 676.6666666666667C157.4145833333334 674.7291666666667 159.575 673.25 161.90625 672.2916666666667C164.2375000000001 671.3125 166.7541666666667 670.8125 169.2291666666667 670.8125C174.1666666666667 670.8333333333334 179.11875 672.7916666666667 182.9020833333333 676.6666666666667L192.0583333333334 686.0416666666667L265.1458333333334 760.8958333333334C272.7291666666667 768.6875 272.7291666666667 781.1666666666667 265.1458333333334 788.9375L256.0625000000001 798.3395833333334C252.2708333333334 802.2291666666667 247.2708333333334 804.1583333333333 242.3125000000001 804.1583333333333zM354.1666666666667 791.6666666666667C331.0833333333333 791.6666666666667 312.5 773.0833333333334 312.5 750V708.3333333333334C312.5 685.25 331.0833333333333 666.6666666666667 354.1666666666667 666.6666666666667H854.1666666666666C877.2499999999999 666.6666666666667 895.8333333333333 685.25 895.8333333333333 708.3333333333334V750C895.8333333333333 773.0833333333334 877.2499999999999 791.6666666666667 854.1666666666666 791.6666666666667H354.1666666666667zM242.3125 575C237.3541666666667 575 232.3958333333334 573.0625 228.6041666666667 569.1666666666667L169.2291666666667 508.3333333333333L146.4020833333333 531.7291666666667C138.8125 539.5208333333333 126.6083333333334 539.5208333333333 119.01875 531.7291666666667L109.8625 522.375C102.2729166666667 514.6041666666666 102.2729166666667 502.0833333333333 109.8625 494.3124999999999L146.4020833333333 456.875L155.5166666666667 447.5C157.4145833333334 445.5625 159.575 444.0833333333333 161.90625 443.125C164.2375000000001 442.1458333333333 166.7541666666667 441.6458333333333 169.2291666666667 441.6458333333333C174.1666666666667 441.6666666666667 179.11875 443.6249999999999 182.9020833333333 447.4999999999999L192.0583333333334 456.8749999999999L265.1458333333334 531.7291666666665C272.7291666666667 539.5208333333333 272.7291666666667 551.9999999999998 265.1458333333334 559.7708333333333L256.0625000000001 569.1666666666665C252.2708333333334 573.0624999999999 247.2708333333334 574.9999999999999 242.3125000000001 574.9999999999999zM354.1666666666667 562.5C331.0833333333333 562.5 312.5 543.9166666666667 312.5 520.8333333333334V479.1666666666667C312.5 456.0833333333334 331.0833333333333 437.5 354.1666666666667 437.5H854.1666666666666C877.2499999999999 437.5 895.8333333333333 456.0833333333334 895.8333333333333 479.1666666666667V520.8333333333334C895.8333333333333 543.9166666666667 877.2499999999999 562.5 854.1666666666666 562.5H354.1666666666667zM166.6666666666667 333.3333333333334A62.5 62.5 0 0 1 104.1666666666667 270.8333333333334A62.5 62.5 0 0 1 166.6666666666667 208.3333333333334A62.5 62.5 0 0 1 229.1666666666667 270.8333333333334A62.5 62.5 0 0 1 166.6666666666667 333.3333333333334zM354.1666666666667 333.3333333333334C331.0833333333333 333.3333333333334 312.5 314.75 312.5 291.6666666666668V250C312.5 226.9166666666668 331.0833333333333 208.3333333333334 354.1666666666667 208.3333333333334H854.1666666666666C877.2499999999999 208.3333333333334 895.8333333333333 226.9166666666668 895.8333333333333 250V291.6666666666668C895.8333333333333 314.75 877.2499999999999 333.3333333333334 854.1666666666666 333.3333333333334H354.1666666666667z" />
    <glyph glyph-name="list-ol"
      unicode="&#xE00B;"
      horiz-adv-x="1000" d="M165.89375 812.5L120.85 770.3958333333334L144.3270833333334 745.2708333333334C153.60625 753.4375 159.1625 759.3333333333334 160.9291666666667 763.1041666666666H161.58125V759.1458333333334C161.58125 750.3125 161.5270833333333 736.9791666666667 161.4166666666667 719.0833333333334C161.3083333333333 701.1875 161.2541666666667 687.6875 161.2541666666667 678.625H125.7729166666667V645.8333333333334H236.7708333333333V678.625H201.0083333333333V812.5H165.89375zM354.1666666666667 791.6666666666667C331.0833333333333 791.6666666666667 312.5 773.0833333333334 312.5 750V708.3333333333334C312.5 685.25 331.0833333333333 666.6666666666667 354.1666666666667 666.6666666666667H854.1666666666666C877.2499999999999 666.6666666666667 895.8333333333333 685.25 895.8333333333333 708.3333333333334V750C895.8333333333333 773.0833333333334 877.2499999999999 791.6666666666667 854.1666666666666 791.6666666666667H354.1666666666667zM180.4208333333333 583.3333333333334C167.8333333333333 583.3333333333334 156.34375 580.2083333333334 146.0375 574.0208333333334C135.7270833333333 567.8541666666667 128.0125 559.25 122.8020833333333 548.1666666666667L150.4729166666666 528.9791666666667C158.0666666666666 541.5416666666667 166.8583333333333 547.8541666666667 176.8395833333333 547.8541666666667C182.2645833333333 547.8541666666667 186.5083333333333 546.3958333333334 189.65625 543.4583333333335S194.4166666666666 536.3541666666667 194.4166666666666 530.9166666666667C194.4166666666666 525.9166666666667 191.8270833333333 521.0416666666667 186.7270833333333 516.2708333333335S175.5375 506.7500000000001 168.375 502.0833333333334C161.2145833333333 497.4166666666667 154.0541666666666 492.2916666666667 146.8916666666666 486.6458333333334C139.7291666666666 481.0208333333334 133.5583333333333 473.6458333333334 128.4583333333333 464.5208333333334S120.85 445.3125 120.85 434.2500000000001C120.85 430.3333333333334 121.5 424.4791666666668 122.8020833333333 416.6666666666668H240.6458333333333V468.4166666666667H206.4625V448.8958333333334H165.1208333333333C165.3375 454.2916666666667 169.15 460.0000000000001 176.6354166666666 465.9375000000001C184.1229166666667 471.9166666666667 192.35625 477.4166666666667 201.2541666666666 482.4166666666667C210.1458333333333 487.3958333333334 218.2916666666666 494.3958333333334 225.6666666666666 503.4166666666667C233.0416666666666 512.4166666666667 236.7291666666666 522.3541666666667 236.7291666666666 533.2083333333334C236.7291666666666 548.6041666666667 231.3125 560.7916666666667 220.4583333333333 569.8333333333334C209.6041666666666 578.8333333333333 196.2624999999999 583.3333333333334 180.4208333333333 583.3333333333334zM354.1666666666667 562.5C331.0833333333333 562.5 312.5 543.9166666666667 312.5 520.8333333333334V479.1666666666667C312.5 456.0833333333334 331.0833333333333 437.5 354.1666666666667 437.5H854.1666666666666C877.2499999999999 437.5 895.8333333333333 456.0833333333334 895.8333333333333 479.1666666666667V520.8333333333334C895.8333333333333 543.9166666666667 877.2499999999999 562.5 854.1666666666666 562.5H354.1666666666667zM125.0833333333333 354.1666666666668V304.6875H159.5895833333333V321.9375000000001C163.0625 321.9375000000001 168.2833333333333 322.0416666666669 175.3354166666667 322.2708333333334C182.3895833333333 322.4791666666668 187.69375 322.5833333333334 191.1645833333333 322.5833333333334V322.2708333333334C187.0395833333333 318.3541666666667 183.0270833333333 314.1875000000001 179.1208333333333 309.7291666666668S170.5604166666667 299.4166666666669 165.24375 292.1458333333335S156.4416666666667 280.1666666666668 154.70625 278.0000000000001L163.16875 259.7708333333334C185.9541666666667 261.5 197.35 255.4166666666667 197.35 241.5416666666668C197.35 235.4375000000001 194.975 230.8541666666668 190.3104166666667 227.7083333333334C185.64375 224.5416666666666 180.2041666666667 222.9791666666668 173.9125 222.9791666666668C161.5416666666667 222.9791666666668 150.0395833333334 227.8750000000001 139.40625 237.6250000000001L120.8520833333334 208.9791666666669C135.1729166666667 194.6666666666669 153.8416666666667 187.5000000000002 176.8416666666667 187.5000000000002C194.4208333333334 187.5000000000002 209.0854166666667 192.5000000000002 220.9187500000001 202.4791666666669S238.6479166666667 226.1041666666669 238.6479166666667 243.5000000000003C238.6479166666667 254.541666666667 235.3770833333334 264.0833333333336 228.8770833333334 272.1250000000004C222.35625 280.166666666667 213.6270833333334 285.4583333333336 202.5583333333334 288.0833333333336L233.3979166666667 325.5208333333335V354.1666666666669H125.0833333333334zM354.1666666666667 333.3333333333334C331.0833333333333 333.3333333333334 312.5 314.75 312.5 291.6666666666668V250C312.5 226.9166666666668 331.0833333333333 208.3333333333334 354.1666666666667 208.3333333333334H854.1666666666666C877.2499999999999 208.3333333333334 895.8333333333333 226.9166666666668 895.8333333333333 250V291.6666666666668C895.8333333333333 314.75 877.2499999999999 333.3333333333334 854.1666666666666 333.3333333333334H354.1666666666667z" />
    <glyph glyph-name="table"
      unicode="&#xE00C;"
      horiz-adv-x="1000" d="M166.6666666666667 791.6666666666667C132.0416666666667 791.6666666666667 104.1666666666667 763.7916666666666 104.1666666666667 729.1666666666667V270.8333333333334C104.1666666666667 236.2083333333334 132.0416666666667 208.3333333333334 166.6666666666667 208.3333333333334H833.3333333333333C867.9583333333333 208.3333333333334 895.8333333333333 236.2083333333334 895.8333333333333 270.8333333333334V729.1666666666667C895.8333333333333 763.7916666666666 867.9583333333333 791.6666666666667 833.3333333333333 791.6666666666667H166.6666666666667zM187.5 625H458.3333333333333V500H187.5V625zM541.6666666666666 625H812.5V500H541.6666666666666V625zM187.5 416.6666666666668H458.3333333333333V291.6666666666668H187.5V416.6666666666668zM541.6666666666666 416.6666666666668H812.5V291.6666666666668H541.6666666666666V416.6666666666668z" />
    <glyph glyph-name="chevron-down"
      unicode="&#xE00D;"
      horiz-adv-x="1000" d="M102.5479166666667 657.9166666666666C102.5479166666667 647.9893749999999 106.356875 638.065 113.96375 630.4583333333333L429.3595833333333 315.0625C429.4887499999999 314.93125 429.5710416666666 314.7752083333334 429.7010416666667 314.6452083333334L470.8885416666666 273.4577083333335C474.7104166666667 269.6358333333334 479.1222916666666 266.7881250000001 483.8214583333333 264.8864583333334C486.1370833333333 263.9493750000001 488.5297916666667 263.2335416666667 490.9516666666667 262.7625000000001C490.9745833333333 262.7578541666668 491.00375 262.7671041666668 491.0266666666666 262.7625000000001C493.4606249999999 262.2941666666667 495.9152083333333 262.0395833333334 498.3843749999999 262.041875C498.3969791666666 262.0418541666668 498.409375 262.041875 498.4239583333332 262.041875C500.880625 262.0466458333333 503.3229166666666 262.291875 505.7437499999999 262.7625000000001C508.2037499999999 263.2333333333334 510.5987499999999 263.9350000000001 512.9497916666666 264.8864583333334C517.6489583333333 266.7881250000001 522.060625 269.6358333333334 525.8827083333332 273.4577083333335L567.0702083333333 314.6452083333334C567.2014583333332 314.7764583333334 567.2839583333332 314.9312500000001 567.4116666666666 315.0625L882.8074999999999 630.4583333333333C898.0212499999999 645.6720833333334 898.0212499999999 670.1624999999999 882.8074999999999 685.375L841.6199999999999 726.5625C826.4062499999999 741.7762499999999 801.9158333333332 741.7762499999999 786.7033333333331 726.5625L498.3908333333333 438.2499999999999L210.0783333333332 726.5624999999999C194.8645833333333 741.7762499999999 170.3741666666666 741.7762499999999 155.1616666666666 726.5624999999999L113.9741666666666 685.3749999999999C106.3658333333332 677.7708333333333 102.5574999999999 667.8333333333333 102.5574999999999 657.9166666666665z" />
    <glyph glyph-name="chevron-left"
      unicode="&#xE00E;"
      horiz-adv-x="1000" d="M656.2916666666666 895.8333333333334C646.3643749999999 895.8333333333334 636.4399999999999 892.024375 628.8333333333333 884.4175L313.4375 569.0216666666668C313.30625 568.8925 313.1502083333333 568.8102083333333 313.0202083333333 568.6802083333333L271.8327083333333 527.4927083333333C268.0108333333333 523.6708333333333 265.1631249999999 519.2589583333333 263.2614583333333 514.5597916666667C262.3243749999999 512.2441666666667 261.6085416666666 509.8514583333334 261.1375 507.4295833333334C261.1328541666666 507.4066666666666 261.1421041666666 507.3775 261.1375 507.3545833333334C260.6691666666667 504.920625 260.4145833333333 502.4660416666667 260.416875 499.996875C260.4168541666666 499.9842708333334 260.416875 499.9718750000001 260.416875 499.9572916666668C260.4216458333333 497.5006250000001 260.666875 495.0583333333334 261.1375 492.6375000000001C261.6083333333333 490.1775000000001 262.31 487.7825000000001 263.2614583333333 485.4314583333334C265.1631249999999 480.7322916666667 268.0108333333333 476.3206250000001 271.8327083333333 472.4985416666667L313.0202083333333 431.3110416666667C313.1514583333333 431.1797916666668 313.30625 431.0972916666668 313.4375 430.9695833333334L628.8333333333333 115.57375C644.0470833333333 100.36 668.5374999999999 100.36 683.75 115.57375L724.9374999999999 156.7612499999999C740.1512499999999 171.9749999999999 740.1512499999999 196.4654166666666 724.9374999999999 211.6779166666667L436.625 499.9904166666666L724.9374999999999 788.3029166666666C740.1512499999999 803.5166666666667 740.1512499999999 828.0070833333332 724.9374999999999 843.2195833333333L683.75 884.4070833333333C676.1458333333333 892.0154166666666 666.2083333333334 895.8237499999999 656.2916666666666 895.8237499999999z" />
    <glyph glyph-name="chevron-right"
      unicode="&#xE00F;"
      horiz-adv-x="1000" d="M340.4791666666667 104.1666666666667C350.4064583333333 104.1666666666667 360.3308333333333 107.9756250000002 367.9375 115.5825000000001L683.3333333333333 430.9783333333335C683.4645833333333 431.1075000000001 683.6206249999999 431.1897916666668 683.7506249999999 431.3197916666668L724.9381249999998 472.5072916666668C728.7599999999998 476.3291666666668 731.6077083333332 480.7410416666668 733.5093749999997 485.4402083333334C734.4464583333332 487.7558333333334 735.1622916666665 490.1485416666667 735.6333333333332 492.5704166666668C735.6379791666665 492.5933333333335 735.6287291666664 492.6225000000001 735.6333333333332 492.6454166666667C736.1016666666666 495.0793750000001 736.3562499999998 497.5339583333334 736.3539583333333 500.0031250000001C736.3539791666665 500.0157291666667 736.3539583333333 500.028125 736.3539583333333 500.0427083333334C736.3491875 502.4993750000001 736.1039583333331 504.9416666666667 735.6333333333332 507.3625000000001C735.1624999999999 509.8225 734.4608333333332 512.2175 733.5093749999997 514.5685416666668C731.6077083333332 519.2677083333334 728.7599999999998 523.679375 724.9381249999998 527.5014583333334L683.7506249999999 568.6889583333334C683.6193749999998 568.8202083333333 683.4645833333332 568.9027083333333 683.3333333333333 569.0304166666667L367.9375 884.4262500000001C352.7237499999999 899.6400000000001 328.2333333333333 899.6400000000001 313.0208333333333 884.4262500000001L271.8333333333333 843.23875C256.6195833333333 828.0250000000001 256.6195833333333 803.5345833333333 271.8333333333333 788.3220833333335L560.1458333333333 500.0095833333335L271.8333333333333 211.6970833333335C256.6195833333333 196.4833333333335 256.6195833333333 171.9929166666668 271.8333333333333 156.7804166666667L313.0208333333333 115.5929166666669C320.625 107.9845833333335 330.5625 104.1762500000001 340.4791666666667 104.1762500000001z" />
    <glyph glyph-name="chevron-up"
      unicode="&#xE010;"
      horiz-adv-x="1000" d="M894.2083333333333 342.0833333333334C894.2083333333333 352.0106250000001 890.3993749999998 361.9350000000001 882.7924999999998 369.5416666666668L567.3966666666665 684.9375C567.2674999999998 685.0687500000001 567.1852083333332 685.2247916666668 567.0552083333332 685.3547916666668L525.8677083333331 726.5422916666668C522.0458333333331 730.3641666666667 517.6339583333332 733.2118750000001 512.9347916666665 735.1135416666667C510.6191666666665 736.0506250000001 508.2264583333332 736.7664583333334 505.8045833333331 737.2375000000001C505.7816666666665 737.2421458333334 505.7524999999998 737.2328958333335 505.7295833333332 737.2375000000001C503.2956249999999 737.7058333333334 500.8410416666666 737.9604166666668 498.3718749999999 737.9581250000001C498.3592708333332 737.9581458333334 498.3468749999998 737.9581250000001 498.3322916666665 737.9581250000001C495.8756249999998 737.9533541666667 493.4333333333332 737.7081250000001 491.0124999999999 737.2375000000001C488.5524999999999 736.7666666666667 486.1574999999999 736.065 483.8064583333332 735.1135416666667C479.1072916666665 733.2118750000001 474.6956249999999 730.3641666666667 470.8735416666665 726.5422916666668L429.6860416666666 685.3547916666668C429.5547916666666 685.2235416666667 429.4722916666666 685.0687500000001 429.3445833333332 684.9375L113.9487499999999 369.5416666666668C98.7349999999999 354.3279166666668 98.7349999999999 329.8375000000001 113.9487499999999 314.6250000000001L155.1362499999999 273.4375000000003C170.3499999999999 258.2237500000001 194.8404166666666 258.2237500000001 210.0529166666665 273.4375000000003L498.3654166666665 561.7500000000002L786.6779166666664 273.4375000000003C801.8916666666664 258.2237500000001 826.3820833333331 258.2237500000001 841.5945833333332 273.4375000000003L882.782083333333 314.6250000000001C890.3904166666665 322.2291666666669 894.1987499999998 332.1666666666668 894.1987499999998 342.0833333333335z" />
    <glyph glyph-name="cloud-download"
      unicode="&#xE011;"
      horiz-adv-x="1000" d="M401.0416666666667 747.3958333333334C279.7083333333333 747.3958333333334 181.0625 650.3333333333334 178.4583333333334 529.625C134.06875 503.9166666666667 104.1666666666667 455.8958333333334 104.1666666666667 401.0416666666668C104.1666666666667 319.0625 170.6416666666667 252.6041666666668 252.6041666666667 252.6041666666668H747.3958333333333C829.375 252.6041666666668 895.8333333333333 319.2291666666668 895.8333333333333 401.0416666666668C895.8333333333333 469.4375 840.25 520.4166666666667 773.8125 532.7083333333334C802.6041666666666 637.4375 683.8333333333333 721.9791666666667 590.4583333333333 641.8541666666667C551.1874999999999 705.1875 481.0416666666666 747.3958333333334 401.0416666666667 747.3958333333334zM399.2083333333333 625H434.125C447.5416666666666 625 458.3333333333333 614.2083333333333 458.3333333333333 600.7916666666667V482.5416666666666C458.3333333333333 481.3333333333334 457.8124999999999 480.3125 457.6458333333332 479.1666666666667H520.8749999999999C539.4374999999999 479.1666666666667 548.7291666666665 456.7291666666667 535.6041666666665 443.6041666666667L431.4374999999999 339.4375C423.2916666666666 331.3125 410.1041666666665 331.3125 401.9791666666665 339.4375L297.8124999999999 443.6041666666667C284.6874999999999 456.7291666666666 293.9791666666666 479.1666666666667 312.5416666666666 479.1666666666667H375.6874999999999C375.5208333333332 480.3125 374.9999999999999 481.3333333333334 374.9999999999999 482.5416666666666V600.7916666666667C374.9999999999999 614.2083333333333 385.7916666666665 625 399.2083333333332 625z" />
    <glyph glyph-name="cloud-upload"
      unicode="&#xE012;"
      horiz-adv-x="1000" d="M401.0416666666667 747.3958333333334C279.7083333333333 747.3958333333334 181.0625 650.3333333333334 178.4583333333334 529.625C134.06875 503.9166666666667 104.1666666666667 455.8958333333334 104.1666666666667 401.0416666666668C104.1666666666667 319.0625 170.6416666666667 252.6041666666668 252.6041666666667 252.6041666666668H747.3958333333333C829.375 252.6041666666668 895.8333333333333 319.2291666666668 895.8333333333333 401.0416666666668C895.8333333333333 469.4375 840.25 520.4166666666667 773.8125 532.7083333333334C802.6041666666666 637.4375 683.8333333333333 721.9791666666667 590.4583333333333 641.8541666666667C551.1874999999999 705.1875 481.0416666666666 747.3958333333334 401.0416666666667 747.3958333333334zM416.7083333333333 625C422.0416666666667 625 427.375 622.9583333333334 431.4375 618.8958333333334L535.6041666666666 514.7291666666667C548.7291666666666 501.6041666666667 539.4375 479.1666666666667 520.875 479.1666666666667H457.6458333333333C457.8124999999999 478.0208333333334 458.3333333333333 477 458.3333333333333 475.7916666666667V357.5416666666667C458.3333333333333 344.125 447.5416666666667 333.3333333333334 434.125 333.3333333333334H399.2083333333334C385.7916666666668 333.3333333333334 375.0000000000001 344.125 375.0000000000001 357.5416666666667V475.7916666666667C375.0000000000001 477 375.5208333333334 478.0208333333334 375.6875000000001 479.1666666666667H312.5416666666668C293.9791666666668 479.1666666666667 284.6875000000001 501.6041666666666 297.8125000000001 514.7291666666667L401.9791666666667 618.8958333333334C406.0416666666667 622.9583333333334 411.375 625 416.7083333333334 625z" />
    <glyph glyph-name="cloud"
      unicode="&#xE013;"
      horiz-adv-x="1000" d="M104.1791666666667 401.0416666666668C104.1791666666667 455.8895833333333 134.0520833333333 503.9083333333334 178.45 529.6125C181.0427083333333 650.33125 279.7125 747.3833333333333 401.0541666666666 747.3833333333333C481.05 747.3833333333333 551.1895833333332 705.1979166666666 590.4458333333333 641.8604166666667C683.8354166666667 721.9958333333333 802.6125 637.4370833333332 773.8187499999999 532.7229166666666C840.2562499999999 520.4312499999999 895.8187499999999 469.4520833333332 895.8187499999999 401.05625C895.8187499999999 319.24375 829.3604166666667 252.61875 747.3812499999999 252.61875H252.5895833333333C170.6270833333333 252.61875 104.1520833333333 319.0770833333333 104.1520833333333 401.05625z" />
    <glyph glyph-name="chart-bar"
      unicode="&#xE014;"
      horiz-adv-x="1000" d="M770.8333333333333 895.8333333333334C747.75 895.8333333333334 729.1666666666666 877.25 729.1666666666666 854.1666666666667V270.8333333333334C729.1666666666666 247.7500000000001 747.75 229.1666666666668 770.8333333333333 229.1666666666668H854.1666666666666C877.2499999999999 229.1666666666668 895.8333333333333 247.7500000000001 895.8333333333333 270.8333333333334V854.1666666666667C895.8333333333333 877.25 877.2499999999999 895.8333333333334 854.1666666666666 895.8333333333334H770.8333333333333zM354.1666666666667 791.6666666666667C331.0833333333333 791.6666666666667 312.5 773.0833333333334 312.5 750V270.8333333333334C312.5 247.7500000000001 331.0833333333333 229.1666666666668 354.1666666666667 229.1666666666668H437.5C460.5833333333333 229.1666666666668 479.1666666666666 247.7500000000001 479.1666666666666 270.8333333333334V750C479.1666666666666 773.0833333333334 460.5833333333333 791.6666666666667 437.5 791.6666666666667H354.1666666666667zM145.8333333333333 625C122.75 625 104.1666666666667 606.4166666666667 104.1666666666667 583.3333333333334V270.8333333333334C104.1666666666667 247.7500000000001 122.75 229.1666666666668 145.8333333333333 229.1666666666668H229.1666666666667C252.25 229.1666666666668 270.8333333333333 247.7500000000001 270.8333333333333 270.8333333333334V583.3333333333334C270.8333333333333 606.4166666666667 252.25 625 229.1666666666667 625H145.8333333333333zM562.5 541.6666666666667C539.4166666666666 541.6666666666667 520.8333333333333 523.0833333333334 520.8333333333333 500V270.8333333333334C520.8333333333333 247.7500000000001 539.4166666666666 229.1666666666668 562.5 229.1666666666668H645.8333333333333C668.9166666666665 229.1666666666668 687.5 247.7500000000001 687.5 270.8333333333334V500C687.5 523.0833333333334 668.9166666666665 541.6666666666667 645.8333333333333 541.6666666666667H562.5zM125 187.5C113.4583333333333 187.5 104.1666666666667 178.2083333333334 104.1666666666667 166.6666666666668V125C104.1666666666667 113.4583333333334 113.4583333333333 104.1666666666667 125 104.1666666666667H875C886.5416666666666 104.1666666666667 895.8333333333333 113.4583333333334 895.8333333333333 125V166.6666666666668C895.8333333333333 178.2083333333334 886.5416666666666 187.5 875 187.5H125z" />
    <glyph glyph-name="cross"
      unicode="&#xE015;"
      horiz-adv-x="1000" d="M194.8395833333333 895.8479166666667C181.3816666666667 895.8479166666667 167.93125 890.6777083333334 157.61875 880.3654166666666L119.6354166666667 842.3904166666666C99.0110416666667 821.7660416666666 99.0110416666667 788.5758333333333 119.6354166666667 767.9508333333333L387.5520833333333 499.9925L119.6354166666667 232.0966666666667C99.0110416666667 211.4722916666667 99.0110416666667 178.2362500000001 119.6354166666667 157.6112500000001L157.6104166666667 119.63625C178.2347916666667 99.011875 211.425 99.011875 232.05 119.63625L500.0083333333333 387.57375L767.9041666666667 119.6154166666668C788.5285416666667 98.9910416666668 821.7645833333332 98.9910416666668 842.3895833333332 119.6154166666668L880.3645833333333 157.5904166666668C900.9889583333332 178.2147916666668 900.9889583333332 211.4508333333334 880.3645833333333 232.0758333333333L612.4270833333333 499.9925L880.3854166666666 767.9508333333333C901.0097916666666 788.5752083333333 901.0097916666666 821.7654166666666 880.3854166666666 842.3904166666666L842.4062499999999 880.3570833333333C821.7818749999999 900.9814583333334 788.5458333333333 900.9814583333334 767.9208333333332 880.3570833333333L500.0041666666666 612.4404166666667L232.0458333333333 880.3570833333333C221.7333333333333 890.6591666666667 208.2875 895.83 194.8291666666666 895.83z" />
    <glyph glyph-name="edit"
      unicode="&#xE016;"
      horiz-adv-x="1000" d="M145.8333333333333 895.8291666666667A41.67083333333332 41.67083333333332 0 0 1 104.1666666666667 854.1625V145.8291666666668A41.67083333333332 41.67083333333332 0 0 1 145.8333333333333 104.1625H854.1666666666666A41.67083333333332 41.67083333333332 0 0 1 895.8333333333333 145.8291666666668V674.8916666666667L812.5 591.5583333333334V187.4958333333334H187.5V812.4958333333334H591.5625L674.8958333333333 895.8291666666667H145.8333333333333zM801.3958333333333 895.7479166666667C767.8749999999999 896.3854166666666 742.5833333333333 873.625 721.0208333333334 850.74375L850.7083333333334 721.0583333333334C858.2708333333334 728.6416666666667 865.8541666666666 736.225 873.4166666666667 743.8083333333334C915.75 788.1 895.0208333333334 869.8833333333333 837.3541666666667 889.8479166666667C825.9166666666667 894.2229166666666 813.625 896.11875 801.3958333333334 895.74375zM682.0833333333331 811.8041666666667C551.5208333333333 681.1208333333334 420.5 550.8041666666668 290.4374999999999 419.6375000000001C277.6666666666666 401.8668750000001 270.9166666666666 380.2833333333333 270.8335416666666 362.575V270.8250000000001H362.6252083333332C386.8127083333332 270.7833333333333 409.6043749999999 280.2833333333334 423.6252083333332 293.9708333333333C553.1043749999999 423.2625 682.5210416666666 552.6375 811.7710416666664 682.1583333333333L682.0835416666664 811.7916666666666z" />
    <glyph glyph-name="chart-line"
      unicode="&#xE017;"
      horiz-adv-x="1000" d="M812.5 791.6666666666667A62.5 62.5 0 0 1 750 729.1666666666667A62.5 62.5 0 0 1 758.17875 698.4458333333333L604.6787499999999 437.4666666666667A62.5 62.5 0 0 1 604.1579166666667 437.5083333333334A62.5 62.5 0 0 1 593.5329166666667 436.6125000000001L454.4079166666666 603.5291666666667A62.5 62.5 0 0 1 458.3245833333333 625.0083333333333A62.5 62.5 0 0 1 395.8245833333333 687.5083333333333A62.5 62.5 0 0 1 333.3245833333333 625.0083333333333A62.5 62.5 0 0 1 334.0570833333333 615.6495833333333L210.155 516.52875A62.5 62.5 0 0 1 187.4883333333333 520.84125A62.5 62.5 0 0 1 124.9883333333333 458.3412500000001A62.5 62.5 0 0 1 187.4883333333333 395.8412500000001A62.5 62.5 0 0 1 249.9883333333333 458.3412500000001A62.5 62.5 0 0 1 249.2558333333334 467.7L373.1579166666667 566.8208333333333A62.5 62.5 0 0 1 395.8245833333334 562.5083333333333A62.5 62.5 0 0 1 406.4912500000001 563.4041666666667L545.5745833333334 396.4875A62.5 62.5 0 0 1 541.6579166666668 375.0083333333334A62.5 62.5 0 0 1 604.1579166666668 312.5083333333334A62.5 62.5 0 0 1 666.6579166666668 375.0083333333334A62.5 62.5 0 0 1 658.4791666666667 405.7291666666667L812.0020833333335 666.7083333333333A62.5 62.5 0 0 1 812.5020833333335 666.6666666666666A62.5 62.5 0 0 1 875.0020833333335 729.1666666666666A62.5 62.5 0 0 1 812.5020833333335 791.6666666666666zM125 187.5C113.4583333333333 187.5 104.1666666666667 178.2083333333334 104.1666666666667 166.6666666666668V125C104.1666666666667 113.4583333333334 113.4583333333333 104.1666666666667 125 104.1666666666667H875C886.5416666666666 104.1666666666667 895.8333333333333 113.4583333333334 895.8333333333333 125V166.6666666666668C895.8333333333333 178.2083333333334 886.5416666666666 187.5 875 187.5H125z" />
    <glyph glyph-name="exclamation"
      unicode="&#xE018;"
      horiz-adv-x="1000" d="M416.8333333333333 896.11875C400.9791666666667 894.9625 386.125 881.575 385.5 863.44375C389.9166666666666 720.9166666666667 394.9375 578.44375 399.625 435.9229166666667C397.7291666666666 415.4229166666668 411.0416666666666 393.9645833333334 430.6666666666666 392.2145833333334C473.3958333333333 391.8395833333334 516.1041666666665 392.1729166666668 558.8333333333333 392.0479166666668C577.625 389.1729166666667 597.5833333333333 403.1729166666667 599.8541666666666 424.44375C605.0833333333333 569.5687500000001 609.625 714.7354166666667 614.5833333333333 859.8604166666667C615.6875 877.5729166666666 602 894.2458333333333 585.8958333333334 895.6770833333333C531.8333333333334 896.0645833333333 477.7083333333333 895.7291666666666 423.6250000000001 895.8395833333333C421.3541666666667 896.1958333333333 419.0833333333334 896.2895833333333 416.8333333333334 896.125zM496.3333333333333 312.0145833333334C463.9374999999999 310.8687500000001 432.0416666666667 295.7229166666666 414.0208333333333 267.1187500000001C373.7916666666666 212.8270833333334 403.9583333333333 126.3270833333334 469.1874999999999 108.8062500000001C532.9166666666666 86.4729166666667 606.7291666666666 140.7854166666667 604.1666666666665 208.3270833333335C604.2291666666665 231.6395833333335 596.1249999999999 254.8479166666667 581.5833333333333 273.0562500000001C561.5833333333333 300.3062500000001 528.7291666666666 313.1604166666667 496.3333333333333 312.0145833333334z" />
    <glyph glyph-name="expand"
      unicode="&#xE019;"
      horiz-adv-x="1000" d="M145.8333333333333 895.8333333333334C135 895.8208333333333 124.6291666666667 891.5458333333333 116.8208333333333 884.0333333333333C108.7395833333333 876.1958333333333 104.1791666666667 865.4229166666667 104.1666666666667 854.1666666666667V677.4166666666667C104.18125 640.2916666666667 149.0416666666667 621.7291666666667 175.29375 647.9583333333334L226.8541666666667 699.5L426.3541666666667 500L226.8541666666667 300.5L175.29375 352.0416666666668C149.0416666666667 378.2708333333334 104.18125 359.7083333333334 104.1666666666667 322.5833333333334V145.8333333333334C104.1791666666667 134.5833333333334 108.7395833333333 123.8125 116.8208333333333 115.9583333333335C124.6291666666667 108.4583333333335 135 104.1875000000001 145.8333333333333 104.1666666666667H322.5833333333333C359.7083333333333 104.1875 378.2708333333333 149.0416666666666 352.0416666666667 175.2916666666668L300.5 226.8541666666668L500 426.3541666666668L699.5 226.8541666666668L647.9583333333333 175.2916666666668C621.7291666666666 149.0416666666668 640.2916666666666 104.1875000000001 677.4166666666666 104.1666666666667H854.1666666666666C865 104.1875 875.375 108.4583333333335 883.1875 115.9583333333335C891.25 123.8125000000001 895.8125 134.5833333333334 895.8333333333333 145.8333333333334V322.5833333333334C895.8125 359.7083333333334 850.9583333333334 378.2708333333335 824.7083333333333 352.0416666666668L773.1458333333333 300.5000000000003L573.6458333333333 500.0000000000002L773.1458333333333 699.5000000000002L824.7083333333333 647.9583333333335C850.9583333333333 621.7291666666669 895.8124999999999 640.2916666666669 895.8333333333333 677.4166666666669V854.1666666666669C895.8125 865.4166666666669 891.25 876.1791666666668 883.1875 884.0333333333335C875.375 891.5333333333335 865 895.8125000000002 854.1666666666666 895.8333333333335H677.4166666666666C640.2916666666666 895.8125000000001 621.7291666666665 850.9562500000002 647.9583333333333 824.7062500000002L699.4999999999998 773.1458333333335L499.9999999999998 573.6458333333335L300.4999999999999 773.1458333333335L352.0416666666665 824.7062500000002C378.2708333333332 850.9583333333335 359.7083333333332 895.8187500000001 322.5833333333332 895.8333333333335H145.8333333333332z" />
    <glyph glyph-name="file-empty"
      unicode="&#xE01A;"
      horiz-adv-x="1000" d="M229.1666666666667 895.8333333333334C206.15625 895.83125 187.5020833333333 877.1770833333334 187.5 854.1666666666667V145.8333333333334C187.5023 122.8229166666666 206.1558333333333 104.1687500000002 229.1666666666667 104.1666666666667H770.8333333333333C793.84375 104.1689583333334 812.4979166666666 122.8225 812.5 145.8333333333334V645.8333333333334H645.8333333333333C622.8229166666666 645.8356249999999 604.1687499999999 664.4891666666667 604.1666666666666 687.5V895.8333333333334H229.1666666666667zM645.8333333333333 895.8333333333334V708.3333333333334C645.8333333333333 696.8275000000001 655.1608333333334 687.5 666.6666666666666 687.5H812.5L645.8333333333333 895.8333333333334z" />
    <glyph glyph-name="file"
      unicode="&#xE01B;"
      horiz-adv-x="1000" d="M229.1666666666667 895.8333333333334C206.15625 895.83125 187.5020833333333 877.1770833333334 187.5 854.1666666666667V145.8333333333334C187.5020833333333 122.8125000000001 206.15625 104.1666666666667 229.1666666666667 104.1666666666667H770.8333333333333C793.8541666666665 104.1666666666667 812.5 122.8125000000001 812.5 145.8333333333334V645.8333333333334H645.8333333333333C622.8125 645.8333333333334 604.1666666666666 664.4791666666667 604.1666666666666 687.5V895.8333333333334H229.1666666666667zM645.8333333333333 895.8333333333334V708.3333333333334C645.8333333333333 696.8333333333334 655.1666666666666 687.5 666.6666666666666 687.5H812.5L645.8333333333333 895.8333333333334zM310.8333333333334 458.3333333333334H689.1666666666666C714.75 458.7291666666666 714.75 416.2708333333334 689.1666666666666 416.6666666666668H310.8333333333333C285.25 416.2708333333334 285.25 458.7291666666666 310.8333333333333 458.3333333333334zM310.8333333333334 375H689.1666666666666C714.75 375.3958333333334 714.75 332.9375000000001 689.1666666666666 333.3333333333334H310.8333333333333C285.25 332.9375000000001 285.25 375.3958333333334 310.8333333333333 375zM310.8333333333334 291.6666666666668H689.1666666666666C714.75 292.0625 714.75 249.6041666666668 689.1666666666666 250H310.8333333333333C285.25 249.6041666666668 285.25 292.0625 310.8333333333333 291.6666666666668z" />
    <glyph glyph-name="flask"
      unicode="&#xE01C;"
      horiz-adv-x="1000" d="M358.3125 895.8333333333334C338.6875 895.8333333333334 322.9166666666667 881.8958333333334 322.9166666666667 864.5833333333334V843.75C322.9166666666667 826.4375 338.6875 812.5 358.3125 812.5H375V613.2083333333333L170.4104166666667 163.0833333333333C157.8666666666667 135.5 178.0291666666667 104.1666666666665 208.3333333333333 104.1666666666665H791.6666666666666C821.9791666666666 104.1666666666665 842.1249999999999 135.4999999999999 829.5833333333333 163.0833333333333L625 613.2083333333333V812.5H641.6874999999999C661.3124999999999 812.5 677.0833333333333 826.4375 677.0833333333333 843.75V864.5833333333333C677.0833333333333 881.8958333333333 661.3124999999999 895.8333333333333 641.6874999999999 895.8333333333333H358.3125zM458.3333333333333 812.5H541.6666666666666V604.1666666666667C541.6666666666666 598.2083333333333 542.9375 592.3333333333333 545.4166666666666 586.9166666666667L626.75 407.9166666666667C503.7916666666666 411.3333333333334 463.7708333333333 302.1249999999999 342.25 339.7708333333334L454.5833333333333 586.9166666666666C457.0624999999999 592.3333333333333 458.3333333333333 598.2083333333333 458.3333333333333 604.1666666666666V812.5z" />
    <glyph glyph-name="folder"
      unicode="&#xE01D;"
      horiz-adv-x="1000" d="M208.3333333333333 817.7083333333334C150.80625 817.70258125 104.1729166666667 771.06875 104.1666666666667 713.5416666666667V286.4583333333334C104.17241875 228.9312500000001 150.80625 182.2979166666668 208.3333333333333 182.2916666666668H791.6666666666666C849.1937499999999 182.2974166666667 895.8270833333332 228.9312500000001 895.8333333333333 286.4583333333334V619.7916666666667C895.8275833333333 677.31875 849.1937499999999 723.9520833333333 791.6666666666666 723.9583333333334H562.5C513.4229166666667 756.24375 437.5 817.7083333333334 437.5 817.7083333333334z" />
    <glyph glyph-name="heart"
      unicode="&#xE01E;"
      horiz-adv-x="1000" d="M895.7916666666665 621.625C898.1041666666665 725.1041666666667 813.0625 820.5354166666667 709.9166666666665 831.4375C628.0416666666665 842.8875 542.0833333333333 801.5854166666667 500.1874999999998 730.6041666666667C448.7916666666665 819.53125 328.6249999999999 858.0145833333333 234.6458333333332 816.5187500000001C140.7479166666665 779.2291666666667 84.6437499999998 669.5416666666667 110.4479166666665 571.9979166666667C121.5020833333332 519.1875 157.8812499999999 477.8875 197.2145833333332 443.2791666666667C291.9312499999999 353.2520833333333 386.7395833333332 263.3104166666667 481.4020833333332 173.2375C503.9104166666665 155.3370833333334 525.0145833333332 178.093125 540.2083333333333 193.4620833333332C639.9270833333333 288.6516666666666 740.8770833333332 383.1704166666666 839.7916666666665 478.7745833333332C875.6020833333331 517.19125 896.0708333333332 569.1995833333333 895.7895833333332 621.6308333333332z" />
    <glyph glyph-name="home"
      unicode="&#xE01F;"
      horiz-adv-x="1000" d="M499.6249999999999 830.1291666666666C494.4654166666666 830.1291666666666 489.2960416666666 828.1010416666667 485.3425 824.1475L359.1591666666667 698.0058333333334V767.9954166666666C359.1591666666667 777.1947916666667 351.7566666666667 784.5975000000001 342.5570833333333 784.5975000000001H291.4904166666667C282.2910416666667 784.5975000000001 274.8883333333333 777.195 274.8883333333333 767.9954166666666V613.735L89.255 428.1433333333333C81.3479166666667 420.2362500000001 81.3479166666667 407.4852083333334 89.255 399.57875L104.7177083333333 384.0754166666667C112.6247916666667 376.1683333333334 125.3758333333334 376.1683333333334 133.2822916666667 384.0754166666667L500.0114583333334 750.84625L866.7614583333334 384.0754166666667C874.6683333333334 376.1683333333334 887.3789583333333 376.1683333333334 895.2864583333334 384.0754166666667L910.7491666666668 399.57875C918.6560416666669 407.4858333333334 918.6560416666669 420.2368750000001 910.7491666666668 428.1433333333333L514.6658333333334 824.1433333333333C510.6033333333334 828.20375 505.3116666666667 830.15375 500.02 830.0454166666666C499.895 830.0477291666666 499.7785416666667 830.1266666666667 499.6537500000001 830.1266666666667zM499.9912499999999 711.5541666666667L208.3245833333333 419.8875000000001V198.4083333333334C208.3245833333333 182.5897916666668 221.07125 169.8833333333335 236.8891666666667 169.8833333333335H388.0975C403.9160416666666 169.8833333333335 416.6620833333333 182.5893750000001 416.6620833333333 198.4083333333334V378.2229166666667H583.3329166666666V200.8104166666667C583.3329166666666 184.9918750000001 596.0795833333333 172.2458333333334 611.8974999999999 172.2458333333334H763.1058333333332C778.9243749999998 172.2458333333334 791.6704166666665 184.9925000000001 791.6704166666665 200.8104166666667V419.89375L500.0037499999999 711.5604166666667z" />
    <glyph glyph-name="briefcase"
      unicode="&#xE020;"
      horiz-adv-x="1000" d="M395.8333333333333 822.9166666666667A31.254166666666663 31.254166666666663 0 0 1 364.5833333333333 791.6666666666667V718.75H187.5C141.3333333333333 718.75 104.1666666666667 681.5833333333333 104.1666666666667 635.4166666666667V572.9166666666667H458.3333333333333H541.6666666666666H895.8333333333333V635.4166666666667C895.8333333333333 681.5833333333334 858.6666666666666 718.75 812.5 718.75H635.4166666666666V791.6666666666667A31.254166666666663 31.254166666666663 0 0 1 604.1666666666666 822.9166666666667H395.8333333333333zM427.0833333333333 760.4166666666667H572.9166666666666V718.75H427.0833333333333V760.4166666666667zM104.1666666666667 510.4166666666667V260.4166666666668C104.1666666666667 214.25 141.3333333333333 177.0833333333334 187.5 177.0833333333334H812.5C858.6666666666666 177.0833333333334 895.8333333333333 214.25 895.8333333333333 260.4166666666668V510.4166666666667H583.3333333333333V447.9166666666668C583.3333333333333 424.8333333333334 564.75 406.25 541.6666666666666 406.25H458.3333333333333C435.25 406.25 416.6666666666667 424.8333333333334 416.6666666666667 447.9166666666668V510.4166666666667H104.1666666666667z" />
    <glyph glyph-name="info"
      unicode="&#xE021;"
      horiz-adv-x="1000" d="M500 895.8333333333334A104.16666666666667 104.16666666666667 0 0 1 395.8333333333333 791.6666666666667A104.16666666666667 104.16666666666667 0 0 1 500 687.5A104.16666666666667 104.16666666666667 0 0 1 604.1666666666666 791.6666666666667A104.16666666666667 104.16666666666667 0 0 1 500 895.8333333333334zM366.6666666666667 607.9583333333335C357.625 607.9583333333335 349.8125 604.4166666666667 343.2291666666667 597.2916666666667C336.625 590.1666666666667 333.3333333333333 581.7291666666667 333.3333333333333 571.9791666666667V500C333.3333333333333 490.2500000000001 336.625 481.8125 343.2291666666667 474.6875C349.8125 467.5625000000001 357.625 464.0208333333334 366.6666666666667 464.0208333333334H399.9791666666667V248.0833333333334H366.6666666666667C357.625 248.0833333333334 349.8125 244.5416666666668 343.2291666666667 237.4166666666668C336.625 230.3125 333.3333333333333 221.8541666666668 333.3333333333333 212.1250000000001V140.1458333333335C333.3333333333333 130.3958333333334 336.625 122.0000000000001 343.2291666666667 114.8750000000001C349.8125 107.7500000000001 357.625 104.1666666666667 366.6666666666667 104.1666666666667H633.3333333333334C642.375 104.1666666666667 650.1875 107.75 656.7708333333334 114.8750000000001C663.375 122.0000000000001 666.6666666666666 130.3958333333334 666.6666666666666 140.1458333333335V212.1250000000001C666.6666666666666 221.8541666666668 663.3749999999999 230.3125 656.7708333333333 237.4166666666668C650.1875 244.5416666666668 642.375 248.0833333333334 633.3333333333333 248.0833333333334H600.0208333333333V571.9791666666667C600.0208333333333 581.7291666666667 596.6874999999999 590.1666666666667 590.0833333333333 597.2916666666667C583.5 604.4166666666667 575.6875 607.9583333333335 566.6458333333333 607.9583333333335H366.6666666666667z" />
    <glyph glyph-name="lightbulb"
      unicode="&#xE022;"
      horiz-adv-x="1000" d="M499.9374999999999 895.8333333333334C384.0291666666667 895.786875 280.7291666666667 823.2458333333334 245.4791666666667 715.5916666666667C210.2125 607.9145833333334 251.9454166666667 490.1541666666667 347.2979166666666 425.8833333333334C360.2904166666666 417.0733333333334 387.1687499999999 414.0643750000001 387.1687499999999 414.0643750000001H612.7729166666666S639.6499999999999 417.1085416666667 652.6791666666666 425.8833333333334C748.0312499999999 490.1604166666667 789.7604166666665 607.9125 754.4979166666666 715.5916666666667C719.2479166666666 823.2458333333333 615.95625 895.7979166666667 500.0604166666666 895.8416666666667H499.9562499999999zM500.1808333333333 832.3229166666666C536.2120833333333 832.5717708333334 535.9287499999999 778.30625 499.9027083333333 778.9291666666667C467.7797916666666 779.1145833333334 428.0422916666666 761.6454166666667 397.9110416666667 735.8229166666667C367.7777083333333 710 349.0297916666667 676.5333333333333 348.756875 654.0270833333334C348.340625 618.4291666666667 294.944375 619.0541666666668 295.3610416666667 654.6516666666666C295.9241666666666 701.31625 325.0547916666667 743.7120833333333 363.1464583333334 776.3516666666667C401.2402083333333 808.9933333333333 450.0735416666667 832.5954166666667 500.1797916666666 832.3204166666667zM375.4516666666666 369.5729166666668C339.3829166666666 370.0485416666667 339.3829166666666 315.7041666666667 375.4516666666666 316.1791666666667H624.6391666666665C660.7079166666665 315.7035416666668 660.7079166666665 370.0479166666667 624.6391666666665 369.5729166666668zM375.4516666666666 280.5812500000001C339.5204166666666 280.9162500000001 339.5204166666666 226.8500000000002 375.4516666666666 227.1854166666667H624.6391666666665C660.5704166666665 226.8504166666667 660.5704166666665 280.9166666666667 624.6391666666665 280.5812500000001zM418.3495833333333 193.14375C418.3498541666666 161.3520833333332 435.3108333333332 131.9854166666667 462.8433333333332 116.0875C490.3766666666666 100.1908333333333 524.2995833333332 100.1908333333333 551.8349999999999 116.0875C579.3683333333332 131.9841666666665 596.3287499999999 161.35 596.3287499999999 193.14375H507.3370833333332z" />
    <glyph glyph-name="list-ul"
      unicode="&#xE023;"
      horiz-adv-x="1000" d="M166.6666666666667 791.6666666666667A62.5 62.5 0 0 1 104.1666666666667 729.1666666666667A62.5 62.5 0 0 1 166.6666666666667 666.6666666666667A62.5 62.5 0 0 1 229.1666666666667 729.1666666666667A62.5 62.5 0 0 1 166.6666666666667 791.6666666666667zM354.1666666666667 791.6666666666667C331.0833333333333 791.6666666666667 312.5 773.0833333333334 312.5 750V708.3333333333334C312.5 685.25 331.0833333333333 666.6666666666667 354.1666666666667 666.6666666666667H854.1666666666666C877.2499999999999 666.6666666666667 895.8333333333333 685.25 895.8333333333333 708.3333333333334V750C895.8333333333333 773.0833333333334 877.2499999999999 791.6666666666667 854.1666666666666 791.6666666666667H354.1666666666667zM166.6666666666667 562.5A62.5 62.5 0 0 1 104.1666666666667 500A62.5 62.5 0 0 1 166.6666666666667 437.5A62.5 62.5 0 0 1 229.1666666666667 500A62.5 62.5 0 0 1 166.6666666666667 562.5zM354.1666666666667 562.5C331.0833333333333 562.5 312.5 543.9166666666667 312.5 520.8333333333334V479.1666666666667C312.5 456.0833333333334 331.0833333333333 437.5 354.1666666666667 437.5H854.1666666666666C877.2499999999999 437.5 895.8333333333333 456.0833333333334 895.8333333333333 479.1666666666667V520.8333333333334C895.8333333333333 543.9166666666667 877.2499999999999 562.5 854.1666666666666 562.5H354.1666666666667zM166.6666666666667 333.3333333333334A62.5 62.5 0 0 1 104.1666666666667 270.8333333333334A62.5 62.5 0 0 1 166.6666666666667 208.3333333333334A62.5 62.5 0 0 1 229.1666666666667 270.8333333333334A62.5 62.5 0 0 1 166.6666666666667 333.3333333333334zM354.1666666666667 333.3333333333334C331.0833333333333 333.3333333333334 312.5 314.75 312.5 291.6666666666668V250C312.5 226.9166666666668 331.0833333333333 208.3333333333334 354.1666666666667 208.3333333333334H854.1666666666666C877.2499999999999 208.3333333333334 895.8333333333333 226.9166666666668 895.8333333333333 250V291.6666666666668C895.8333333333333 314.75 877.2499999999999 333.3333333333334 854.1666666666666 333.3333333333334H354.1666666666667z" />
    <glyph glyph-name="location"
      unicode="&#xE024;"
      horiz-adv-x="1000" d="M499.9583333333333 895.8333333333334C362.375 895.8333333333334 250.8958333333334 783.6875 250.8958333333334 645.2708333333333C250.8958333333334 438.8125 435.6666666666667 179.2708333333335 486.5416666666666 111.6875000000001C486.5625 111.6458333333334 486.5416666666666 111.6250000000001 486.5625 111.5625000000001C486.6458333333333 111.4791666666669 486.75 111.3541666666669 486.8541666666666 111.2083333333334C487.0833333333333 110.8958333333334 487.5624999999999 110.2916666666669 487.7916666666667 109.9791666666667H487.8750000000001C488.1250000000001 109.6666666666667 488.5208333333333 109.1250000000002 488.5208333333333 109.1250000000002C488.5416666666667 109.1250000000002 492.625 106.0000000000002 492.625 106.0000000000002C492.6458333333334 106.0000000000002 500 104.1666666666669 500 104.1666666666669S507.3958333333333 106.0000000000002 507.3958333333333 106.0000000000002C507.4166666666667 106.0000000000002 511.4999999999999 109.1250000000002 511.5208333333333 109.1250000000002C511.5208333333333 109.1250000000002 511.9166666666666 109.666666666667 512.1666666666666 109.9791666666667C512.6458333333333 110.5625000000001 513.1875 111.1250000000001 513.4583333333334 111.5625000000001C513.6041666666666 111.7916666666669 513.6458333333334 111.9166666666669 513.75 112.1041666666669C564.9583333333334 180.1875000000002 749.0624999999999 439.1458333333335 749.0624999999999 645.2708333333335C749.0624999999999 783.6875000000001 637.5624999999999 895.8333333333335 499.9583333333333 895.8333333333335zM500 788.2916666666667A145.83333333333334 145.83333333333334 0 0 0 645.8333333333333 642.4583333333334A145.83333333333334 145.83333333333334 0 0 0 500 496.6250000000001A145.83333333333334 145.83333333333334 0 0 0 354.1666666666667 642.4583333333334A145.83333333333334 145.83333333333334 0 0 0 500 788.2916666666667z" />
    <glyph glyph-name="lock"
      unicode="&#xE025;"
      horiz-adv-x="1000" d="M285.5833333333333 681.4166666666667V565.9666666666667C251.09375 564.6616666666666 209.4916666666667 573.6133333333333 185.1916666666666 541.9645833333334C161.9645833333333 512.95 172.5552083333333 474.3729166666667 170.130625 440.2229166666666C170.3565833333333 347.9458333333334 169.678 255.64375 170.4711041666667 163.3895833333332C173.2275625 123.9562499999999 213.3961041666667 98.9333333333333 250.5315208333334 104.1687499999999C423.8940208333334 104.3954166666666 597.2815208333333 103.7152083333334 770.6356874999999 104.5091666666666C810.0669374999999 107.2641666666667 835.1023541666666 147.4258333333334 829.8669375 184.5654166666667C829.6406874999999 291.9570833333334 830.3200624999998 399.3779166666666 829.5263124999999 506.7529166666666C826.7683958333332 546.18625 786.5992291666666 571.2133333333334 749.4617291666666 565.9779166666666C738.6331874999998 567.5189583333333 721.7429791666666 562.9975 714.4138125 568.0389583333333C713.2050624999999 618.474375 717.3867291666666 669.2514583333333 711.0648541666666 719.3827083333333C694.8944375 820.8889583333332 597.2065208333333 900.6014583333332 494.4606875 895.7681249999999C389.8127708333334 895.3640416666666 295.1523541666667 807.6306249999999 286.6898541666667 703.3514583333333C285.9500625 696.0689583333333 285.5827708333333 688.7485416666666 285.5827708333333 681.4285416666665zM368.05 565.9666666666667C369.20875 613.2958333333333 365.3714583333333 660.9666666666667 370.729375 708.0145833333333C383.7374999999999 782.26875 467.9314583333333 831.9541666666667 539.2397916666666 807.4333333333334C598.8210416666666 790.2427083333333 637.8231249999999 727.9416666666666 631.9397916666666 666.9895833333333V565.9666666666667H368.0439583333333z" />
    <glyph glyph-name="menu"
      unicode="&#xE026;"
      horiz-adv-x="1000" d="M145.8333333333333 812.5C122.75 812.5 104.1666666666667 793.9166666666667 104.1666666666667 770.8333333333334V708.3333333333334C104.1666666666667 685.25 122.75 666.6666666666667 145.8333333333333 666.6666666666667H854.1666666666666C877.2499999999999 666.6666666666667 895.8333333333333 685.25 895.8333333333333 708.3333333333334V770.8333333333334C895.8333333333333 793.9166666666667 877.2499999999999 812.5 854.1666666666666 812.5H145.8333333333333zM145.8333333333333 572.9166666666667C122.75 572.9166666666667 104.1666666666667 554.3333333333334 104.1666666666667 531.25V468.75C104.1666666666667 445.6666666666668 122.75 427.0833333333334 145.8333333333333 427.0833333333334H854.1666666666666C877.2499999999999 427.0833333333334 895.8333333333333 445.6666666666668 895.8333333333333 468.75V531.25C895.8333333333333 554.3333333333334 877.2499999999999 572.9166666666667 854.1666666666666 572.9166666666667H145.8333333333333zM145.8333333333333 333.3333333333334C122.75 333.3333333333334 104.1666666666667 314.75 104.1666666666667 291.6666666666668V229.1666666666668C104.1666666666667 206.0833333333335 122.75 187.5 145.8333333333333 187.5H854.1666666666666C877.2499999999999 187.5 895.8333333333333 206.0833333333335 895.8333333333333 229.1666666666668V291.6666666666668C895.8333333333333 314.75 877.2499999999999 333.3333333333334 854.1666666666666 333.3333333333334H145.8333333333333z" />
    <glyph glyph-name="trophy"
      unicode="&#xE027;"
      horiz-adv-x="1000" d="M322.9166666666667 875C305.6041666666667 875 291.6666666666667 861.0625 291.6666666666667 843.75V822.9166666666667H134.5625C117.7791666666667 822.9083333333333 104.175 809.3041666666667 104.1666666666667 792.5208333333334C104.1666666666667 666.2708333333334 187.8 558.75 300.125 535.8958333333333C312.3404166666667 493.5833333333334 337.2875 456.7750000000001 370.925 430.2229166666667C371.0770833333334 430.1041666666668 371.2210416666666 429.9756250000001 371.3725 429.8566666666667C424.06 392.1275000000001 458.3308333333333 385.4191666666668 458.3308333333333 385.4191666666668V333.3358333333335C458.3308333333333 298.7108333333335 430.4558333333333 270.8358333333335 395.8308333333333 270.8358333333335H388.7058333333334H385.4141666666667C362.3308333333333 270.8358333333335 343.7475 252.2525000000001 343.7475 229.1691666666668V208.3358333333334H333.3308333333333C310.2475 208.3358333333334 291.6641666666667 189.7525000000001 291.6641666666667 166.6691666666668V125.0025000000001H708.3308333333334V166.6691666666668C708.3308333333334 189.7525000000001 689.7475 208.3358333333334 666.6641666666667 208.3358333333334H656.2475000000001V229.1691666666668C656.2475000000001 251.8629166666668 638.2593750000001 270.1004166666668 615.7204166666668 270.7129166666669L615.6370833333334 270.8379166666669H614.5745833333334H604.1579166666668C569.5329166666668 270.8379166666669 541.6579166666668 298.7129166666669 541.6579166666668 333.3379166666669V385.4212500000002S573.45375 387.3925000000002 622.7933333333334 425.4191666666668L622.7516666666668 425.4608333333335C659.5641666666668 452.2941666666668 686.9204166666668 490.9775000000001 699.8995833333335 535.8941666666667C812.2329166666668 558.7483333333334 895.8370833333335 666.2900000000001 895.8370833333335 792.5191666666667C895.8370833333335 809.3025 882.2329166666668 822.9066666666668 865.4412500000001 822.9150000000001H708.3370833333333V843.7483333333333C708.3370833333333 861.0608333333333 694.3995833333333 874.9983333333333 677.0870833333333 874.9983333333333H322.9204166666667zM170.53125 762.0854166666667H291.6666666666667V697.9166666666667V605.1020833333333C228.5208333333333 627.08125 181.31875 685.8354166666666 170.53125 762.0854166666667zM708.3229166666666 762.0854166666667H829.4583333333333C818.6874999999999 685.8354166666667 771.4791666666666 627.0854166666666 708.3333333333333 605.10625V697.91875V762.0854166666667z" />
    <glyph glyph-name="minus"
      unicode="&#xE028;"
      horiz-adv-x="1000" d="M145.8333333333333 572.9166666666667H854.1666666666666C877.2499999999999 572.9166666666667 895.8333333333333 554.3333333333334 895.8333333333333 531.25V468.75C895.8333333333333 445.6666666666668 877.2499999999999 427.0833333333334 854.1666666666666 427.0833333333334H145.8333333333333C122.75 427.0833333333334 104.1666666666667 445.6666666666668 104.1666666666667 468.75V531.25C104.1666666666667 554.3333333333334 122.75 572.9166666666667 145.8333333333333 572.9166666666667z" />
    <glyph glyph-name="palette"
      unicode="&#xE029;"
      horiz-adv-x="1000" d="M484.0624999999999 892.0395833333333C217.3958333333333 889.95625 106.1041666666667 675.3729166666667 104.1666666666667 519.1229166666667C104.6416666666667 270.3937500000001 244.0083333333333 182.1020833333335 351.4791666666667 126.2687500000002C426.7479166666667 89.9000000000001 451.2625 115.4125000000001 465.4354166666666 127.0812500000002C494.1125 153.7541666666667 479.136875 196.6000000000001 469.4791666666666 211.9583333333335C435.3958333333333 271.5729166666669 511.8854166666666 335.2520833333336 570.5291666666667 295.1979166666669C657.9520833333333 238.5875000000001 791.175 276.3583333333336 841.2791666666666 342.9083333333336C1009.5541666666666 593.5541666666668 759.6375 892.1583333333335 484.05 892.5125000000002zM460.9187499999999 831.2125A77.08958333333332 77.08958333333332 0 0 0 538.0083333333332 754.1208333333334A77.08958333333332 77.08958333333332 0 0 0 460.9187499999999 677.03125A77.08958333333332 77.08958333333332 0 0 0 383.8291666666667 754.1208333333334A77.08958333333332 77.08958333333332 0 0 0 460.9187499999999 831.2125zM666.2041666666667 774.6395833333333A77.08958333333332 77.08958333333332 0 0 0 743.2937499999999 697.55A77.08958333333332 77.08958333333332 0 0 0 666.2041666666667 620.4625000000001A77.08958333333332 77.08958333333332 0 0 0 589.1145833333334 697.55A77.08958333333332 77.08958333333332 0 0 0 666.2041666666667 774.6395833333333zM279.8499999999999 701.8958333333333A77.08958333333332 77.08958333333332 0 0 0 356.9395833333332 624.8062500000001A77.08958333333332 77.08958333333332 0 0 0 279.8499999999999 547.7166666666667A77.08958333333332 77.08958333333332 0 0 0 202.7604166666666 624.8062500000001A77.08958333333332 77.08958333333332 0 0 0 279.8499999999999 701.8958333333334zM750.2666666666665 572.5833333333333A77.08958333333332 77.08958333333332 0 0 0 827.3562499999999 495.4916666666667A77.08958333333332 77.08958333333332 0 0 0 750.2666666666665 418.4020833333334A77.08958333333332 77.08958333333332 0 0 0 673.1770833333333 495.4916666666667A77.08958333333332 77.08958333333332 0 0 0 750.2666666666665 572.5833333333334z" />
    <glyph glyph-name="brush"
      unicode="&#xE02A;"
      horiz-adv-x="1000" d="M104.1666666666667 895.8333333333334L166.6666666666667 500H833.3333333333333L895.8333333333333 895.8333333333334H687.5L645.8333333333333 672.7291666666667V895.8333333333334H354.1666666666667V680.7916666666667L312.5 895.8333333333334H104.1666666666667zM166.6666666666667 458.3333333333334V416.6666666666668C166.6666666666667 347.4166666666668 222.4166666666667 291.6666666666668 291.6666666666667 291.6666666666668H395.8333333333333V208.3333333333334C395.8333333333333 150.625 442.2916666666667 104.1666666666667 500 104.1666666666667S604.1666666666666 150.625 604.1666666666666 208.3333333333334V291.6666666666668H708.3333333333333C777.5833333333333 291.6666666666668 833.3333333333333 347.4166666666668 833.3333333333333 416.6666666666668V458.3333333333334H166.6666666666667zM500 250A41.666666666666664 41.666666666666664 0 0 0 541.6666666666666 208.3333333333334A41.666666666666664 41.666666666666664 0 0 0 500 166.6666666666668A41.666666666666664 41.666666666666664 0 0 0 458.3333333333333 208.3333333333334A41.666666666666664 41.666666666666664 0 0 0 500 250z" />
    <glyph glyph-name="plus"
      unicode="&#xE02B;"
      horiz-adv-x="1000" d="M468.75 885.4166666666666C445.6666666666667 885.4166666666666 427.0833333333333 866.8333333333334 427.0833333333333 843.75V562.5H145.8333333333333C122.75 562.5 104.1666666666667 543.9166666666667 104.1666666666667 520.8333333333334V458.3333333333334C104.1666666666667 435.25 122.75 416.6666666666668 145.8333333333333 416.6666666666668H427.0833333333333V135.4166666666668C427.0833333333333 112.3333333333335 445.6666666666667 93.75 468.75 93.75H531.25C554.3333333333333 93.75 572.9166666666666 112.3333333333335 572.9166666666666 135.4166666666668V416.6666666666668H854.1666666666666C877.2499999999999 416.6666666666668 895.8333333333333 435.25 895.8333333333333 458.3333333333334V520.8333333333334C895.8333333333333 543.9166666666667 877.2499999999999 562.5 854.1666666666666 562.5H572.9166666666666V843.75C572.9166666666666 866.8333333333334 554.3333333333333 885.4166666666666 531.25 885.4166666666666H468.75z" />
    <glyph glyph-name="processing"
      unicode="&#xE02C;"
      horiz-adv-x="1000" d="M876.375 691.4375C862.3795833333334 694.6210416666668 845.1520833333334 704.06125 848.5812500000001 721.1145833333334C851.2916666666666 739.0064583333333 873.15 737.8668749999999 882.4375000000001 749.73125C895.1837500000001 764.8545833333334 880.6329166666667 781.5875 875.1272916666668 796.2625C869.9189583333334 812.3875 851.0231250000002 820.01875 836.398125 810.925C820.2522916666668 796.0958333333333 791.1481250000002 810.95625 797.210625 833.0291666666667C803.4189583333334 845.9854166666667 809.648125 865.8291666666667 794.523125 875.2708333333333C780.1689583333334 882.0437499999999 764.2106250000002 890.74375 748.1064583333334 889.375C729.4814583333334 885.4770833333333 731.5439583333334 863.7104166666667 720.7106250000002 852.4333333333333C709.3981250000002 840.39375 688.5647916666668 847.0958333333333 683.898125 862.30625C680.1064583333333 878.9124999999999 662.335625 890.5770833333333 646.0439583333334 882.5687499999999C631.710625 874.0708333333333 607.5022916666667 870.9333333333333 606.8772916666668 850.0166666666667C608.4791666666667 833.5470833333333 627.3972916666668 813.9895833333333 608.9458333333334 800.0749999999999C594.2420833333334 787.7456249999999 578.5895833333334 804.0089583333333 563.0187500000001 802.600625C543.8047916666667 801.7692708333333 541.3875 780.0422916666666 535.3625000000001 766.1339583333333C527.0041666666667 750.796875 536.0443750000001 732.400625 552.7858333333335 728.4714583333333C574.8170833333335 728.065625 585.5670833333334 695.2547916666667 564.391875 685.1672916666666C550.0868750000001 680.5977083333332 531.7606250000001 668.8802083333333 538.3627083333333 651.2277083333333C545.2985416666668 636.6947916666668 548.8939583333334 617.2902083333333 563.8397916666667 608.963125C580.9225 599.9166666666667 594.3960416666666 620.5039583333333 611.3439583333334 615.8172916666667C634.1085416666667 610.1210416666667 627.4139583333334 583.8214583333333 620.5420833333334 568.1693750000001C617.2316666666667 546.9797916666666 640.9093750000001 540.1422916666668 656.6400000000001 535.4922916666667C672.5304166666667 524.9014583333334 694.4670833333334 537.4612500000001 695.9566666666668 555.8054166666667C699.1758333333335 570.1804166666668 715.8285416666669 580.96375 729.5108333333334 572.8270833333333C744.1654166666668 564.58875 741.9012500000001 540.9541666666667 760.3670833333334 537.5020833333333C778.6670833333334 534.4997916666666 795.5545833333334 547.425 810.665 556.0927083333333C828.1502083333332 571.7670833333334 806.629375 590.5197916666667 807.2306249999999 607.9177083333334C809.6695833333333 625.6325 832.2347916666666 631.1802083333333 845.5972916666666 621.7502083333334C860.271875 614.0293750000001 878.6556249999999 623.2479166666667 881.0660416666666 639.7154166666667C886.9508333333332 655.475625 899.5141666666667 678.6612500000001 879.719375 689.9841666666667L876.3445833333333 691.4341666666667zM784.3666666666666 684.6597916666667C770.0277083333332 640.1681250000001 710.7104166666667 619.736875 671.7791666666666 645.5785416666668C634.2520833333332 667.8660416666667 623.4041666666666 723.7347916666668 651.2227083333332 757.8139583333334C676.8310416666666 791.986875 731.7810416666666 797.9514583333333 763.1810416666666 768.35375C786.0935416666666 748.0614583333333 795.5372916666665 713.4141666666667 784.3706249999999 684.6537500000001zM626.6041666666666 439.625C605.1208333333334 436.9162500000001 575.8291666666667 441.4110416666668 571.8895833333333 467.35625C566.5 494.11875 598.0749999999999 503.7833333333334 605.1208333333333 525.39375C615.3872916666667 553.4104166666666 586.1256249999999 569.6229166666667 570.7479166666667 587.5875C555.01875 607.7645833333332 524.30625 608.8374999999999 508.2708333333334 588.4016666666666C493.0395833333333 559.0495833333332 444.1083333333334 565.0974999999999 441.2979166666667 599.5102083333333C443.4362500000001 621.0914583333333 442.0154166666667 652.4310416666665 415.6979166666667 658.0122916666666C391.8687500000001 660.2135416666665 364.7458333333334 664.3083333333332 342.6166666666667 654.055C318.2166666666667 638.9174999999999 332.3941666666667 609.1320833333332 322.8452083333334 587.5508333333332C313.018125 564.6445833333332 280.036875 563.4008333333334 265.5660416666667 582.5566666666666C251.6089583333334 604.1358333333333 220.399375 611.5045833333332 201.4472916666667 591.748125C185.5131250000001 572.3047916666667 152.7972916666667 555.3606249999999 162.7243750000001 525.3960416666666C173.4933333333334 502.8752083333333 210.4035416666667 484.910625 191.4264583333334 455.6627083333333C176.9433333333334 430.5960416666667 146.361875 445.5764583333334 125.0160416666667 435.545625C98.2056250000001 424.4529166666666 105.9902083333334 392.4039583333333 104.6252083333334 369.576875C100.6895833333334 343.520625 122.9979166666667 322.1060416666667 148.7585416666667 325.1727083333333C180.2002083333334 335.9654166666666 212.3710416666667 294.9977083333333 187.5564583333334 269.7727083333333C169.6347916666667 255.9133333333333 149.7002083333334 229.8456250000001 168.1672916666667 208.2289583333334C185.49875 191.2052083333334 200.6089583333334 165.5497916666667 226.094375 161.4581250000001C254.9797916666667 157.4479166666669 263.4568750000001 193.5852083333334 289.9027083333334 195.6852083333334C325.113125 199.3560416666668 329.194375 158.6185416666667 327.5277083333334 132.8831250000001C333.7683333333334 101.1352083333335 370.8631250000001 103.6581250000002 395.563125 105.1852083333334C423.5547916666667 98.3700000000001 448.1735416666667 127.4935416666667 440.8214583333334 154.2685416666668C437.9675 176.308125 456.0116666666667 200.1872916666668 479.6047916666666 195.7122916666667C504.631875 191.5945833333334 513.6152083333333 156.9206250000001 541.575625 161.5539583333334C569.0672916666666 166.7404166666668 586.338125 193.7768750000001 603.2881249999999 213.8622916666668C619.9883333333332 245.1060416666667 579.8027083333333 260.5872916666669 571.6797916666666 285.5581250000002C565.9968749999999 311.9310416666669 595.1235416666666 331.4393750000002 618.9339583333333 324.9643750000002C643.7214583333332 321.5910416666668 665.0277083333333 344.1456250000001 659.9464583333332 368.7331250000001C660.1583333333332 394.1122916666668 666.0037499999999 433.4643750000002 632.1006249999999 439.2997916666668L626.5681249999999 439.6172916666668zM499.6645833333333 382.5416666666668C502.2939583333334 312.0666666666667 428.7458333333334 252.4979166666667 360.21875 269.0437500000002C295.5166666666667 281.2775000000002 251.3104166666667 354.8812500000002 273.1645833333334 417.5479166666668C291.8345833333334 479.2062500000002 366.6604166666667 516.0145833333333 426.4437500000001 490.2583333333334C469.3979166666667 473.3135416666668 500.6604166666667 429.06875 499.6729166666667 382.5354166666667z" />
    <glyph glyph-name="cart"
      unicode="&#xE02D;"
      horiz-adv-x="1000" d="M148.7208333333333 829.5645833333333C89.3166666666667 830.3826458333333 89.3166666666667 740.8583333333333 148.7208333333333 741.6770833333334H244.2166666666667L325.10625 316.9687500000001C310.608125 300.865625 302.5604166666667 279.9645833333333 302.525 258.2958333333335C302.525 209.75625 341.8729166666667 170.4083333333334 390.4125 170.4083333333334S478.3000000000001 209.75625 478.3000000000001 258.2958333333335C478.2729166666667 265.7118750000001 477.3333333333334 273.0941666666669 475.451875 280.2666666666668H635.033125C633.136875 273.0952083333334 632.1452083333334 265.7127083333334 632.1035416666667 258.2958333333335C632.1035416666667 209.75625 671.4514583333334 170.4083333333334 719.9910416666668 170.4083333333334S807.9181250000001 209.75625 807.9181250000001 258.2958333333335C807.8972916666669 271.6558333333335 804.8058333333336 284.8312500000001 798.9260416666667 296.8270833333335C822.028125 325.8354166666668 801.0141666666668 368.6583333333334 763.934375 368.1541666666667H404.8093750000001L397.6075000000001 405.8729166666668L807.2950000000001 440.4166666666668C820.5818750000002 441.5385416666668 831.6929166666669 450.9670833333334 834.9637500000001 463.8937500000001L894.8575000000001 700.6645833333334C899.84 720.4102083333335 884.9089583333333 739.5708333333334 864.5450000000001 739.5625000000001H334.0450000000002L333.6381250000001 741.6783333333334L316.8743750000002 829.5658333333334H148.7077083333335z" />
    <glyph glyph-name="question"
      unicode="&#xE02E;"
      horiz-adv-x="1000" d="M499.0624999999999 895.7916666666666C408.0208333333333 896.41875 316.7083333333333 857.8208333333333 258.1875 787.2291666666666C243.0833333333333 762.125 201.1875 733.5416666666667 220.5 701.8333333333333C246.125 681.0625 272.875 661.6875 298.9583333333333 641.4791666666667C315 631.3958333333334 330.0833333333333 609.6041666666667 351.3541666666667 618.7291666666667C376.125 641.4166666666667 394.1458333333333 671.3958333333334 420.6041666666667 692.7916666666667C460.9166666666666 723.4791666666667 522.5208333333333 722.8333333333334 563.1458333333333 692.9583333333334C586.5208333333333 678.5 594.0416666666666 648.3333333333334 584.5624999999999 623.375C569.6875 581.5208333333334 521.7499999999999 572.8958333333335 488.7708333333333 550.3333333333334C440.9166666666666 517.3541666666667 393.8333333333333 469.0416666666666 392.375 407.3541666666668C393.1458333333333 384.9791666666667 387.1458333333333 355.5208333333334 410.1666666666667 342.3750000000001C460.4791666666666 340.7083333333335 511.0208333333333 342.1458333333334 561.4374999999999 341.6666666666668C596.1874999999999 345.2291666666668 582.7916666666665 389.7500000000001 602.7499999999999 409.5833333333335C626.3541666666666 452.7500000000001 678.1249999999999 463.6875000000001 712.5208333333333 495.2291666666668C760.8541666666666 529.9375000000001 786.0625 589.8958333333335 785.7291666666667 648.4375000000001C786.3958333333333 704.7916666666667 760.2708333333334 758.2083333333335 722.8541666666666 799.1541666666668C665.2291666666667 859.0958333333334 582.625 896.5833333333335 499.0625 895.7916666666667zM485.9166666666666 311C453.5208333333333 309.8541666666667 421.625 294.75 403.6041666666666 266.1458333333334C363.3749999999999 211.8541666666666 393.5416666666666 125.3541666666666 458.7708333333333 107.8333333333334C522.4999999999999 85.5 596.3124999999999 139.7708333333335 593.7499999999999 207.3125C593.8124999999999 230.625 585.7083333333333 253.875 571.1666666666665 272.1041666666668C551.1666666666665 299.3333333333334 518.3124999999999 312.1458333333333 485.9166666666666 311z" />
    <glyph glyph-name="redo"
      unicode="&#xE02F;"
      horiz-adv-x="1000" d="M733.5208333333334 875C719.09375 875 707.4791666666667 863.3854166666667 707.4791666666667 848.9583333333334V760.6604166666667C621.8958333333334 828.7416666666668 506.6458333333334 851.69375 399.75 817.9875000000001C271.3333333333334 777.4937500000001 179.625 663.2229166666667 167.8958333333334 529.0708333333334C156.1604166666667 394.9354166666667 226.6437500000001 266.4458333333335 346.0770833333334 204.2791666666668C461.3416666666668 144.2750000000001 600.8895833333333 157.2520833333335 703.2229166666666 236.0166666666669C704.9118749999999 236.9645833333335 706.5247916666666 238.0200000000002 708.0649999999999 239.3125000000003L720.0441666666667 249.4375000000001C733.30625 260.5658333333336 735.0379166666667 280.2020833333336 723.9097916666666 293.4645833333335L683.7493749999999 341.316666666667C672.6210416666665 354.5787500000003 652.9847916666665 356.3104166666669 639.7222916666666 345.1822916666669L633.9443749999999 340.3402083333335L633.9027083333333 340.4214583333336C569.2089583333334 286.1381250000003 478.7089583333333 276.2402083333336 403.7985416666667 315.2339583333336C328.8902083333334 354.2297916666669 285.0693750000001 434.067291666667 292.4297916666667 518.1964583333336S356.7839583333333 673.3443750000001 437.3277083333334 698.7381250000003C502.2318750000001 719.2020833333336 571.5652083333334 706.5825000000002 624.4610416666667 667.0818750000002H526.031875C511.6047916666668 667.0818750000002 499.9902083333334 655.4672916666668 499.9902083333334 641.0402083333336V588.9568750000002C499.9902083333334 574.5297916666668 511.6047916666668 562.9152083333336 526.031875 562.9152083333336H729.481875C730.8152083333333 562.7068750000002 732.1485416666666 562.4985416666668 733.5235416666667 562.4985416666668H785.606875C789.3933333333333 562.4985416666668 792.9464583333333 563.3768750000002 796.18625 564.8179166666669C805.7695833333333 568.6720833333335 812.49875 577.9637500000002 812.49875 588.9637500000001V641.0470833333335C812.49875 643.2412500000002 812.1506249999999 645.3616666666669 811.6441666666666 647.3947916666668V848.9739583333335C811.6441666666666 863.4010416666669 800.0295833333333 875.0156250000002 785.6025 875.0156250000002z" />
    <glyph glyph-name="resize"
      unicode="&#xE030;"
      horiz-adv-x="1000" d="M145.8333333333333 895.8333333333334C135 895.8208333333333 124.6291666666667 891.5458333333333 116.8208333333333 884.0333333333333C108.7395833333333 876.1958333333333 104.1791666666667 865.4229166666667 104.1666666666667 854.1666666666667V677.4166666666667C104.18125 640.2916666666667 149.0416666666667 621.7291666666667 175.29375 647.9583333333334L226.8541666666667 699.5L699.5 226.8541666666667L647.9583333333333 175.2916666666666C621.7291666666666 149.0416666666666 640.2916666666666 104.1875 677.4166666666666 104.1666666666665H854.1666666666666C865 104.1874999999999 875.375 108.4583333333333 883.1875 115.9583333333333C891.25 123.8125 895.8125 134.5833333333333 895.8333333333333 145.8333333333333V322.5833333333333C895.8125 359.7083333333333 850.9583333333334 378.2708333333333 824.7083333333333 352.0416666666667L773.1458333333333 300.4999999999999L300.4999999999999 773.1458333333333L352.0416666666666 824.7062499999998C378.2708333333333 850.9583333333333 359.7083333333332 895.8187499999999 322.5833333333333 895.8333333333331H145.8333333333333z" />
    <glyph glyph-name="search"
      unicode="&#xE031;"
      horiz-adv-x="1000" d="M414.875 895.5729166666666C315.8125000000001 892.0666666666666 218.5 844.78125 161.3333333333334 755.5416666666667C36.2229166666667 584.2270833333333 127.0166666666667 323.8541666666668 331.4916666666667 267.4583333333334C429.2375 234.0229166666667 531.7666666666667 256.1329166666668 610.8041666666667 311.8104166666668L801.5812500000001 121.0895833333334A54.9875 54.9875 0 1 1 879.3291666666668 198.8375000000001L688.0979166666668 390.06875C723.4770833333334 439.2291666666668 745.2354166666669 497.6645833333334 746.0333333333335 561.7833333333334A54.9875 54.9875 0 0 1 747.4829166666668 574.0791666666667C747.4837916666669 574.4272916666666 747.3225000000002 574.75125 747.3204166666668 575.099375C747.3066458333335 575.5062500000001 747.4433333333334 575.8735416666667 747.4266666666667 576.2806250000001L747.2122916666668 575.7972916666668C747.0039583333336 647.3389583333335 722.6706250000002 717.2764583333334 678.2122916666669 773.2972916666668C614.8997916666668 858.7702083333334 514.1497916666669 899.143125 414.837291666667 895.6285416666667zM418.8483333333333 782.8145833333333C484.7233333333333 785.1475 551.5545833333333 760.3 590.5066666666667 707.2125A54.9875 54.9875 0 0 1 591.8489583333334 705.440625C621.0114583333333 668.8822916666667 637.646875 621.1385416666667 637.5427083333334 574.371875C637.5426874999999 574.3543125 637.5427708333333 574.3364583333333 637.5427083333334 574.3177083333333A54.9875 54.9875 0 0 1 637.5968750000001 572.11625C642.594375 440.4975 489.8572916666667 328.1579166666667 365.7427083333334 371.6766666666668A54.9875 54.9875 0 0 1 361.7564583333334 372.8587500000001C234.6106250000001 407.0045833333334 172.1856250000001 586.0045833333334 250.5897916666667 691.8170833333334A54.9875 54.9875 0 0 1 252.9539583333334 695.2535416666667C288.0560416666667 750.961875 352.9393750000001 780.4952083333334 418.814375 782.8264583333333z" />
    <glyph glyph-name="settings"
      unicode="&#xE032;"
      horiz-adv-x="1000" d="M847.3333333333333 581.3541666666667C816.7729166666666 577.5010416666667 775.1041666666666 583.8947916666666 769.5020833333332 620.8020833333334C761.8354166666664 658.8729166666667 806.7520833333332 672.6187500000001 816.7729166666666 703.3625C831.3770833333332 743.2166666666667 789.7520833333332 766.2791666666667 767.8770833333332 791.8333333333333C745.5020833333332 820.5354166666666 701.8145833333332 822.0625 679.0020833333332 792.9916666666667C657.3354166666666 751.2375 587.7312499999998 759.8416666666667 583.7312499999998 808.79375C586.7729166666666 839.49375 584.7520833333332 884.0729166666666 547.3145833333332 892.0125C513.4187499999998 895.14375 474.8354166666665 900.96875 443.3562499999999 886.3833333333333C408.6479166666665 864.85 428.8145833333332 822.48125 415.2312499999998 791.7791666666667C401.2520833333332 759.1958333333333 354.3354166666665 757.425 333.7520833333332 784.675C313.8979166666665 815.3708333333333 269.5020833333332 825.8541666666666 242.5437499999998 797.75C219.8770833333331 770.0916666666667 173.3395833333332 745.9875 187.4604166666665 703.3625C202.7793749999998 671.325 255.2854166666665 645.7708333333334 228.2895833333332 604.1645833333332C207.6872916666665 568.5083333333332 164.1854166666665 589.8166666666666 133.8187499999998 575.5479166666667C95.6812499999998 559.7683333333333 106.7541666666665 514.1791666666667 104.8124999999998 481.70625C99.2139583333332 444.6416666666667 130.9479166666665 414.1791666666667 167.5937499999998 418.5416666666667C212.3208333333332 433.894375 258.0833333333332 375.6166666666666 222.7833333333332 339.7333333333333C197.2895833333332 320.0183333333332 168.9333333333332 282.9375 195.2020833333332 252.1854166666666C219.8562499999999 227.96875 241.3499999999998 191.4749999999999 277.6041666666665 185.6520833333333C318.6937499999999 179.9475 330.7541666666665 231.3541666666667 368.3708333333332 234.3416666666666C418.4583333333332 239.5635416666667 424.2624999999998 181.6145833333333 421.8937499999998 145.0041666666667C430.7712499999998 99.8416666666667 483.5395833333331 103.4312500000001 518.6749999999998 105.6041666666667C558.4937499999999 95.9095833333335 593.5124999999998 137.3395833333334 583.0541666666664 175.4270833333335C578.9943749999998 206.7791666666668 604.6624999999998 240.7479166666667 638.2249999999998 234.3812500000002C673.8249999999998 228.5237500000001 686.6062499999997 179.2000000000002 726.3791666666665 185.7895833333335C765.4874999999998 193.1672916666668 790.0541666666663 231.6270833333336 814.1645833333332 260.1979166666669C837.9208333333332 304.6416666666668 780.7562499999998 326.6645833333335 769.1999999999999 362.1875000000001C761.1160416666665 399.7020833333335 802.5479166666667 427.4541666666668 836.4187499999999 418.2437500000001C871.6791666666667 413.4452083333336 901.9875 445.5291666666668 894.7583333333333 480.5062500000001C895.0589583333332 516.6083333333335 903.375 572.5875000000001 855.1458333333333 580.8895833333333L847.2756249999999 581.3408333333334zM666.7604166666665 500.1520833333334C670.5008333333332 399.9020833333334 565.8770833333332 315.1645833333334 468.3979166666665 338.7000000000001C376.3583333333332 356.1025000000001 313.4749999999999 460.8041666666667 344.5624999999999 549.95C371.1208333333332 637.6604166666667 477.5604166666665 690.0208333333334 562.6041666666665 653.38125C623.7062499999998 629.2770833333334 668.1791666666666 566.3375000000001 666.7729166666666 500.1437500000001z" />
    <glyph glyph-name="star"
      unicode="&#xE033;"
      horiz-adv-x="1000" d="M496.2083333333333 894.91875C486.2308333333334 893.3383333333334 476.3158333333333 889.62375 467.5041666666667 884.2966666666666C462.7283333333333 881.403125 458.7927083333333 877.3102083333333 456.0889583333333 872.425C420.455625 808.2458333333334 389.9181249999999 742.55 357.6014583333333 678.98125C303.8097916666667 672.1283333333333 250.036875 665.254375 196.2452083333333 658.4037500000001L203.2441666666667 658.5287500000001C180.0566666666667 660.6929166666667 155.8066666666667 656.5462500000001 133.6691666666667 641.8252083333334C122.6004166666667 634.4647916666667 111.6025 623.23625 106.6295833333333 607.2939583333334C101.658125 591.3512500000002 104.4935416666667 572.8522916666667 112.62875 557.6002083333334C113.8830833333333 555.2664583333333 115.4225 553.0977083333333 117.2114583333333 551.1435416666667C165.1322916666667 498.4164583333334 214.6572916666667 448.0456250000001 262.484375 396.9789583333334C252.8 345.2372916666667 243.125 293.4747916666668 233.446875 241.7310416666668L234.155 244.7297916666668C229.3197916666666 227.9979166666667 222.0427083333333 203.3756250000001 225.03125 175.8756250000001C226.5254166666667 162.1252083333334 231.2502083333333 145.9777083333335 244.4454166666667 133.3464583333334C257.6408333333333 120.7156250000001 277.285 115.4289583333334 296.1891666666666 116.6845833333333C300.2208333333333 116.9554166666666 304.165 117.9887500000001 307.8127083333333 119.7252083333333C371.160625 149.8689583333333 431.5522916666667 183.7147916666667 492.0814583333333 215.073125L667.9335416666667 113.3522916666668L667.766875 113.8106250000001C685.7627083333333 102.6114583333334 705.6564583333333 101.646875 723.8022916666666 108.4372916666667C742.3666666666667 115.3845833333334 760.898125 135.9664583333333 760.7981249999999 160.7539583333335C760.8035416666665 162.0206250000001 760.7335416666665 163.2866666666668 760.5891666666666 164.5447916666667C751.3966666666666 239.0239583333335 739.9179166666665 312.6447916666667 729.4683333333332 386.0239583333335C762.8995833333333 418.459375 796.3183333333334 450.8968750000001 829.7475 483.3302083333334C830.044375 483.6031250000001 830.3360416666666 483.8802083333334 830.6225 484.1635416666667C838.6560416666666 492.5589583333334 862.0808333333333 509.8552083333334 879.36625 533.3156250000001C888.0089583333333 545.0464583333334 896.5929166666667 560.1302083333334 895.7808333333334 579.9281250000001C894.96875 599.7247916666668 882.0164583333333 618.7093750000001 864.91 630.4552083333334C861.28375 632.9931250000001 857.1883333333333 634.7206250000002 852.858125 635.5525C784.0039583333333 648.8608333333334 715.233125 660.0795833333334 647.0185416666667 672.1295833333334C628.266875 714.0233333333333 609.4872916666667 755.90875 590.7331250000001 797.8025C590.413125 798.5370833333334 590.0656250000001 799.2597916666667 589.6914583333333 799.9685416666667C584.8045833333333 808.994375 577.3291666666668 836.0706250000001 562.2372916666667 860.4102083333333C554.6910416666667 872.579375 543.850625 886.0831250000001 525.4497916666668 892.6935416666668C516.2493750000001 895.9975000000001 506.1810416666668 896.5647916666667 496.2039583333334 894.9845833333334z" />
    </font>
</defs>
</svg>
